<?xml version="1.0" standalone="no"?>
<!DOCTYPE svg PUBLIC "-//W3C//DTD SVG 1.1//EN" "http://www.w3.org/Graphics/SVG/1.1/DTD/svg11.dtd" >
<svg>
<metadata>
Created by FontForge 20120731 at Wed Mar  2 20:10:16 2016
 By www-data
Copyright (c) 2014 by Andriy Konstantynov. All rights reserved.
</metadata>
<defs>
<font id="ProbaPro-Regular" horiz-adv-x="220" >
  <font-face 
    font-family="Proba Pro"
    font-weight="400"
    font-stretch="normal"
    units-per-em="1000"
    panose-1="2 13 0 3 3 2 0 0 0 0"
    ascent="750"
    descent="-250"
    x-height="450"
    cap-height="700"
    bbox="-31 -257 1206 1001"
    underline-thickness="50"
    underline-position="-50"
    unicode-range="U+0020-FB03"
  />
<missing-glyph horiz-adv-x="230" 
 />
    <glyph glyph-name="ff" unicode="ff" horiz-adv-x="578" 
d="M350 0v392h-179v-392h-76v392h-62v58h62v156c0 91 59 151 150 151c19 0 38 -3 54 -10v-62c-11 6 -27 10 -42 10c-52 0 -86 -37 -86 -89v-156h179v156c0 91 58 151 149 151c19 0 38 -3 54 -10v-62c-11 6 -26 10 -42 10c-52 0 -86 -37 -86 -89v-156h128v-58h-128v-392h-75z
" />
    <glyph glyph-name="fi" unicode="fi" horiz-adv-x="496" 
d="M350 0v392h-179v-392h-76v392h-62v58h62v156c0 91 59 151 150 151c19 0 38 -3 54 -10v-62c-11 6 -27 10 -42 10c-52 0 -86 -37 -86 -89v-156h251v-450h-72zM337 585c0 27 22 49 49 49s49 -22 49 -49s-22 -49 -49 -49s-49 22 -49 49z" />
    <glyph glyph-name="ffi" unicode="ffi" horiz-adv-x="750" 
d="M604 0v392h-179v-392h-75v392h-179v-392h-76v392h-62v58h62v156c0 91 59 151 150 151c19 0 38 -3 54 -10v-62c-11 6 -27 10 -42 10c-52 0 -86 -37 -86 -89v-156h179v156c0 91 58 151 149 151c19 0 38 -3 54 -10v-62c-11 6 -26 10 -42 10c-52 0 -86 -37 -86 -89v-156h252
v-450h-73zM591 585c0 27 22 49 49 49c28 0 49 -22 49 -49s-21 -49 -49 -49c-27 0 -49 22 -49 49z" />
    <glyph glyph-name="f_j" unicode="fj" horiz-adv-x="496" 
d="M294 -250v49c33 0 56 17 56 53v540h-179v-392h-76v392h-62v58h62v156c0 91 59 151 150 151c19 0 38 -3 54 -10v-62c-11 6 -27 10 -42 10c-52 0 -86 -37 -86 -89v-156h251v-600c0 -65 -37 -104 -95 -104c-10 0 -26 1 -33 4zM337 585c0 27 22 49 49 49s49 -22 49 -49
s-22 -49 -49 -49s-49 22 -49 49z" />
    <glyph glyph-name="afii10104_afii10104" unicode="&#x457;&#x457;" horiz-adv-x="439" 
d="M73 0v450h73v-450h-73zM-13 560c0 26 21 46 47 46s46 -20 46 -46s-20 -47 -46 -47s-47 21 -47 47zM293 0v450h73v-450h-73zM358 560c0 26 21 47 47 47s47 -21 47 -47s-21 -47 -47 -47s-47 21 -47 47zM173 560c0 26 21 47 47 47s47 -21 47 -47s-21 -47 -47 -47
s-47 21 -47 47z" />
    <glyph glyph-name="afii10103_afii10104" unicode="&#x456;&#x457;" horiz-adv-x="439" 
d="M73 0v450h73v-450h-73zM61 585c0 27 21 49 49 49c27 0 49 -22 49 -49s-22 -49 -49 -49c-28 0 -49 22 -49 49zM293 0v450h73v-450h-73zM215 560c0 26 21 46 47 46s47 -20 47 -46s-21 -47 -47 -47s-47 21 -47 47zM358 560c0 26 21 47 47 47s47 -21 47 -47s-21 -47 -47 -47
s-47 21 -47 47z" />
    <glyph glyph-name="quoteright_afii10104" unicode="&#x2019;&#x457;" horiz-adv-x="304" 
d="M51 491l-26 26c23 22 41 47 47 73c-24 3 -42 23 -42 48c0 27 22 49 50 49c23 0 48 -16 48 -57c0 -54 -40 -103 -77 -139zM157 0v450h73v-450h-73zM223 560c0 26 20 47 46 47c27 0 47 -21 47 -47s-20 -47 -47 -47c-26 0 -46 21 -46 47z" />
    <glyph glyph-name="afii10056_afii10056" unicode="&#x407;&#x407;" horiz-adv-x="444" 
d="M73 0v700h76v-700h-76zM-14 797c0 26 21 47 47 47s46 -21 46 -47s-20 -46 -46 -46s-47 20 -47 46zM295 0v700h76v-700h-76zM365 797c0 27 20 47 46 47c27 0 47 -20 47 -47c0 -26 -20 -46 -47 -46c-26 0 -46 20 -46 46zM175 797c0 27 20 47 46 47c27 0 48 -20 48 -47
c0 -26 -21 -46 -48 -46c-26 0 -46 20 -46 46z" />
    <glyph glyph-name="f_f_j" unicode="ffj" horiz-adv-x="750" 
d="M548 -250v49c33 0 56 17 56 53v540h-179v-392h-75v392h-179v-392h-76v392h-62v58h62v156c0 91 59 151 150 151c19 0 38 -3 54 -10v-62c-11 6 -27 10 -42 10c-52 0 -86 -37 -86 -89v-156h179v156c0 91 58 151 149 151c19 0 38 -3 54 -10v-62c-11 6 -26 10 -42 10
c-52 0 -86 -37 -86 -89v-156h252v-600c0 -65 -38 -104 -96 -104c-10 0 -26 1 -33 4zM591 585c0 27 22 49 49 49c28 0 49 -22 49 -49s-21 -49 -49 -49c-27 0 -49 22 -49 49z" />
    <glyph glyph-name=".notdef" horiz-adv-x="230" 
 />
    <glyph glyph-name="exclam" unicode="!" 
d="M61 42c0 27 21 49 49 49c27 0 49 -22 49 -49c0 -28 -22 -49 -49 -49c-28 0 -49 21 -49 49zM73 192v508h73v-508h-73z" />
    <glyph glyph-name="quotedbl" unicode="&#x22;" horiz-adv-x="365" 
d="M73 450v250h64v-250h-64zM228 450v250h63v-250h-63z" />
    <glyph glyph-name="numbersign" unicode="#" horiz-adv-x="605" 
d="M333 0l27 176h-171l-27 -176h-74l28 176h-76v58h85l37 232h-85v58h93l29 176h73l-29 -176h172l28 176h73l-28 -176h77v-58h-86l-37 -232h87v-58h-95l-28 -176h-73zM235 466l-37 -232h172l36 232h-171z" />
    <glyph glyph-name="dollar" unicode="$" horiz-adv-x="530" 
d="M240 -100v94c-78 5 -149 36 -199 91l47 47c38 -43 96 -68 152 -71v263c-89 34 -182 75 -182 195c0 93 56 182 182 188v93h44v-95c64 -7 126 -35 170 -80l-47 -48c-28 30 -76 54 -123 60v-250c91 -36 191 -75 191 -194c0 -96 -62 -189 -191 -199v-94h-44zM397 191
c0 61 -51 90 -113 115v-243c81 14 113 79 113 128zM135 521c0 -61 46 -91 105 -117v234c-76 -9 -105 -69 -105 -117z" />
    <glyph glyph-name="percent" unicode="%" horiz-adv-x="855" 
d="M207 0l368 700h74l-368 -700h-74zM40 538c0 101 69 169 170 169c100 0 169 -68 169 -169s-69 -169 -169 -169c-101 0 -170 68 -170 169zM106 538c0 -67 42 -113 104 -113c61 0 103 46 103 113s-42 113 -103 113c-62 0 -104 -46 -104 -113zM476 162c0 101 69 169 169 169
c101 0 170 -68 170 -169s-69 -169 -170 -169c-100 0 -169 68 -169 169zM542 162c0 -67 42 -113 103 -113c62 0 104 46 104 113s-42 113 -104 113c-61 0 -103 -46 -103 -113z" />
    <glyph glyph-name="ampersand" unicode="&#x26;" horiz-adv-x="603" 
d="M336 349v62h227v-62h-76v-146c0 -125 -89 -210 -220 -210c-130 0 -219 85 -219 210c0 87 45 150 116 179c-52 26 -86 77 -86 145c0 107 77 180 189 180c113 0 189 -73 189 -180h-75c0 68 -46 115 -114 115c-67 0 -113 -47 -113 -115s46 -116 113 -116h29v-62h-29
c-85 0 -144 -60 -144 -146s59 -145 144 -145c86 0 145 59 145 145v146h-76z" />
    <glyph glyph-name="quotesingle" unicode="'" horiz-adv-x="210" 
d="M73 450v250h64v-250h-64z" />
    <glyph glyph-name="parenleft" unicode="(" horiz-adv-x="298" 
d="M247 757v-56c-60 0 -111 -183 -111 -451s51 -451 111 -451v-56c-105 0 -186 206 -186 507s81 507 186 507z" />
    <glyph glyph-name="parenright" unicode=")" horiz-adv-x="298" 
d="M51 701v56c105 0 186 -206 186 -507s-81 -507 -186 -507v56c59 0 111 183 111 451s-52 451 -111 451z" />
    <glyph glyph-name="asterisk" unicode="*" horiz-adv-x="446" 
d="M223 476l-82 -114l-44 34l81 112l-132 43l17 53l132 -43v139h55v-139l133 44l17 -53l-133 -44l83 -113l-46 -32z" />
    <glyph glyph-name="plus" unicode="+" horiz-adv-x="436" 
d="M61 264v58h128v128h58v-128h128v-58h-128v-128h-58v128h-128z" />
    <glyph glyph-name="comma" unicode="," 
d="M82 -105l-26 26c22 22 41 47 46 73c-23 3 -41 23 -41 48c0 27 21 49 49 49c24 0 49 -16 49 -57c0 -54 -41 -103 -77 -139z" />
    <glyph glyph-name="hyphen" unicode="-" horiz-adv-x="340" 
d="M61 236v58h218v-58h-218z" />
    <glyph glyph-name="period" unicode="." 
d="M61 42c0 27 21 49 49 49c27 0 49 -22 49 -49c0 -28 -22 -49 -49 -49c-28 0 -49 21 -49 49z" />
    <glyph glyph-name="slash" unicode="/" horiz-adv-x="549" 
d="M53 -50l369 800h74l-369 -800h-74z" />
    <glyph glyph-name="zero" unicode="0" horiz-adv-x="565" 
d="M50 350c0 212 94 357 233 357c138 0 232 -145 232 -357s-94 -357 -232 -357c-139 0 -233 145 -233 357zM126 350c0 -173 63 -292 157 -292c93 0 157 119 157 292s-64 292 -157 292c-94 0 -157 -119 -157 -292z" />
    <glyph glyph-name="one" unicode="1" horiz-adv-x="316" 
d="M33 614v59l182 31v-704h-72v635z" />
    <glyph glyph-name="two" unicode="2" horiz-adv-x="517" 
d="M50 65l304 303c26 27 40 69 40 118c0 92 -57 155 -138 155c-82 0 -138 -63 -138 -155h-75c0 132 86 221 213 221s213 -89 213 -221c0 -69 -25 -127 -64 -167l-256 -256h320v-63h-419v65z" />
    <glyph glyph-name="three" unicode="3" horiz-adv-x="532" 
d="M219 349v62h46c67 0 114 48 114 116s-47 115 -114 115s-114 -47 -114 -115h-75c0 107 76 180 189 180c112 0 189 -73 189 -180c0 -68 -34 -119 -86 -145c71 -29 116 -92 116 -179c0 -125 -89 -210 -219 -210c-131 0 -220 85 -220 210h76c0 -86 58 -145 144 -145
c85 0 144 59 144 145s-59 146 -144 146h-46z" />
    <glyph glyph-name="four" unicode="4" horiz-adv-x="548" 
d="M360 0v136h-320v36l315 528h75v-501h63v-63h-60v-136h-73zM131 199h231v390z" />
    <glyph glyph-name="five" unicode="5" horiz-adv-x="524" 
d="M469 214c0 -132 -86 -221 -213 -221s-213 84 -213 207h73c0 -83 57 -141 140 -141c81 0 138 63 138 155c0 100 -64 169 -156 169c-49 0 -89 -16 -116 -43l-53 21l43 339h305v-63h-240l-30 -211c25 15 59 23 95 23c135 0 227 -95 227 -235z" />
    <glyph glyph-name="six" unicode="6" horiz-adv-x="530" 
d="M293 707l62 -36c-57 -80 -119 -173 -169 -261c22 13 49 20 80 20c129 0 219 -87 219 -218c0 -130 -89 -219 -220 -219s-220 86 -220 225c0 131 66 222 248 489zM121 212c0 -91 58 -154 144 -154s144 63 144 154c0 92 -58 155 -144 155s-144 -63 -144 -155z" />
    <glyph glyph-name="seven" unicode="7" horiz-adv-x="523" 
d="M50 637v63h423v-27l-253 -673h-78l237 637h-329z" />
    <glyph glyph-name="eight" unicode="8" horiz-adv-x="535" 
d="M78 527c0 107 77 180 189 180c113 0 189 -73 189 -180c0 -68 -33 -119 -85 -145c71 -29 116 -92 116 -179c0 -125 -89 -210 -220 -210c-130 0 -219 85 -219 210c0 87 44 150 115 179c-52 26 -85 77 -85 145zM123 203c0 -86 59 -145 144 -145c86 0 145 59 145 145
s-59 145 -145 145c-85 0 -144 -59 -144 -145zM154 527c0 -68 46 -115 113 -115c68 0 114 47 114 115s-46 115 -114 115c-67 0 -113 -47 -113 -115z" />
    <glyph glyph-name="nine" unicode="9" horiz-adv-x="530" 
d="M237 -7l-62 36c57 80 119 173 169 261c-22 -13 -49 -20 -80 -20c-129 0 -219 87 -219 218c0 130 89 219 220 219s220 -86 220 -225c0 -131 -66 -222 -248 -489zM409 488c0 91 -58 154 -144 154s-144 -63 -144 -154c0 -92 58 -155 144 -155s144 63 144 155z" />
    <glyph glyph-name="colon" unicode=":" 
d="M61 42c0 27 21 49 49 49c27 0 49 -22 49 -49c0 -28 -22 -49 -49 -49c-28 0 -49 21 -49 49zM61 408c0 28 21 49 49 49c27 0 49 -21 49 -49c0 -27 -22 -49 -49 -49c-28 0 -49 22 -49 49z" />
    <glyph glyph-name="semicolon" unicode=";" 
d="M61 408c0 28 21 49 49 49c27 0 49 -21 49 -49c0 -27 -22 -49 -49 -49c-28 0 -49 22 -49 49zM82 -105l-26 26c22 22 41 47 46 73c-23 3 -41 23 -41 48c0 27 21 49 49 49c24 0 49 -16 49 -57c0 -54 -41 -103 -77 -139z" />
    <glyph glyph-name="less" unicode="&#x3c;" horiz-adv-x="410" 
d="M316 109l-280 191l280 191l43 -43l-220 -148l220 -148z" />
    <glyph glyph-name="equal" unicode="=" horiz-adv-x="476" 
d="M61 326v58h354v-58h-354zM61 151v59h354v-59h-354z" />
    <glyph glyph-name="greater" unicode="&#x3e;" horiz-adv-x="410" 
d="M369 300l-280 -191l-43 43l220 148l-220 148l43 43z" />
    <glyph glyph-name="question" unicode="?" horiz-adv-x="471" 
d="M86 586l-48 48c52 48 118 73 192 73c131 0 196 -87 196 -180c0 -149 -156 -127 -156 -278v-57h-73v57c0 183 154 171 154 277c0 53 -35 116 -122 116c-53 0 -109 -22 -143 -56zM184 42c0 27 22 49 49 49c28 0 49 -22 49 -49c0 -28 -21 -49 -49 -49c-27 0 -49 21 -49 49z
" />
    <glyph glyph-name="at" unicode="@" horiz-adv-x="1040" 
d="M832 -74l46 -46c-83 -88 -212 -137 -354 -137c-286 0 -479 196 -479 482s193 482 477 482c291 0 473 -198 473 -443c0 -205 -127 -271 -224 -271c-54 0 -97 18 -116 52c-36 -34 -85 -52 -141 -52c-129 0 -216 94 -216 232s93 232 233 232c80 0 147 -27 187 -73v-274
c0 -35 31 -52 67 -52c60 0 134 51 134 198c0 216 -151 386 -396 386c-239 0 -402 -170 -402 -417s162 -417 404 -417c121 0 236 42 307 118zM373 225c0 -99 65 -167 159 -167c47 0 87 15 114 43v255c-28 23 -70 36 -116 36c-94 0 -157 -68 -157 -167z" />
    <glyph glyph-name="A" unicode="A" horiz-adv-x="749" 
d="M634 0l-88 202h-343l-88 -202h-87l311 700h72l310 -700h-87zM375 604l-144 -334h287z" />
    <glyph glyph-name="B" unicode="B" horiz-adv-x="545" 
d="M76 0v700h191c112 0 187 -70 187 -180c0 -70 -31 -123 -82 -151c73 -24 120 -89 120 -176c0 -118 -81 -193 -199 -193h-217zM417 198c0 78 -51 130 -127 130h-136v-262h136c76 0 127 52 127 132zM379 514c0 72 -47 120 -117 120h-108v-240h108c70 0 117 48 117 120z" />
    <glyph glyph-name="C" unicode="C" horiz-adv-x="699" 
d="M128 350c0 -172 113 -289 278 -289c85 0 155 29 204 80l49 -47c-62 -64 -151 -101 -256 -101c-210 0 -353 145 -353 357s143 357 353 357c105 0 194 -37 256 -101l-49 -48c-48 51 -119 81 -204 81c-165 0 -278 -117 -278 -289z" />
    <glyph glyph-name="D" unicode="D" horiz-adv-x="692" 
d="M76 0v700h214c209 0 352 -138 352 -350s-143 -350 -352 -350h-214zM564 350c0 172 -111 284 -274 284h-136v-568h136c163 0 274 112 274 284z" />
    <glyph glyph-name="E" unicode="E" horiz-adv-x="498" 
d="M151 637v-253h262v-63h-262v-258h299v-63h-374v700h369v-63h-294z" />
    <glyph glyph-name="F" unicode="F" horiz-adv-x="472" 
d="M151 637v-253h244v-63h-244v-321h-75v700h354v-63h-279z" />
    <glyph glyph-name="G" unicode="G" horiz-adv-x="735" 
d="M403 306v63h256v-276c-62 -64 -151 -100 -256 -100c-210 0 -353 145 -353 357s143 357 353 357c105 0 194 -37 256 -101l-49 -48c-48 51 -119 81 -204 81c-165 0 -278 -117 -278 -289s113 -289 278 -289c71 0 132 21 178 59v186h-181z" />
    <glyph glyph-name="H" unicode="H" horiz-adv-x="690" 
d="M151 700v-316h388v316h75v-700h-75v321h-388v-321h-75v700h75z" />
    <glyph glyph-name="I" unicode="I" horiz-adv-x="222" 
d="M73 0v700h76v-700h-76z" />
    <glyph glyph-name="J" unicode="J" horiz-adv-x="453" 
d="M304 190v510h75v-510c0 -118 -80 -197 -196 -197c-58 0 -109 21 -143 55l49 49c22 -23 53 -36 91 -36c73 0 124 52 124 129z" />
    <glyph glyph-name="K" unicode="K" horiz-adv-x="596" 
d="M73 0v700h76v-700h-76zM468 0l-309 359l289 341h95l-289 -341l311 -359h-97z" />
    <glyph glyph-name="L" unicode="L" horiz-adv-x="465" 
d="M151 700v-637h274v-63h-349v700h75z" />
    <glyph glyph-name="M" unicode="M" horiz-adv-x="809" 
d="M658 0v545l-237 -384h-33l-237 384v-545h-75v700h57l271 -433l271 433h58v-700h-75z" />
    <glyph glyph-name="N" unicode="N" horiz-adv-x="713" 
d="M76 700h51l435 -558v558h75v-700h-51l-435 558v-558h-75v700z" />
    <glyph glyph-name="O" unicode="O" horiz-adv-x="805" 
d="M50 350c0 212 143 357 353 357c209 0 352 -145 352 -357s-143 -357 -352 -357c-210 0 -353 145 -353 357zM128 350c0 -172 112 -289 275 -289s274 117 274 289s-111 289 -274 289s-275 -117 -275 -289z" />
    <glyph glyph-name="P" unicode="P" horiz-adv-x="519" 
d="M76 0v700h189c121 0 204 -77 204 -196s-83 -195 -204 -195h-111v-309h-78zM391 504c0 78 -51 130 -126 130h-111v-260h111c75 0 126 52 126 130z" />
    <glyph glyph-name="Q" unicode="Q" horiz-adv-x="805" 
d="M719 -26l-91 92c-59 -47 -137 -73 -225 -73c-210 0 -353 145 -353 357s143 357 353 357c209 0 352 -145 352 -357c0 -95 -29 -176 -79 -236l91 -92zM128 350c0 -172 111 -289 274 -289c68 0 131 18 176 55l-115 115l47 48l109 -109c37 47 58 108 58 180
c0 172 -112 289 -275 289s-274 -117 -274 -289z" />
    <glyph glyph-name="R" unicode="R" horiz-adv-x="534" 
d="M418 0l-168 309h-96v-309h-78v700h196c122 0 204 -77 204 -196c0 -101 -59 -170 -150 -190l178 -314h-86zM398 504c0 78 -50 130 -126 130h-118v-260h118c76 0 126 52 126 130z" />
    <glyph glyph-name="S" unicode="S" horiz-adv-x="530" 
d="M454 625l-47 -48c-33 36 -94 62 -148 62c-90 0 -124 -66 -124 -118c0 -164 340 -107 340 -328c0 -101 -69 -200 -215 -200c-85 0 -164 33 -219 92l47 47c41 -46 106 -71 165 -71c104 0 144 76 144 130c0 159 -339 99 -339 328c0 96 60 188 194 188c75 0 151 -29 202 -82z
" />
    <glyph glyph-name="T" unicode="T" horiz-adv-x="557" 
d="M316 637v-637h-75v637h-201v63h477v-63h-201z" />
    <glyph glyph-name="U" unicode="U" horiz-adv-x="673" 
d="M522 255v445h75v-445c0 -157 -106 -262 -261 -262c-156 0 -260 105 -260 262v445h75v-445c0 -116 75 -194 184 -194c111 0 187 78 187 194z" />
    <glyph glyph-name="V" unicode="V" horiz-adv-x="749" 
d="M721 700l-310 -700h-72l-311 700h89l258 -602l257 602h89z" />
    <glyph glyph-name="W" unicode="W" horiz-adv-x="1133" 
d="M1105 700l-263 -700h-76l-200 571l-199 -571h-76l-263 700h87l214 -584l198 584h79l199 -584l213 584h87z" />
    <glyph glyph-name="X" unicode="X" horiz-adv-x="721" 
d="M593 0l-233 303l-233 -303h-96l274 354l-267 346h97l225 -294l225 294h97l-268 -346l276 -354h-97z" />
    <glyph glyph-name="Y" unicode="Y" horiz-adv-x="667" 
d="M295 0v302l-267 398h88l217 -323l218 323h87l-267 -399v-301h-76z" />
    <glyph glyph-name="Z" unicode="Z" horiz-adv-x="625" 
d="M57 637v63h515v-27l-413 -610h416v-63h-525v28l413 609h-406z" />
    <glyph glyph-name="bracketleft" unicode="[" horiz-adv-x="297" 
d="M247 750v-58h-101v-884h101v-58h-174v1000h174z" />
    <glyph glyph-name="backslash" unicode="\" horiz-adv-x="549" 
d="M127 750l369 -800h-74l-369 800h74z" />
    <glyph glyph-name="bracketright" unicode="]" horiz-adv-x="297" 
d="M51 692v58h173v-1000h-173v58h100v884h-100z" />
    <glyph glyph-name="asciicircum" unicode="^" horiz-adv-x="453" 
d="M226 675l191 -190l-38 -38l-153 152l-152 -152l-38 38z" />
    <glyph glyph-name="underscore" unicode="_" horiz-adv-x="450" 
d="M0 -158v58h450v-58h-450z" />
    <glyph glyph-name="grave" unicode="`" horiz-adv-x="265" 
d="M89 675l125 -125l-38 -38l-125 125z" />
    <glyph glyph-name="a" unicode="a" horiz-adv-x="453" 
d="M408 49v-49c-7 -3 -19 -4 -29 -4c-37 0 -63 18 -75 48c-35 -32 -81 -51 -129 -51c-90 0 -129 63 -129 123c0 93 96 146 217 146c17 0 26 -1 34 -3v55c0 38 -27 83 -91 83c-35 0 -77 -15 -98 -37l-40 40c35 36 87 57 144 57c105 0 158 -68 158 -143v-228
c0 -24 16 -37 38 -37zM197 53c33 0 73 14 100 43v113c-7 1 -16 2 -30 2c-84 0 -148 -33 -148 -88c0 -28 18 -70 78 -70z" />
    <glyph glyph-name="b" unicode="b" horiz-adv-x="539" 
d="M261 -7c-80 0 -148 27 -188 73v684h73v-330c34 24 77 37 126 37c132 0 222 -94 222 -232s-93 -232 -233 -232zM419 225c0 99 -64 167 -157 167c-48 0 -89 -18 -116 -48v-250c27 -23 69 -36 116 -36c94 0 157 68 157 167z" />
    <glyph glyph-name="c" unicode="c" horiz-adv-x="478" 
d="M121 225c0 -99 64 -167 159 -167c49 0 90 17 117 47l45 -45c-40 -43 -98 -67 -166 -67c-138 0 -231 94 -231 232s93 232 231 232c68 0 126 -25 166 -68l-45 -45c-27 30 -68 48 -117 48c-95 0 -159 -68 -159 -167z" />
    <glyph glyph-name="d" unicode="d" horiz-adv-x="541" 
d="M468 0h-73v38c-36 -29 -81 -45 -133 -45c-129 0 -217 94 -217 232s92 232 228 232c46 0 88 -12 122 -33v326h73v-750zM121 225c0 -99 64 -167 159 -167c47 0 88 16 115 44v247c-27 27 -67 43 -115 43c-95 0 -159 -68 -159 -167z" />
    <glyph glyph-name="e" unicode="e" horiz-adv-x="508" 
d="M465 206h-342c6 -89 66 -148 159 -148c51 0 92 17 120 47l44 -45c-41 -43 -98 -67 -168 -67c-139 0 -233 93 -233 234c0 136 87 230 215 230c130 0 205 -97 205 -251zM262 393c-76 0 -131 -52 -139 -135h269c-9 82 -54 135 -130 135z" />
    <glyph glyph-name="f" unicode="f" horiz-adv-x="324" 
d="M33 392v58h62v156c0 91 59 151 150 151c19 0 38 -3 54 -10v-62c-11 6 -27 10 -42 10c-52 0 -86 -37 -86 -89v-156h128v-58h-128v-392h-76v392h-62z" />
    <glyph glyph-name="g" unicode="g" horiz-adv-x="507" 
d="M23 -118c0 59 41 102 103 123c-39 17 -58 43 -58 75c0 33 21 60 63 77c-51 25 -78 76 -78 136c0 100 72 164 177 164c50 0 92 -15 122 -40c21 25 48 40 77 40c9 0 17 0 25 -2v-59c-7 2 -15 3 -21 3c-18 0 -33 -9 -46 -23c13 -23 20 -51 20 -81c0 -96 -72 -162 -179 -162
c-57 0 -90 -22 -90 -51s41 -50 107 -50c128 0 212 -55 212 -138c0 -90 -99 -151 -230 -151c-125 0 -204 57 -204 139zM98 -118c0 -49 48 -82 129 -82c86 0 154 38 154 93c0 49 -55 81 -136 81c-90 0 -147 -38 -147 -92zM126 295c0 -61 43 -104 105 -104s105 43 105 104
s-43 104 -105 104s-105 -43 -105 -104z" />
    <glyph glyph-name="h" unicode="h" horiz-adv-x="523" 
d="M73 750h73v-338c35 29 80 45 132 45c103 0 169 -74 169 -184v-273h-72v273c0 70 -46 119 -113 119c-48 0 -88 -17 -116 -45v-347h-73v750z" />
    <glyph glyph-name="i" unicode="i" 
d="M73 0v450h73v-450h-73zM61 585c0 27 21 49 49 49c27 0 49 -22 49 -49s-22 -49 -49 -49c-28 0 -49 22 -49 49z" />
    <glyph glyph-name="j" unicode="j" 
d="M61 585c0 27 21 49 49 49c27 0 49 -22 49 -49s-22 -49 -49 -49c-28 0 -49 22 -49 49zM18 -250v49c33 0 55 17 55 53v598h73v-600c0 -65 -38 -104 -95 -104c-10 0 -26 1 -33 4z" />
    <glyph glyph-name="k" unicode="k" horiz-adv-x="466" 
d="M146 0h-73v750h73v-504l180 204h87l-188 -211l210 -239h-87l-202 232v-232z" />
    <glyph glyph-name="l" unicode="l" horiz-adv-x="247" 
d="M204 49v-49c-7 -3 -25 -4 -35 -4c-58 0 -96 39 -96 104v650h73v-648c0 -36 24 -53 58 -53z" />
    <glyph glyph-name="m" unicode="m" horiz-adv-x="761" 
d="M615 0v303c0 52 -34 89 -83 89s-91 -16 -120 -44c3 -14 5 -29 5 -45v-303h-73v303c0 52 -33 89 -82 89c-48 0 -88 -17 -116 -45v-347h-73v450h73v-38c35 29 81 45 132 45s92 -23 115 -62c39 40 94 62 156 62c84 0 139 -62 139 -154v-303h-73z" />
    <glyph glyph-name="n" unicode="n" horiz-adv-x="521" 
d="M73 450h73v-38c35 29 81 45 132 45c103 0 169 -74 169 -184v-273h-72v273c0 70 -46 119 -113 119c-48 0 -88 -17 -116 -45v-347h-73v450z" />
    <glyph glyph-name="o" unicode="o" horiz-adv-x="555" 
d="M45 225c0 138 94 232 233 232c138 0 232 -94 232 -232s-94 -232 -232 -232c-139 0 -233 94 -233 232zM121 225c0 -99 63 -167 157 -167c93 0 157 68 157 167s-64 167 -157 167c-94 0 -157 -68 -157 -167z" />
    <glyph glyph-name="p" unicode="p" horiz-adv-x="541" 
d="M73 450h73v-38c35 29 81 45 133 45c129 0 217 -94 217 -232s-92 -232 -228 -232c-46 0 -88 12 -122 33v-276h-73v700zM420 225c0 99 -64 167 -158 167c-49 0 -88 -17 -116 -45v-246c28 -27 67 -43 116 -43c94 0 158 68 158 167z" />
    <glyph glyph-name="q" unicode="q" horiz-adv-x="539" 
d="M279 457c80 0 147 -27 187 -73v-634h-73v280c-34 -24 -77 -37 -126 -37c-132 0 -222 94 -222 232s94 232 234 232zM121 225c0 -99 63 -167 157 -167c48 0 88 17 115 47v251c-28 23 -70 36 -116 36c-94 0 -156 -68 -156 -167z" />
    <glyph glyph-name="r" unicode="r" horiz-adv-x="345" 
d="M268 456c10 0 19 -1 29 -2v-64c-11 2 -22 3 -34 3c-49 0 -90 -24 -117 -62v-331h-73v450h73v-55c33 38 75 61 122 61z" />
    <glyph glyph-name="s" unicode="s" horiz-adv-x="384" 
d="M324 404l-45 -45c-19 20 -55 36 -87 36c-49 0 -67 -36 -67 -65c0 -95 211 -63 211 -202c0 -67 -48 -135 -149 -135c-58 0 -112 22 -148 60l46 45c23 -27 62 -44 97 -44c60 0 81 43 81 73c0 92 -211 59 -211 202c0 65 42 128 135 128c51 0 103 -18 137 -53z" />
    <glyph glyph-name="t" unicode="t" horiz-adv-x="319" 
d="M30 392v58h58v100h75v-100h121v-58h-121v-253c0 -49 32 -84 80 -84c15 0 30 4 41 10v-62c-16 -7 -35 -10 -53 -10c-88 0 -143 58 -143 146v253h-58z" />
    <glyph glyph-name="u" unicode="u" horiz-adv-x="531" 
d="M458 450v-265c0 -115 -78 -192 -193 -192c-114 0 -192 77 -192 192v265h76v-265c0 -75 48 -127 118 -127c71 0 119 52 119 127v265h72z" />
    <glyph glyph-name="v" unicode="v" horiz-adv-x="529" 
d="M503 450l-204 -450h-69l-204 450h81l158 -360l157 360h81z" />
    <glyph glyph-name="w" unicode="w" horiz-adv-x="792" 
d="M766 450l-174 -450h-76l-120 348l-120 -348h-76l-174 450h83l129 -362l121 362h74l121 -362l129 362h83z" />
    <glyph glyph-name="x" unicode="x" horiz-adv-x="513" 
d="M397 0l-141 183l-141 -183h-84l178 229l-171 221h85l133 -173l134 173h85l-172 -221l179 -229h-85z" />
    <glyph glyph-name="y" unicode="y" horiz-adv-x="529" 
d="M503 450l-321 -700h-81l129 250l-204 450h81l158 -363l157 363h81z" />
    <glyph glyph-name="z" unicode="z" horiz-adv-x="470" 
d="M54 392v58h366v-27l-264 -365h264v-58h-370v28l264 364h-260z" />
    <glyph glyph-name="braceleft" unicode="{" horiz-adv-x="318" 
d="M278 -201v-56c-88 0 -157 89 -157 219v95c0 97 -37 164 -81 164v56c44 0 81 66 81 163v98c0 130 69 219 157 219v-56c-44 0 -81 -66 -81 -163v-98c0 -92 -34 -161 -85 -191c51 -31 85 -100 85 -192v-95c0 -97 37 -163 81 -163z" />
    <glyph glyph-name="bar" unicode="|" 
d="M73 -250v1000h73v-1000h-73z" />
    <glyph glyph-name="braceright" unicode="}" horiz-adv-x="318" 
d="M40 -257v56c44 0 81 66 81 163v95c0 92 34 161 85 192c-51 30 -85 99 -85 191v98c0 97 -37 163 -81 163v56c88 0 157 -89 157 -219v-98c0 -97 37 -163 81 -163v-56c-44 0 -81 -67 -81 -164v-95c0 -130 -69 -219 -157 -219z" />
    <glyph glyph-name="asciitilde" unicode="~" horiz-adv-x="433" 
d="M85 249h-49c0 64 46 107 106 107c78 0 86 -64 148 -64c33 0 57 24 57 60h50c0 -64 -45 -108 -107 -108c-80 0 -86 65 -147 65c-33 0 -58 -24 -58 -60z" />
    <glyph glyph-name="exclamdown" unicode="&#xa1;" 
d="M61 408c0 28 21 49 49 49c27 0 49 -21 49 -49c0 -27 -22 -49 -49 -49c-28 0 -49 22 -49 49zM73 258h73v-508h-73v508z" />
    <glyph glyph-name="cent" unicode="&#xa2;" horiz-adv-x="478" 
d="M243 -100v95c-120 14 -198 103 -198 230c0 126 78 216 198 230v95h44v-93c63 -3 117 -28 155 -68l-45 -45c-26 28 -64 46 -110 48v-334c46 1 84 18 110 47l45 -45c-38 -41 -92 -64 -155 -67v-93h-44zM121 225c0 -86 48 -148 122 -164v327c-74 -15 -122 -78 -122 -163z
" />
    <glyph glyph-name="sterling" unicode="&#xa3;" horiz-adv-x="512" 
d="M40 321v58h76v131c0 118 80 197 196 197c58 0 109 -21 143 -55l-49 -49c-21 23 -53 36 -91 36c-73 0 -124 -52 -124 -129v-131h178v-58h-178v-204c60 -15 101 -62 155 -62c35 0 59 24 59 59h59c0 -73 -48 -121 -116 -121c-84 0 -128 67 -192 67c-35 0 -59 -24 -59 -60
h-59c0 59 31 102 78 116v205h-76z" />
    <glyph glyph-name="currency" unicode="&#xa4;" horiz-adv-x="529" 
d="M96 300c0 39 10 72 28 99l-84 84l42 41l84 -84c27 18 60 29 99 29c38 0 72 -11 98 -29l85 84l41 -41l-84 -84c19 -27 29 -60 29 -99s-10 -73 -29 -100l83 -83l-41 -41l-84 84c-26 -19 -60 -29 -98 -29c-39 0 -72 10 -99 29l-84 -84l-41 41l83 83c-18 27 -28 61 -28 100z
M161 300c0 -67 43 -113 104 -113s103 46 103 113s-42 113 -103 113s-104 -46 -104 -113z" />
    <glyph glyph-name="yen" unicode="&#xa5;" horiz-adv-x="667" 
d="M155 221v44h140v37l-267 398h88l217 -323l218 323h87l-267 -399v-36h140v-44h-140v-84h140v-44h-140v-93h-76v93h-140v44h140v84h-140z" />
    <glyph glyph-name="brokenbar" unicode="&#xa6;" 
d="M73 -250v450h73v-450h-73zM146 750v-450h-73v450h73z" />
    <glyph glyph-name="section" unicode="&#xa7;" horiz-adv-x="423" 
d="M161 439l204 -205l-48 -48l-207 206c-38 38 -65 83 -65 146c0 101 74 169 183 169c64 0 117 -24 155 -67l-47 -47c-25 31 -63 48 -108 48c-63 0 -107 -43 -107 -103c0 -44 14 -74 40 -99zM262 11l-204 205l48 48l207 -206c38 -38 65 -83 65 -146
c0 -101 -74 -169 -183 -169c-64 0 -117 24 -154 67l46 47c26 -31 63 -48 108 -48c63 0 108 43 108 103c0 44 -16 73 -41 99z" />
    <glyph glyph-name="dieresis" unicode="&#xa8;" horiz-adv-x="427" 
d="M71 573c0 26 20 46 46 46s47 -20 47 -46s-21 -47 -47 -47s-46 21 -46 47zM258 573c0 26 21 47 47 47s47 -21 47 -47s-21 -47 -47 -47s-47 21 -47 47z" />
    <glyph glyph-name="copyright" unicode="&#xa9;" horiz-adv-x="805" 
d="M50 350c0 212 143 357 353 357c209 0 352 -145 352 -357s-143 -357 -352 -357c-210 0 -353 145 -353 357zM107 350c0 -185 120 -312 296 -312c175 0 295 127 295 312s-120 312 -295 312c-176 0 -296 -127 -296 -312zM280 350c0 -82 53 -138 132 -138c40 0 74 14 97 38
l29 -28c-31 -32 -76 -51 -128 -51c-106 0 -177 73 -177 179s71 179 177 179c52 0 97 -19 128 -51l-29 -28c-23 24 -57 38 -97 38c-79 0 -132 -56 -132 -138z" />
    <glyph glyph-name="ordfeminine" unicode="&#xaa;" horiz-adv-x="260" 
d="M232 483v-31c-4 -1 -12 -2 -18 -2c-21 0 -37 10 -44 26c-18 -18 -44 -28 -70 -28c-48 0 -71 34 -71 68c0 53 53 82 118 82c9 0 15 -1 19 -2v26c0 20 -15 44 -47 44c-20 0 -41 -8 -53 -20l-25 25c20 20 49 33 81 33c59 0 90 -38 90 -82v-119c0 -13 8 -20 20 -20zM115 486
c16 0 37 7 51 22v56c-4 1 -9 2 -16 2c-42 0 -74 -17 -74 -45c0 -14 8 -35 39 -35z" />
    <glyph glyph-name="guillemotleft" unicode="&#xab;" horiz-adv-x="470" 
d="M206 79l-170 171l170 171l38 -38l-132 -133l132 -133zM376 79l-171 171l171 171l38 -38l-133 -133l133 -133z" />
    <glyph glyph-name="logicalnot" unicode="&#xac;" horiz-adv-x="500" 
d="M61 271v58h378v-173h-58v115h-320z" />
    <glyph glyph-name="uni00AD" unicode="&#xad;" horiz-adv-x="340" 
d="M61 236v58h218v-58h-218z" />
    <glyph glyph-name="registered" unicode="&#xae;" horiz-adv-x="805" 
d="M50 350c0 212 143 357 353 357c209 0 352 -145 352 -357s-143 -357 -352 -357c-210 0 -353 145 -353 357zM107 350c0 -185 120 -312 296 -312c175 0 295 127 295 312s-120 312 -295 312c-176 0 -296 -127 -296 -312zM473 174l-80 151h-43v-151h-47v350h102
c62 0 105 -39 105 -100c0 -49 -28 -83 -72 -95l87 -155h-52zM463 424c0 36 -23 60 -58 60h-55v-120h55c35 0 58 24 58 60z" />
    <glyph glyph-name="macron" unicode="&#xaf;" horiz-adv-x="376" 
d="M66 543v47h244v-47h-244z" />
    <glyph glyph-name="degree" unicode="&#xb0;" horiz-adv-x="290" 
d="M45 603c0 61 41 102 101 102s100 -41 100 -102c0 -62 -40 -102 -100 -102s-101 40 -101 102zM86 602c0 -37 24 -61 60 -61c35 0 60 24 60 61c0 38 -26 62 -60 62c-36 0 -60 -24 -60 -62z" />
    <glyph glyph-name="plusminus" unicode="&#xb1;" horiz-adv-x="436" 
d="M61 273v59h128v128h58v-128h128v-59h-128v-127h-58v127h-128zM61 55v58h314v-58h-314z" />
    <glyph glyph-name="twosuperior" unicode="&#xb2;" horiz-adv-x="279" 
d="M33 388l150 150c12 12 19 32 19 54c0 43 -26 72 -63 72c-38 0 -64 -29 -64 -72h-45c0 67 44 112 109 112c64 0 108 -45 108 -112c0 -34 -13 -63 -33 -83l-121 -121h154v-38h-214v38z" />
    <glyph glyph-name="threesuperior" unicode="&#xb3;" horiz-adv-x="287" 
d="M120 521v37h23c32 0 53 22 53 54c0 31 -21 52 -53 52c-30 0 -52 -21 -52 -52h-46c0 54 41 92 98 92c59 0 98 -38 98 -92c0 -34 -15 -58 -40 -72c33 -15 54 -45 54 -87c0 -64 -45 -107 -112 -107c-66 0 -111 43 -111 107h45c0 -40 27 -67 66 -67c40 0 67 27 67 67
s-27 68 -67 68h-23z" />
    <glyph glyph-name="acute" unicode="&#xb4;" horiz-adv-x="265" 
d="M51 550l125 125l38 -38l-125 -125z" />
    <glyph glyph-name="mu" unicode="&#xb5;" horiz-adv-x="531" 
d="M18 -200v49c33 0 55 17 55 53v548h76v-265c0 -75 48 -127 118 -127c71 0 119 52 119 127v265h72v-265c0 -115 -78 -192 -193 -192c-47 0 -88 13 -119 36v-129c0 -65 -38 -104 -95 -104c-10 0 -26 1 -33 4z" />
    <glyph glyph-name="paragraph" unicode="&#xb6;" horiz-adv-x="574" 
d="M353 700v-700h-71v318h-30c-119 0 -199 75 -199 191s80 191 199 191h101zM430 0v700h71v-700h-71z" />
    <glyph glyph-name="periodcentered" unicode="&#xb7;" 
d="M61 250c0 27 21 49 49 49c27 0 49 -22 49 -49s-22 -49 -49 -49c-28 0 -49 22 -49 49z" />
    <glyph glyph-name="cedilla" unicode="&#xb8;" horiz-adv-x="264" 
d="M140 0v-59c39 -7 65 -34 65 -76c0 -48 -34 -80 -83 -80c-24 0 -45 9 -60 25l25 25c9 -9 21 -14 35 -14c28 0 48 17 48 45c0 26 -19 47 -65 47v87h35z" />
    <glyph glyph-name="onesuperior" unicode="&#xb9;" horiz-adv-x="182" 
d="M26 651v35l99 16v-352h-44v311z" />
    <glyph glyph-name="ordmasculine" unicode="&#xba;" horiz-adv-x="316" 
d="M29 576c0 76 53 128 129 128s128 -52 128 -128s-52 -128 -128 -128s-129 52 -129 128zM77 576c0 -52 33 -86 81 -86s81 34 81 86c0 51 -33 86 -81 86s-81 -35 -81 -86z" />
    <glyph glyph-name="guillemotright" unicode="&#xbb;" horiz-adv-x="470" 
d="M429 250l-171 -171l-38 38l133 133l-133 133l38 38zM260 250l-171 -171l-38 38l133 133l-133 133l38 38z" />
    <glyph glyph-name="onequarter" unicode="&#xbc;" horiz-adv-x="634" 
d="M26 651v35l99 16v-352h-44v311zM98 0l368 700h55l-368 -700h-55zM524 0v66h-158v20l156 264h45v-247h31v-37h-30v-66h-44zM422 103h104v180z" />
    <glyph glyph-name="onehalf" unicode="&#xbd;" horiz-adv-x="686" 
d="M26 651v35l99 16v-352h-44v311zM98 0l368 700h55l-368 -700h-55zM440 38l150 150c12 12 18 32 18 54c0 43 -25 72 -62 72c-38 0 -64 -29 -64 -72h-46c0 67 44 112 110 112c64 0 108 -45 108 -112c0 -34 -13 -63 -34 -83l-120 -121h154v-38h-214v38z" />
    <glyph glyph-name="threequarters" unicode="&#xbe;" horiz-adv-x="652" 
d="M120 521v37h23c32 0 53 22 53 54c0 31 -21 52 -53 52c-30 0 -52 -21 -52 -52h-46c0 54 41 92 98 92c59 0 98 -38 98 -92c0 -34 -15 -58 -40 -72c33 -15 54 -45 54 -87c0 -64 -45 -107 -112 -107c-66 0 -111 43 -111 107h45c0 -40 27 -67 66 -67c40 0 67 27 67 67
s-27 68 -67 68h-23zM140 0l368 700h56l-368 -700h-56zM542 0v66h-158v20l156 264h44v-247h31v-37h-29v-66h-44zM439 103h105v180z" />
    <glyph glyph-name="questiondown" unicode="&#xbf;" horiz-adv-x="471" 
d="M385 -136l48 -48c-52 -48 -118 -73 -192 -73c-131 0 -196 87 -196 180c0 149 157 127 157 278v57h72v-57c0 -183 -153 -171 -153 -277c0 -53 34 -116 122 -116c52 0 108 22 142 56zM287 408c0 -27 -22 -49 -49 -49s-49 22 -49 49c0 28 22 49 49 49s49 -21 49 -49z" />
    <glyph glyph-name="Agrave" unicode="&#xc0;" horiz-adv-x="749" 
d="M634 0l-88 202h-343l-88 -202h-87l311 700h72l310 -700h-87zM375 604l-144 -334h287zM311 900l125 -125l-38 -38l-125 125z" />
    <glyph glyph-name="Aacute" unicode="&#xc1;" horiz-adv-x="749" 
d="M634 0l-88 202h-343l-88 -202h-87l311 700h72l310 -700h-87zM375 604l-144 -334h287zM313 775l125 125l38 -38l-125 -125z" />
    <glyph glyph-name="Acircumflex" unicode="&#xc2;" horiz-adv-x="749" 
d="M634 0l-88 202h-343l-88 -202h-87l311 700h72l310 -700h-87zM375 604l-144 -334h287zM375 900l125 -125l-38 -38l-87 87l-88 -87l-38 38z" />
    <glyph glyph-name="Atilde" unicode="&#xc3;" horiz-adv-x="749" 
d="M634 0l-88 202h-343l-88 -202h-87l311 700h72l310 -700h-87zM375 604l-144 -334h287zM279 764h-43c0 52 36 87 84 87c59 0 64 -48 108 -48c24 0 42 18 42 44h42c0 -52 -34 -87 -84 -87c-60 0 -64 48 -107 48c-25 0 -42 -17 -42 -44z" />
    <glyph glyph-name="Adieresis" unicode="&#xc4;" horiz-adv-x="749" 
d="M634 0l-88 202h-343l-88 -202h-87l311 700h72l310 -700h-87zM375 604l-144 -334h287zM234 797c0 26 21 47 47 47s46 -21 46 -47s-20 -46 -46 -46s-47 20 -47 46zM421 797c0 27 21 47 47 47s47 -20 47 -47c0 -26 -21 -46 -47 -46s-47 20 -47 46z" />
    <glyph glyph-name="Aring" unicode="&#xc5;" horiz-adv-x="749" 
d="M634 0l-88 202h-343l-88 -202h-87l311 700h72l310 -700h-87zM375 604l-144 -334h287zM287 820c0 54 36 90 88 90c53 0 87 -36 87 -90c0 -53 -34 -89 -87 -89c-52 0 -88 36 -88 89zM322 820c0 -32 22 -54 53 -54s53 22 53 54c0 33 -23 54 -53 54c-31 0 -53 -21 -53 -54z
" />
    <glyph glyph-name="AE" unicode="&#xc6;" horiz-adv-x="772" 
d="M450 637v-253h239v-63h-239v-258h276v-63h-351v202h-172l-88 -202h-87l311 700h382v-63h-271zM231 270h144v334z" />
    <glyph glyph-name="Ccedilla" unicode="&#xc7;" horiz-adv-x="699" 
d="M128 350c0 -172 113 -289 278 -289c85 0 155 29 204 80l49 -47c-59 -61 -143 -97 -241 -101v-52c40 -7 66 -34 66 -76c0 -48 -34 -80 -83 -80c-25 0 -45 9 -60 25l25 25c9 -9 21 -14 35 -14c28 0 47 17 47 45c0 26 -18 47 -64 47v81c-200 8 -334 150 -334 356
c0 212 143 357 353 357c105 0 194 -37 256 -101l-49 -48c-48 51 -119 81 -204 81c-165 0 -278 -117 -278 -289z" />
    <glyph glyph-name="Egrave" unicode="&#xc8;" horiz-adv-x="498" 
d="M151 637v-253h262v-63h-262v-258h299v-63h-374v700h369v-63h-294zM198 900l125 -125l-38 -38l-125 125z" />
    <glyph glyph-name="Eacute" unicode="&#xc9;" horiz-adv-x="498" 
d="M151 637v-253h262v-63h-262v-258h299v-63h-374v700h369v-63h-294zM200 775l125 125l38 -38l-125 -125z" />
    <glyph glyph-name="Ecircumflex" unicode="&#xca;" horiz-adv-x="498" 
d="M151 637v-253h262v-63h-262v-258h299v-63h-374v700h369v-63h-294zM262 900l125 -125l-38 -38l-87 87l-87 -87l-38 38z" />
    <glyph glyph-name="Edieresis" unicode="&#xcb;" horiz-adv-x="498" 
d="M151 637v-253h262v-63h-262v-258h299v-63h-374v700h369v-63h-294zM121 797c0 26 21 47 47 47s47 -21 47 -47s-21 -46 -47 -46s-47 20 -47 46zM309 797c0 27 20 47 46 47c27 0 47 -20 47 -47c0 -26 -20 -46 -47 -46c-26 0 -46 20 -46 46z" />
    <glyph glyph-name="Igrave" unicode="&#xcc;" horiz-adv-x="222" 
d="M73 0v700h76v-700h-76zM48 900l125 -125l-38 -38l-125 125z" />
    <glyph glyph-name="Iacute" unicode="&#xcd;" horiz-adv-x="222" 
d="M73 0v700h76v-700h-76zM50 775l125 125l38 -38l-125 -125z" />
    <glyph glyph-name="Icircumflex" unicode="&#xce;" horiz-adv-x="222" 
d="M73 0v700h76v-700h-76zM111 900l125 -125l-38 -38l-87 87l-87 -87l-38 38z" />
    <glyph glyph-name="Idieresis" unicode="&#xcf;" horiz-adv-x="222" 
d="M73 0v700h76v-700h-76zM-14 797c0 26 21 47 47 47s46 -21 46 -47s-20 -46 -46 -46s-47 20 -47 46zM143 797c0 27 20 47 46 47c27 0 47 -20 47 -47c0 -26 -20 -46 -47 -46c-26 0 -46 20 -46 46z" />
    <glyph glyph-name="Eth" unicode="&#xd0;" horiz-adv-x="708" 
d="M46 321v58h55v321h204c210 0 352 -138 352 -350s-142 -350 -352 -350h-204v321h-55zM579 350c0 172 -111 284 -274 284h-126v-255h161v-58h-161v-255h126c163 0 274 112 274 284z" />
    <glyph glyph-name="Ntilde" unicode="&#xd1;" horiz-adv-x="713" 
d="M76 700h51l435 -558v558h75v-700h-51l-435 558v-558h-75v700zM260 764h-42c0 52 35 87 84 87c59 0 64 -48 107 -48c25 0 42 18 42 44h43c0 -52 -35 -87 -85 -87c-60 0 -63 48 -106 48c-25 0 -43 -17 -43 -44z" />
    <glyph glyph-name="Ograve" unicode="&#xd2;" horiz-adv-x="805" 
d="M50 350c0 212 143 357 353 357c209 0 352 -145 352 -357s-143 -357 -352 -357c-210 0 -353 145 -353 357zM128 350c0 -172 112 -289 275 -289s274 117 274 289s-111 289 -274 289s-275 -117 -275 -289zM339 900l125 -125l-38 -38l-125 125z" />
    <glyph glyph-name="Oacute" unicode="&#xd3;" horiz-adv-x="805" 
d="M50 350c0 212 143 357 353 357c209 0 352 -145 352 -357s-143 -357 -352 -357c-210 0 -353 145 -353 357zM128 350c0 -172 112 -289 275 -289s274 117 274 289s-111 289 -274 289s-275 -117 -275 -289zM341 775l125 125l38 -38l-125 -125z" />
    <glyph glyph-name="Ocircumflex" unicode="&#xd4;" horiz-adv-x="805" 
d="M50 350c0 212 143 357 353 357c209 0 352 -145 352 -357s-143 -357 -352 -357c-210 0 -353 145 -353 357zM128 350c0 -172 112 -289 275 -289s274 117 274 289s-111 289 -274 289s-275 -117 -275 -289zM403 900l125 -125l-38 -38l-87 87l-88 -87l-38 38z" />
    <glyph glyph-name="Otilde" unicode="&#xd5;" horiz-adv-x="805" 
d="M50 350c0 212 143 357 353 357c209 0 352 -145 352 -357s-143 -357 -352 -357c-210 0 -353 145 -353 357zM128 350c0 -172 112 -289 275 -289s274 117 274 289s-111 289 -274 289s-275 -117 -275 -289zM307 764h-43c0 52 35 87 84 87c59 0 64 -48 108 -48
c24 0 42 18 42 44h42c0 -52 -34 -87 -84 -87c-60 0 -64 48 -107 48c-25 0 -42 -17 -42 -44z" />
    <glyph glyph-name="Odieresis" unicode="&#xd6;" horiz-adv-x="805" 
d="M50 350c0 212 143 357 353 357c209 0 352 -145 352 -357s-143 -357 -352 -357c-210 0 -353 145 -353 357zM128 350c0 -172 112 -289 275 -289s274 117 274 289s-111 289 -274 289s-275 -117 -275 -289zM262 797c0 26 21 47 47 47s46 -21 46 -47s-20 -46 -46 -46
s-47 20 -47 46zM449 797c0 27 21 47 47 47s47 -20 47 -47c0 -26 -21 -46 -47 -46s-47 20 -47 46z" />
    <glyph glyph-name="multiply" unicode="&#xd7;" horiz-adv-x="436" 
d="M100 131l-42 41l118 118l-118 119l42 41l118 -118l118 118l41 -41l-118 -119l118 -118l-41 -41l-118 118z" />
    <glyph glyph-name="Oslash" unicode="&#xd8;" horiz-adv-x="805" 
d="M53 -7l90 104c-59 62 -93 149 -93 253c0 212 143 357 353 357c83 0 156 -23 214 -65l56 65h79l-90 -104c59 -63 93 -150 93 -253c0 -212 -143 -357 -352 -357c-84 0 -158 23 -215 64l-56 -64h-79zM677 350c0 79 -24 146 -65 196l-376 -433c45 -34 102 -52 167 -52
c163 0 274 117 274 289zM128 350c0 -79 24 -146 65 -196l376 433c-45 33 -101 52 -166 52c-163 0 -275 -117 -275 -289z" />
    <glyph glyph-name="Ugrave" unicode="&#xd9;" horiz-adv-x="673" 
d="M522 255v445h75v-445c0 -157 -106 -262 -261 -262c-156 0 -260 105 -260 262v445h75v-445c0 -116 75 -194 184 -194c111 0 187 78 187 194zM273 900l125 -125l-38 -38l-125 125z" />
    <glyph glyph-name="Uacute" unicode="&#xda;" horiz-adv-x="673" 
d="M522 255v445h75v-445c0 -157 -106 -262 -261 -262c-156 0 -260 105 -260 262v445h75v-445c0 -116 75 -194 184 -194c111 0 187 78 187 194zM275 775l125 125l38 -38l-125 -125z" />
    <glyph glyph-name="Ucircumflex" unicode="&#xdb;" horiz-adv-x="673" 
d="M522 255v445h75v-445c0 -157 -106 -262 -261 -262c-156 0 -260 105 -260 262v445h75v-445c0 -116 75 -194 184 -194c111 0 187 78 187 194zM336 900l126 -125l-38 -38l-88 87l-87 -87l-38 38z" />
    <glyph glyph-name="Udieresis" unicode="&#xdc;" horiz-adv-x="673" 
d="M522 255v445h75v-445c0 -157 -106 -262 -261 -262c-156 0 -260 105 -260 262v445h75v-445c0 -116 75 -194 184 -194c111 0 187 78 187 194zM196 797c0 26 21 47 47 47s46 -21 46 -47s-20 -46 -46 -46s-47 20 -47 46zM383 797c0 27 21 47 47 47s47 -20 47 -47
c0 -26 -21 -46 -47 -46s-47 20 -47 46z" />
    <glyph glyph-name="Yacute" unicode="&#xdd;" horiz-adv-x="667" 
d="M295 0v302l-267 398h88l217 -323l218 323h87l-267 -399v-301h-76zM272 775l125 125l38 -38l-125 -125z" />
    <glyph glyph-name="Thorn" unicode="&#xde;" horiz-adv-x="519" 
d="M76 0v700h78v-146h111c121 0 204 -76 204 -196c0 -118 -83 -195 -204 -195h-111v-163h-78zM391 358c0 79 -51 131 -126 131h-111v-260h111c75 0 126 52 126 129z" />
    <glyph glyph-name="germandbls" unicode="&#xdf;" horiz-adv-x="600" 
d="M149 571v-571h-76v571c0 110 80 186 197 186s197 -76 197 -186c0 -86 -49 -152 -124 -172c0 -147 209 -93 209 -267c0 -69 -49 -139 -150 -139c-57 0 -112 22 -147 60l45 45c24 -27 63 -44 97 -44c60 0 82 44 82 75c0 116 -209 75 -209 261v60c72 0 121 48 121 120
s-49 122 -121 122s-121 -50 -121 -121z" />
    <glyph glyph-name="agrave" unicode="&#xe0;" horiz-adv-x="453" 
d="M408 49v-49c-7 -3 -19 -4 -29 -4c-37 0 -63 18 -75 48c-35 -32 -81 -51 -129 -51c-90 0 -129 63 -129 123c0 93 96 146 217 146c17 0 26 -1 34 -3v55c0 38 -27 83 -91 83c-35 0 -77 -15 -98 -37l-40 40c35 36 87 57 144 57c105 0 158 -68 158 -143v-228
c0 -24 16 -37 38 -37zM197 53c33 0 73 14 100 43v113c-7 1 -16 2 -30 2c-84 0 -148 -33 -148 -88c0 -28 18 -70 78 -70zM145 675l125 -125l-38 -38l-125 125z" />
    <glyph glyph-name="aacute" unicode="&#xe1;" horiz-adv-x="453" 
d="M408 49v-49c-7 -3 -19 -4 -29 -4c-37 0 -63 18 -75 48c-35 -32 -81 -51 -129 -51c-90 0 -129 63 -129 123c0 93 96 146 217 146c17 0 26 -1 34 -3v55c0 38 -27 83 -91 83c-35 0 -77 -15 -98 -37l-40 40c35 36 87 57 144 57c105 0 158 -68 158 -143v-228
c0 -24 16 -37 38 -37zM197 53c33 0 73 14 100 43v113c-7 1 -16 2 -30 2c-84 0 -148 -33 -148 -88c0 -28 18 -70 78 -70zM150 550l125 125l38 -38l-125 -125z" />
    <glyph glyph-name="acircumflex" unicode="&#xe2;" horiz-adv-x="453" 
d="M408 49v-49c-7 -3 -19 -4 -29 -4c-37 0 -63 18 -75 48c-35 -32 -81 -51 -129 -51c-90 0 -129 63 -129 123c0 93 96 146 217 146c17 0 26 -1 34 -3v55c0 38 -27 83 -91 83c-35 0 -77 -15 -98 -37l-40 40c35 36 87 57 144 57c105 0 158 -68 158 -143v-228
c0 -24 16 -37 38 -37zM197 53c33 0 73 14 100 43v113c-7 1 -16 2 -30 2c-84 0 -148 -33 -148 -88c0 -28 18 -70 78 -70zM214 675l125 -125l-38 -38l-87 87l-88 -87l-38 38z" />
    <glyph glyph-name="atilde" unicode="&#xe3;" horiz-adv-x="453" 
d="M408 49v-49c-7 -3 -19 -4 -29 -4c-37 0 -63 18 -75 48c-35 -32 -81 -51 -129 -51c-90 0 -129 63 -129 123c0 93 96 146 217 146c17 0 26 -1 34 -3v55c0 38 -27 83 -91 83c-35 0 -77 -15 -98 -37l-40 40c35 36 87 57 144 57c105 0 158 -68 158 -143v-228
c0 -24 16 -37 38 -37zM197 53c33 0 73 14 100 43v113c-7 1 -16 2 -30 2c-84 0 -148 -33 -148 -88c0 -28 18 -70 78 -70zM126 539h-43c0 52 35 88 84 88c59 0 64 -49 107 -49c25 0 43 18 43 44h42c0 -52 -35 -87 -85 -87c-60 0 -63 48 -106 48c-25 0 -42 -17 -42 -44z" />
    <glyph glyph-name="adieresis" unicode="&#xe4;" horiz-adv-x="453" 
d="M408 49v-49c-7 -3 -19 -4 -29 -4c-37 0 -63 18 -75 48c-35 -32 -81 -51 -129 -51c-90 0 -129 63 -129 123c0 93 96 146 217 146c17 0 26 -1 34 -3v55c0 38 -27 83 -91 83c-35 0 -77 -15 -98 -37l-40 40c35 36 87 57 144 57c105 0 158 -68 158 -143v-228
c0 -24 16 -37 38 -37zM197 53c33 0 73 14 100 43v113c-7 1 -16 2 -30 2c-84 0 -148 -33 -148 -88c0 -28 18 -70 78 -70zM265 573c0 26 21 47 47 47c27 0 47 -21 47 -47s-20 -47 -47 -47c-26 0 -47 21 -47 47zM78 573c0 26 21 46 47 46s46 -20 46 -46s-20 -47 -46 -47
s-47 21 -47 47z" />
    <glyph glyph-name="aring" unicode="&#xe5;" horiz-adv-x="453" 
d="M408 49v-49c-7 -3 -19 -4 -29 -4c-37 0 -63 18 -75 48c-35 -32 -81 -51 -129 -51c-90 0 -129 63 -129 123c0 93 96 146 217 146c17 0 26 -1 34 -3v55c0 38 -27 83 -91 83c-35 0 -77 -15 -98 -37l-40 40c35 36 87 57 144 57c105 0 158 -68 158 -143v-228
c0 -24 16 -37 38 -37zM128 596c0 53 36 89 88 89c53 0 88 -36 88 -89c0 -54 -35 -90 -88 -90c-52 0 -88 36 -88 90zM197 53c33 0 73 14 100 43v113c-7 1 -16 2 -30 2c-84 0 -148 -33 -148 -88c0 -28 18 -70 78 -70zM164 595c0 -32 22 -54 52 -54c32 0 53 22 53 54
c0 33 -22 55 -53 55c-30 0 -52 -22 -52 -55z" />
    <glyph glyph-name="ae" unicode="&#xe6;" horiz-adv-x="720" 
d="M297 259v55c0 38 -27 83 -91 83c-35 0 -77 -15 -98 -37l-40 40c35 36 87 57 144 57s96 -22 119 -52c36 34 84 52 141 52c130 0 205 -97 205 -251h-307v-94c27 -34 70 -54 124 -54c51 0 92 17 120 47l44 -45c-41 -43 -98 -67 -168 -67c-73 0 -134 23 -174 69
c-35 -43 -86 -69 -141 -69c-90 0 -129 63 -129 123c0 93 96 146 217 146c17 0 26 -1 34 -3zM370 314v-56h234c-9 82 -54 135 -130 135c-45 0 -83 -18 -107 -50c1 -9 3 -19 3 -29zM297 101v108c-7 1 -16 2 -30 2c-84 0 -148 -33 -148 -88c0 -28 18 -70 78 -70
c34 0 73 17 100 48z" />
    <glyph glyph-name="ccedilla" unicode="&#xe7;" horiz-adv-x="478" 
d="M121 225c0 -99 64 -167 159 -167c49 0 90 17 117 47l45 -45c-38 -41 -91 -64 -154 -67v-52c39 -7 65 -34 65 -76c0 -48 -34 -80 -82 -80c-25 0 -46 9 -61 25l26 25c9 -9 20 -14 35 -14c27 0 47 17 47 45c0 26 -19 47 -65 47v81c-126 9 -208 101 -208 231
c0 138 93 232 231 232c68 0 126 -25 166 -68l-45 -45c-27 30 -68 48 -117 48c-95 0 -159 -68 -159 -167z" />
    <glyph glyph-name="egrave" unicode="&#xe8;" horiz-adv-x="508" 
d="M465 206h-342c6 -89 66 -148 159 -148c51 0 92 17 120 47l44 -45c-41 -43 -98 -67 -168 -67c-139 0 -233 93 -233 234c0 136 87 230 215 230c130 0 205 -97 205 -251zM262 393c-76 0 -131 -52 -139 -135h269c-9 82 -54 135 -130 135zM197 675l126 -125l-38 -38l-126 125z
" />
    <glyph glyph-name="eacute" unicode="&#xe9;" horiz-adv-x="508" 
d="M465 206h-342c6 -89 66 -148 159 -148c51 0 92 17 120 47l44 -45c-41 -43 -98 -67 -168 -67c-139 0 -233 93 -233 234c0 136 87 230 215 230c130 0 205 -97 205 -251zM262 393c-76 0 -131 -52 -139 -135h269c-9 82 -54 135 -130 135zM198 550l125 125l38 -38l-125 -125z
" />
    <glyph glyph-name="ecircumflex" unicode="&#xea;" horiz-adv-x="508" 
d="M465 206h-342c6 -89 66 -148 159 -148c51 0 92 17 120 47l44 -45c-41 -43 -98 -67 -168 -67c-139 0 -233 93 -233 234c0 136 87 230 215 230c130 0 205 -97 205 -251zM262 393c-76 0 -131 -52 -139 -135h269c-9 82 -54 135 -130 135zM261 675l125 -125l-38 -38l-87 87
l-88 -87l-38 38z" />
    <glyph glyph-name="edieresis" unicode="&#xeb;" horiz-adv-x="508" 
d="M465 206h-342c6 -89 66 -148 159 -148c51 0 92 17 120 47l44 -45c-41 -43 -98 -67 -168 -67c-139 0 -233 93 -233 234c0 136 87 230 215 230c130 0 205 -97 205 -251zM262 393c-76 0 -131 -52 -139 -135h269c-9 82 -54 135 -130 135zM121 573c0 26 20 46 46 46
s47 -20 47 -46s-21 -47 -47 -47s-46 21 -46 47zM308 573c0 26 20 47 46 47c27 0 47 -21 47 -47s-20 -47 -47 -47c-26 0 -46 21 -46 47z" />
    <glyph glyph-name="igrave" unicode="&#xec;" 
d="M46 675l125 -125l-38 -38l-125 125zM73 0v450h73v-450h-73z" />
    <glyph glyph-name="iacute" unicode="&#xed;" 
d="M48 550l125 125l38 -38l-125 -125zM73 0v450h73v-450h-73z" />
    <glyph glyph-name="icircumflex" unicode="&#xee;" 
d="M73 0v450h73v-450h-73zM110 675l125 -125l-38 -38l-87 87l-87 -87l-38 38z" />
    <glyph glyph-name="idieresis" unicode="&#xef;" 
d="M73 0v450h73v-450h-73zM-13 573c0 26 21 46 47 46s46 -20 46 -46s-20 -47 -46 -47s-47 21 -47 47zM139 573c0 26 20 47 46 47c27 0 47 -21 47 -47s-20 -47 -47 -47c-26 0 -46 21 -46 47z" />
    <glyph glyph-name="eth" unicode="&#xf0;" horiz-adv-x="555" 
d="M167 538l-29 50l87 49l-62 84l65 36l61 -83l93 53l29 -50l-86 -49c125 -188 185 -280 185 -396c0 -147 -94 -239 -232 -239c-139 0 -233 94 -233 233s98 231 232 231c33 0 65 -9 87 -21c-31 50 -65 103 -102 156zM435 225c0 99 -64 167 -157 167
c-94 0 -157 -68 -157 -167s63 -167 157 -167c93 0 157 68 157 167z" />
    <glyph glyph-name="ntilde" unicode="&#xf1;" horiz-adv-x="521" 
d="M73 450h73v-38c35 29 81 45 132 45c103 0 169 -74 169 -184v-273h-72v273c0 70 -46 119 -113 119c-48 0 -88 -17 -116 -45v-347h-73v450zM160 539h-43c0 52 36 88 84 88c59 0 64 -49 108 -49c24 0 42 18 42 44h42c0 -52 -34 -87 -84 -87c-60 0 -64 48 -107 48
c-25 0 -42 -17 -42 -44z" />
    <glyph glyph-name="ograve" unicode="&#xf2;" horiz-adv-x="555" 
d="M45 225c0 138 94 232 233 232c138 0 232 -94 232 -232s-94 -232 -232 -232c-139 0 -233 94 -233 232zM121 225c0 -99 63 -167 157 -167c93 0 157 68 157 167s-64 167 -157 167c-94 0 -157 -68 -157 -167zM214 675l125 -125l-38 -38l-125 125z" />
    <glyph glyph-name="oacute" unicode="&#xf3;" horiz-adv-x="555" 
d="M45 225c0 138 94 232 233 232c138 0 232 -94 232 -232s-94 -232 -232 -232c-139 0 -233 94 -233 232zM121 225c0 -99 63 -167 157 -167c93 0 157 68 157 167s-64 167 -157 167c-94 0 -157 -68 -157 -167zM216 550l125 125l38 -38l-125 -125z" />
    <glyph glyph-name="ocircumflex" unicode="&#xf4;" horiz-adv-x="555" 
d="M45 225c0 138 94 232 233 232c138 0 232 -94 232 -232s-94 -232 -232 -232c-139 0 -233 94 -233 232zM121 225c0 -99 63 -167 157 -167c93 0 157 68 157 167s-64 167 -157 167c-94 0 -157 -68 -157 -167zM278 675l125 -125l-38 -38l-87 87l-88 -87l-38 38z" />
    <glyph glyph-name="otilde" unicode="&#xf5;" horiz-adv-x="555" 
d="M45 225c0 138 94 232 233 232c138 0 232 -94 232 -232s-94 -232 -232 -232c-139 0 -233 94 -233 232zM121 225c0 -99 63 -167 157 -167c93 0 157 68 157 167s-64 167 -157 167c-94 0 -157 -68 -157 -167zM182 539h-43c0 52 35 88 84 88c59 0 64 -49 108 -49
c24 0 42 18 42 44h42c0 -52 -34 -87 -84 -87c-60 0 -64 48 -107 48c-25 0 -42 -17 -42 -44z" />
    <glyph glyph-name="odieresis" unicode="&#xf6;" horiz-adv-x="555" 
d="M45 225c0 138 94 232 233 232c138 0 232 -94 232 -232s-94 -232 -232 -232c-139 0 -233 94 -233 232zM121 225c0 -99 63 -167 157 -167c93 0 157 68 157 167s-64 167 -157 167c-94 0 -157 -68 -157 -167zM137 573c0 26 21 46 47 46s46 -20 46 -46s-20 -47 -46 -47
s-47 21 -47 47zM324 573c0 26 21 47 47 47s47 -21 47 -47s-21 -47 -47 -47s-47 21 -47 47z" />
    <glyph glyph-name="divide" unicode="&#xf7;" horiz-adv-x="500" 
d="M61 238v58h378v-58h-378zM204 102c0 26 20 45 46 45s45 -19 45 -45s-19 -46 -45 -46s-46 20 -46 46zM204 432c0 26 20 46 46 46s45 -20 45 -46c0 -25 -19 -45 -45 -45s-46 20 -46 45z" />
    <glyph glyph-name="oslash" unicode="&#xf8;" horiz-adv-x="555" 
d="M53 -7l53 67c-39 41 -61 97 -61 165c0 138 94 232 233 232c45 0 87 -10 121 -29l27 34h76l-56 -70c41 -40 64 -99 64 -167c0 -138 -94 -232 -232 -232c-48 0 -90 11 -125 31l-24 -31h-76zM439 225c0 45 -13 84 -35 113l-210 -264c24 -14 52 -21 84 -21
c96 0 161 70 161 172zM116 225c0 -44 12 -82 33 -111l209 263c-23 13 -50 20 -80 20c-96 0 -162 -70 -162 -172z" />
    <glyph glyph-name="ugrave" unicode="&#xf9;" horiz-adv-x="531" 
d="M458 450v-265c0 -115 -78 -192 -193 -192c-114 0 -192 77 -192 192v265h76v-265c0 -75 48 -127 118 -127c71 0 119 52 119 127v265h72zM202 675l125 -125l-38 -38l-125 125z" />
    <glyph glyph-name="uacute" unicode="&#xfa;" horiz-adv-x="531" 
d="M458 450v-265c0 -115 -78 -192 -193 -192c-114 0 -192 77 -192 192v265h76v-265c0 -75 48 -127 118 -127c71 0 119 52 119 127v265h72zM204 550l125 125l38 -38l-125 -125z" />
    <glyph glyph-name="ucircumflex" unicode="&#xfb;" horiz-adv-x="531" 
d="M458 450v-265c0 -115 -78 -192 -193 -192c-114 0 -192 77 -192 192v265h76v-265c0 -75 48 -127 118 -127c71 0 119 52 119 127v265h72zM265 675l125 -125l-38 -38l-87 87l-87 -87l-38 38z" />
    <glyph glyph-name="udieresis" unicode="&#xfc;" horiz-adv-x="531" 
d="M458 450v-265c0 -115 -78 -192 -193 -192c-114 0 -192 77 -192 192v265h76v-265c0 -75 48 -127 118 -127c71 0 119 52 119 127v265h72zM125 573c0 26 20 46 46 46s47 -20 47 -46s-21 -47 -47 -47s-46 21 -46 47zM312 573c0 26 21 47 47 47s47 -21 47 -47s-21 -47 -47 -47
s-47 21 -47 47z" />
    <glyph glyph-name="yacute" unicode="&#xfd;" horiz-adv-x="529" 
d="M503 450l-321 -700h-81l129 250l-204 450h81l158 -363l157 363h81zM203 550l125 125l38 -38l-125 -125z" />
    <glyph glyph-name="thorn" unicode="&#xfe;" horiz-adv-x="541" 
d="M73 750h73v-338c35 29 81 45 133 45c129 0 217 -94 217 -232s-92 -232 -228 -232c-46 0 -88 12 -122 33v-276h-73v1000zM420 225c0 99 -64 167 -158 167c-49 0 -88 -17 -116 -45v-246c28 -27 67 -43 116 -43c94 0 158 68 158 167z" />
    <glyph glyph-name="ydieresis" unicode="&#xff;" horiz-adv-x="529" 
d="M503 450l-321 -700h-81l129 250l-204 450h81l158 -363l157 363h81zM124 573c0 26 21 46 47 46s46 -20 46 -46s-20 -47 -46 -47s-47 21 -47 47zM311 573c0 26 21 47 47 47s47 -21 47 -47s-21 -47 -47 -47s-47 21 -47 47z" />
    <glyph glyph-name="Amacron" unicode="&#x100;" horiz-adv-x="749" 
d="M634 0l-88 202h-343l-88 -202h-87l311 700h72l310 -700h-87zM375 604l-144 -334h287zM253 768v46h244v-46h-244z" />
    <glyph glyph-name="amacron" unicode="&#x101;" horiz-adv-x="453" 
d="M408 49v-49c-7 -3 -19 -4 -29 -4c-37 0 -63 18 -75 48c-35 -32 -81 -51 -129 -51c-90 0 -129 63 -129 123c0 93 96 146 217 146c17 0 26 -1 34 -3v55c0 38 -27 83 -91 83c-35 0 -77 -15 -98 -37l-40 40c35 36 87 57 144 57c105 0 158 -68 158 -143v-228
c0 -24 16 -37 38 -37zM197 53c33 0 73 14 100 43v113c-7 1 -16 2 -30 2c-84 0 -148 -33 -148 -88c0 -28 18 -70 78 -70zM92 543v47h244v-47h-244z" />
    <glyph glyph-name="Abreve" unicode="&#x102;" horiz-adv-x="749" 
d="M634 0l-88 202h-343l-88 -202h-87l311 700h72l310 -700h-87zM375 604l-144 -334h287zM375 807c43 0 77 16 102 42l38 -38c-36 -37 -83 -59 -140 -59c-58 0 -105 23 -141 59l38 38c26 -26 60 -42 103 -42z" />
    <glyph glyph-name="abreve" unicode="&#x103;" horiz-adv-x="453" 
d="M408 49v-49c-7 -3 -19 -4 -29 -4c-37 0 -63 18 -75 48c-35 -32 -81 -51 -129 -51c-90 0 -129 63 -129 123c0 93 96 146 217 146c17 0 26 -1 34 -3v55c0 38 -27 83 -91 83c-35 0 -77 -15 -98 -37l-40 40c35 36 87 57 144 57c105 0 158 -68 158 -143v-228
c0 -24 16 -37 38 -37zM197 53c33 0 73 14 100 43v113c-7 1 -16 2 -30 2c-84 0 -148 -33 -148 -88c0 -28 18 -70 78 -70zM216 582c43 0 77 16 103 42l38 -38c-36 -37 -83 -59 -141 -59c-57 0 -104 23 -140 60l38 38c25 -26 59 -43 102 -43z" />
    <glyph glyph-name="Aogonek" unicode="&#x104;" horiz-adv-x="749" 
d="M663 -39c0 -36 23 -58 55 -58c16 0 30 6 40 16l27 -27c-16 -17 -39 -26 -67 -26c-55 0 -93 37 -93 95c0 14 2 27 9 39l-88 202h-343l-88 -202h-87l311 700h72l310 -700h-48c-7 -10 -10 -25 -10 -39zM375 604l-144 -334h287z" />
    <glyph glyph-name="aogonek" unicode="&#x105;" horiz-adv-x="453" 
d="M380 -39c0 -36 23 -58 55 -58c17 0 31 6 40 16l28 -27c-16 -17 -40 -26 -67 -26c-56 0 -94 37 -94 95c0 14 3 27 10 39c-23 6 -39 22 -48 44c-35 -32 -81 -51 -129 -51c-90 0 -129 63 -129 123c0 93 96 146 217 146c17 0 26 -1 34 -3v55c0 38 -27 83 -91 83
c-35 0 -77 -15 -98 -37l-40 40c35 36 87 57 144 57c105 0 158 -68 158 -143v-228c0 -24 16 -37 38 -37v-49c-5 -2 -13 -3 -21 -4c-5 -10 -7 -23 -7 -35zM197 53c33 0 73 14 100 43v113c-7 1 -16 2 -30 2c-84 0 -148 -33 -148 -88c0 -28 18 -70 78 -70z" />
    <glyph glyph-name="Cacute" unicode="&#x106;" horiz-adv-x="699" 
d="M128 350c0 -172 113 -289 278 -289c85 0 155 29 204 80l49 -47c-62 -64 -151 -101 -256 -101c-210 0 -353 145 -353 357s143 357 353 357c105 0 194 -37 256 -101l-49 -48c-48 51 -119 81 -204 81c-165 0 -278 -117 -278 -289zM320 780l125 125l38 -38l-125 -125z" />
    <glyph glyph-name="cacute" unicode="&#x107;" horiz-adv-x="478" 
d="M121 225c0 -99 64 -167 159 -167c49 0 90 17 117 47l45 -45c-40 -43 -98 -67 -166 -67c-138 0 -231 94 -231 232s93 232 231 232c68 0 126 -25 166 -68l-45 -45c-27 30 -68 48 -117 48c-95 0 -159 -68 -159 -167zM205 550l125 125l38 -38l-125 -125z" />
    <glyph glyph-name="Ccircumflex" unicode="&#x108;" horiz-adv-x="699" 
d="M128 350c0 -172 113 -289 278 -289c85 0 155 29 204 80l49 -47c-62 -64 -151 -101 -256 -101c-210 0 -353 145 -353 357s143 357 353 357c105 0 194 -37 256 -101l-49 -48c-48 51 -119 81 -204 81c-165 0 -278 -117 -278 -289zM382 900l125 -125l-38 -38l-87 87l-87 -87
l-38 38z" />
    <glyph glyph-name="ccircumflex" unicode="&#x109;" horiz-adv-x="478" 
d="M121 225c0 -99 64 -167 159 -167c49 0 90 17 117 47l45 -45c-40 -43 -98 -67 -166 -67c-138 0 -231 94 -231 232s93 232 231 232c68 0 126 -25 166 -68l-45 -45c-27 30 -68 48 -117 48c-95 0 -159 -68 -159 -167zM266 675l125 -125l-38 -38l-87 87l-88 -87l-38 38z" />
    <glyph glyph-name="Cdotaccent" unicode="&#x10a;" horiz-adv-x="699" 
d="M128 350c0 -172 113 -289 278 -289c85 0 155 29 204 80l49 -47c-62 -64 -151 -101 -256 -101c-210 0 -353 145 -353 357s143 357 353 357c105 0 194 -37 256 -101l-49 -48c-48 51 -119 81 -204 81c-165 0 -278 -117 -278 -289zM333 810c0 27 22 49 49 49
c28 0 49 -22 49 -49c0 -28 -21 -49 -49 -49c-27 0 -49 21 -49 49z" />
    <glyph glyph-name="cdotaccent" unicode="&#x10b;" horiz-adv-x="478" 
d="M121 225c0 -99 64 -167 159 -167c49 0 90 17 117 47l45 -45c-40 -43 -98 -67 -166 -67c-138 0 -231 94 -231 232s93 232 231 232c68 0 126 -25 166 -68l-45 -45c-27 30 -68 48 -117 48c-95 0 -159 -68 -159 -167zM215 585c0 27 22 49 49 49c28 0 49 -22 49 -49
s-21 -49 -49 -49c-27 0 -49 22 -49 49z" />
    <glyph glyph-name="Ccaron" unicode="&#x10c;" horiz-adv-x="699" 
d="M128 350c0 -172 113 -289 278 -289c85 0 155 29 204 80l49 -47c-62 -64 -151 -101 -256 -101c-210 0 -353 145 -353 357s143 357 353 357c105 0 194 -37 256 -101l-49 -48c-48 51 -119 81 -204 81c-165 0 -278 -117 -278 -289zM380 737l-125 125l38 38l87 -87l87 87
l38 -38z" />
    <glyph glyph-name="ccaron" unicode="&#x10d;" horiz-adv-x="478" 
d="M121 225c0 -99 64 -167 159 -167c49 0 90 17 117 47l45 -45c-40 -43 -98 -67 -166 -67c-138 0 -231 94 -231 232s93 232 231 232c68 0 126 -25 166 -68l-45 -45c-27 30 -68 48 -117 48c-95 0 -159 -68 -159 -167zM265 512l-126 125l38 38l88 -87l87 87l38 -38z" />
    <glyph glyph-name="Dcaron" unicode="&#x10e;" horiz-adv-x="692" 
d="M76 0v700h214c209 0 352 -138 352 -350s-143 -350 -352 -350h-214zM564 350c0 172 -111 284 -274 284h-136v-568h136c163 0 274 112 274 284zM336 737l-125 125l38 38l87 -87l87 87l38 -38z" />
    <glyph glyph-name="dcaron" unicode="&#x10f;" horiz-adv-x="680" 
d="M468 0h-73v38c-36 -29 -81 -45 -133 -45c-129 0 -217 94 -217 232s92 232 228 232c46 0 88 -12 122 -33v326h73v-750zM121 225c0 -99 64 -167 159 -167c47 0 88 16 115 44v247c-27 27 -67 43 -115 43c-95 0 -159 -68 -159 -167zM582 561l-26 26c23 23 42 48 47 73
c-24 4 -42 24 -42 48c0 28 22 49 50 49c23 0 48 -15 48 -57c0 -53 -40 -103 -77 -139z" />
    <glyph glyph-name="Dcroat" unicode="&#x110;" horiz-adv-x="708" 
d="M46 321v58h55v321h204c210 0 352 -138 352 -350s-142 -350 -352 -350h-204v321h-55zM579 350c0 172 -111 284 -274 284h-126v-255h161v-58h-161v-255h126c163 0 274 112 274 284z" />
    <glyph glyph-name="dcroat" unicode="&#x111;" horiz-adv-x="555" 
d="M468 0h-73v37c-36 -28 -81 -44 -133 -44c-129 0 -217 94 -217 232s92 232 228 232c47 0 89 -12 122 -35v157h-133v58h133v113h73v-113h57v-58h-57v-579zM121 225c0 -99 64 -167 159 -167c47 0 87 16 115 45v246c-28 27 -68 43 -115 43c-95 0 -159 -68 -159 -167z" />
    <glyph glyph-name="Emacron" unicode="&#x112;" horiz-adv-x="498" 
d="M151 637v-253h262v-63h-262v-258h299v-63h-374v700h369v-63h-294zM140 768v46h244v-46h-244z" />
    <glyph glyph-name="emacron" unicode="&#x113;" horiz-adv-x="508" 
d="M465 206h-342c6 -89 66 -148 159 -148c51 0 92 17 120 47l44 -45c-41 -43 -98 -67 -168 -67c-139 0 -233 93 -233 234c0 136 87 230 215 230c130 0 205 -97 205 -251zM262 393c-76 0 -131 -52 -139 -135h269c-9 82 -54 135 -130 135zM138 543v47h244v-47h-244z" />
    <glyph glyph-name="Ebreve" unicode="&#x114;" horiz-adv-x="498" 
d="M151 637v-253h262v-63h-262v-258h299v-63h-374v700h369v-63h-294zM262 807c43 0 77 16 102 42l38 -38c-36 -37 -83 -59 -140 -59c-58 0 -105 23 -141 59l38 38c26 -26 60 -42 103 -42z" />
    <glyph glyph-name="ebreve" unicode="&#x115;" horiz-adv-x="508" 
d="M465 206h-342c6 -89 66 -148 159 -148c51 0 92 17 120 47l44 -45c-41 -43 -98 -67 -168 -67c-139 0 -233 93 -233 234c0 136 87 230 215 230c130 0 205 -97 205 -251zM262 393c-76 0 -131 -52 -139 -135h269c-9 82 -54 135 -130 135zM260 582c43 0 77 16 102 42l38 -38
c-36 -37 -82 -59 -140 -59s-104 23 -140 60l38 38c25 -26 59 -43 102 -43z" />
    <glyph glyph-name="Edotaccent" unicode="&#x116;" horiz-adv-x="498" 
d="M151 637v-253h262v-63h-262v-258h299v-63h-374v700h369v-63h-294zM213 810c0 27 21 49 49 49c27 0 49 -22 49 -49c0 -28 -22 -49 -49 -49c-28 0 -49 21 -49 49z" />
    <glyph glyph-name="edotaccent" unicode="&#x117;" horiz-adv-x="508" 
d="M465 206h-342c6 -89 66 -148 159 -148c51 0 92 17 120 47l44 -45c-41 -43 -98 -67 -168 -67c-139 0 -233 93 -233 234c0 136 87 230 215 230c130 0 205 -97 205 -251zM262 393c-76 0 -131 -52 -139 -135h269c-9 82 -54 135 -130 135zM212 585c0 27 22 49 49 49
s49 -22 49 -49s-22 -49 -49 -49s-49 22 -49 49z" />
    <glyph glyph-name="Eogonek" unicode="&#x118;" horiz-adv-x="498" 
d="M339 -39c0 -36 22 -58 55 -58c16 0 30 6 40 16l27 -27c-16 -17 -40 -26 -67 -26c-55 0 -94 37 -94 95c0 14 3 27 10 39h-234v700h369v-63h-294v-253h262v-63h-262v-258h299v-63h-101c-7 -10 -10 -25 -10 -39z" />
    <glyph glyph-name="eogonek" unicode="&#x119;" horiz-adv-x="508" 
d="M329 -39c0 -36 22 -58 54 -58c17 0 31 6 41 16l27 -27c-16 -17 -40 -26 -67 -26c-55 0 -94 37 -94 95c0 12 2 23 6 33c-6 -1 -12 -1 -18 -1c-139 0 -233 93 -233 234c0 136 87 230 215 230c130 0 205 -97 205 -251h-342c6 -89 66 -148 159 -148c51 0 92 17 120 47l44 -45
c-29 -30 -65 -50 -107 -60c-7 -10 -10 -25 -10 -39zM262 393c-76 0 -131 -52 -139 -135h269c-9 82 -54 135 -130 135z" />
    <glyph glyph-name="Ecaron" unicode="&#x11a;" horiz-adv-x="498" 
d="M151 637v-253h262v-63h-262v-258h299v-63h-374v700h369v-63h-294zM262 737l-125 125l38 38l87 -87l87 87l38 -38z" />
    <glyph glyph-name="ecaron" unicode="&#x11b;" horiz-adv-x="508" 
d="M465 206h-342c6 -89 66 -148 159 -148c51 0 92 17 120 47l44 -45c-41 -43 -98 -67 -168 -67c-139 0 -233 93 -233 234c0 136 87 230 215 230c130 0 205 -97 205 -251zM262 393c-76 0 -131 -52 -139 -135h269c-9 82 -54 135 -130 135zM260 512l-125 125l38 38l87 -87
l87 87l38 -38z" />
    <glyph glyph-name="Gcircumflex" unicode="&#x11c;" horiz-adv-x="735" 
d="M403 306v63h256v-276c-62 -64 -151 -100 -256 -100c-210 0 -353 145 -353 357s143 357 353 357c105 0 194 -37 256 -101l-49 -48c-48 51 -119 81 -204 81c-165 0 -278 -117 -278 -289s113 -289 278 -289c71 0 132 21 178 59v186h-181zM402 900l125 -125l-38 -38l-87 87
l-88 -87l-38 38z" />
    <glyph glyph-name="gcircumflex" unicode="&#x11d;" horiz-adv-x="507" 
d="M23 -118c0 59 41 102 103 123c-39 17 -58 43 -58 75c0 33 21 60 63 77c-51 25 -78 76 -78 136c0 100 72 164 177 164c50 0 92 -15 122 -40c21 25 48 40 77 40c9 0 17 0 25 -2v-59c-7 2 -15 3 -21 3c-18 0 -33 -9 -46 -23c13 -23 20 -51 20 -81c0 -96 -72 -162 -179 -162
c-57 0 -90 -22 -90 -51s41 -50 107 -50c128 0 212 -55 212 -138c0 -90 -99 -151 -230 -151c-125 0 -204 57 -204 139zM98 -118c0 -49 48 -82 129 -82c86 0 154 38 154 93c0 49 -55 81 -136 81c-90 0 -147 -38 -147 -92zM126 295c0 -61 43 -104 105 -104s105 43 105 104
s-43 104 -105 104s-105 -43 -105 -104zM229 675l125 -125l-38 -38l-87 87l-87 -87l-38 38z" />
    <glyph glyph-name="Gbreve" unicode="&#x11e;" horiz-adv-x="735" 
d="M403 306v63h256v-276c-62 -64 -151 -100 -256 -100c-210 0 -353 145 -353 357s143 357 353 357c105 0 194 -37 256 -101l-49 -48c-48 51 -119 81 -204 81c-165 0 -278 -117 -278 -289s113 -289 278 -289c71 0 132 21 178 59v186h-181zM401 807c43 0 77 16 102 42l38 -38
c-35 -37 -82 -59 -140 -59s-104 23 -140 59l38 38c25 -26 59 -42 102 -42z" />
    <glyph glyph-name="gbreve" unicode="&#x11f;" horiz-adv-x="507" 
d="M23 -118c0 59 41 102 103 123c-39 17 -58 43 -58 75c0 33 21 60 63 77c-51 25 -78 76 -78 136c0 100 72 164 177 164c50 0 92 -15 122 -40c21 25 48 40 77 40c9 0 17 0 25 -2v-59c-7 2 -15 3 -21 3c-18 0 -33 -9 -46 -23c13 -23 20 -51 20 -81c0 -96 -72 -162 -179 -162
c-57 0 -90 -22 -90 -51s41 -50 107 -50c128 0 212 -55 212 -138c0 -90 -99 -151 -230 -151c-125 0 -204 57 -204 139zM98 -118c0 -49 48 -82 129 -82c86 0 154 38 154 93c0 49 -55 81 -136 81c-90 0 -147 -38 -147 -92zM126 295c0 -61 43 -104 105 -104s105 43 105 104
s-43 104 -105 104s-105 -43 -105 -104zM230 582c43 0 77 16 103 42l38 -38c-36 -37 -83 -59 -141 -59c-57 0 -104 23 -140 60l38 38c25 -26 59 -43 102 -43z" />
    <glyph glyph-name="Gdotaccent" unicode="&#x120;" horiz-adv-x="735" 
d="M403 306v63h256v-276c-62 -64 -151 -100 -256 -100c-210 0 -353 145 -353 357s143 357 353 357c105 0 194 -37 256 -101l-49 -48c-48 51 -119 81 -204 81c-165 0 -278 -117 -278 -289s113 -289 278 -289c71 0 132 21 178 59v186h-181zM352 810c0 27 22 49 49 49
c28 0 49 -22 49 -49c0 -28 -21 -49 -49 -49c-27 0 -49 21 -49 49z" />
    <glyph glyph-name="gdotaccent" unicode="&#x121;" horiz-adv-x="507" 
d="M23 -118c0 59 41 102 103 123c-39 17 -58 43 -58 75c0 33 21 60 63 77c-51 25 -78 76 -78 136c0 100 72 164 177 164c50 0 92 -15 122 -40c21 25 48 40 77 40c9 0 17 0 25 -2v-59c-7 2 -15 3 -21 3c-18 0 -33 -9 -46 -23c13 -23 20 -51 20 -81c0 -96 -72 -162 -179 -162
c-57 0 -90 -22 -90 -51s41 -50 107 -50c128 0 212 -55 212 -138c0 -90 -99 -151 -230 -151c-125 0 -204 57 -204 139zM98 -118c0 -49 48 -82 129 -82c86 0 154 38 154 93c0 49 -55 81 -136 81c-90 0 -147 -38 -147 -92zM126 295c0 -61 43 -104 105 -104s105 43 105 104
s-43 104 -105 104s-105 -43 -105 -104zM179 585c0 27 21 49 49 49c27 0 49 -22 49 -49s-22 -49 -49 -49c-28 0 -49 22 -49 49z" />
    <glyph glyph-name="Gcommaaccent" unicode="&#x122;" horiz-adv-x="735" 
d="M403 306v63h256v-276c-62 -64 -151 -100 -256 -100c-210 0 -353 145 -353 357s143 357 353 357c105 0 194 -37 256 -101l-49 -48c-48 51 -119 81 -204 81c-165 0 -278 -117 -278 -289s113 -289 278 -289c71 0 132 21 178 59v186h-181zM370 -217l-22 22c20 20 37 42 41 65
c-21 2 -36 20 -36 40c0 24 18 42 42 42c21 0 42 -13 42 -49c0 -46 -35 -89 -67 -120z" />
    <glyph glyph-name="gcommaaccent" unicode="&#x123;" horiz-adv-x="507" 
d="M23 -118c0 59 41 102 103 123c-39 17 -58 43 -58 75c0 33 21 60 63 77c-51 25 -78 76 -78 136c0 100 72 164 177 164c50 0 92 -15 122 -40c21 25 48 40 77 40c9 0 17 0 25 -2v-59c-7 2 -15 3 -21 3c-18 0 -33 -9 -46 -23c13 -23 20 -51 20 -81c0 -96 -72 -162 -179 -162
c-57 0 -90 -22 -90 -51s41 -50 107 -50c128 0 212 -55 212 -138c0 -90 -99 -151 -230 -151c-125 0 -204 57 -204 139zM98 -118c0 -49 48 -82 129 -82c86 0 154 38 154 93c0 49 -55 81 -136 81c-90 0 -147 -38 -147 -92zM126 295c0 -61 43 -104 105 -104s105 43 105 104
s-43 104 -105 104s-105 -43 -105 -104zM257 683l22 -22c-20 -21 -37 -43 -41 -65c21 -3 36 -20 36 -41c0 -23 -18 -42 -42 -42c-21 0 -42 14 -42 49c0 47 36 90 67 121z" />
    <glyph glyph-name="Hcircumflex" unicode="&#x124;" horiz-adv-x="690" 
d="M151 700v-316h388v316h75v-700h-75v321h-388v-321h-75v700h75zM345 900l125 -125l-38 -38l-87 87l-87 -87l-38 38z" />
    <glyph glyph-name="hcircumflex" unicode="&#x125;" horiz-adv-x="523" 
d="M73 750h73v-338c35 29 80 45 132 45c103 0 169 -74 169 -184v-273h-72v273c0 70 -46 119 -113 119c-48 0 -88 -17 -116 -45v-347h-73v750zM273 910l126 -125l-38 -38l-88 87l-87 -87l-38 38z" />
    <glyph glyph-name="Hbar" unicode="&#x126;" horiz-adv-x="700" 
d="M101 0v510h-61v59h61v131h75v-131h343v131h75v-131h66v-59h-66v-510h-75v321h-343v-321h-75zM176 384h343v126h-343v-126z" />
    <glyph glyph-name="hbar" unicode="&#x127;" horiz-adv-x="538" 
d="M30 592v58h58v100h73v-100h173v-58h-173v-179c35 28 81 44 132 44c102 0 169 -74 169 -184v-273h-73v273c0 70 -46 119 -113 119c-48 0 -88 -17 -115 -45v-347h-73v592h-58z" />
    <glyph glyph-name="Itilde" unicode="&#x128;" horiz-adv-x="222" 
d="M73 0v700h76v-700h-76zM16 764h-43c0 52 36 87 84 87c59 0 65 -48 108 -48c24 0 42 18 42 44h43c0 -52 -35 -87 -85 -87c-60 0 -64 48 -107 48c-24 0 -42 -17 -42 -44z" />
    <glyph glyph-name="itilde" unicode="&#x129;" 
d="M15 539h-43c0 52 35 88 84 88c59 0 64 -49 107 -49c25 0 43 18 43 44h42c0 -52 -35 -87 -85 -87c-60 0 -63 48 -106 48c-25 0 -42 -17 -42 -44zM73 0v450h73v-450h-73z" />
    <glyph glyph-name="Imacron" unicode="&#x12a;" horiz-adv-x="222" 
d="M73 0v700h76v-700h-76zM-11 768v46h244v-46h-244z" />
    <glyph glyph-name="imacron" unicode="&#x12b;" 
d="M-12 543v47h244v-47h-244zM73 0v450h73v-450h-73z" />
    <glyph glyph-name="Ibreve" unicode="&#x12c;" horiz-adv-x="222" 
d="M73 0v700h76v-700h-76zM111 807c43 0 77 16 103 42l38 -38c-36 -37 -83 -59 -141 -59c-57 0 -104 23 -140 59l38 38c25 -26 59 -42 102 -42z" />
    <glyph glyph-name="ibreve" unicode="&#x12d;" 
d="M110 582c43 0 77 16 102 42l38 -38c-36 -37 -82 -59 -140 -59s-105 23 -141 60l39 38c25 -26 59 -43 102 -43zM73 0v450h73v-450h-73z" />
    <glyph glyph-name="Iogonek" unicode="&#x12e;" horiz-adv-x="222" 
d="M102 -39c0 -36 23 -58 55 -58c16 0 31 6 40 16l28 -27c-17 -17 -40 -26 -68 -26c-55 0 -93 37 -93 95c0 14 2 27 9 39v700h76v-700h-37c-6 -10 -10 -25 -10 -39z" />
    <glyph glyph-name="iogonek" unicode="&#x12f;" 
d="M73 0v450h73v-450h-73zM61 585c0 27 21 49 49 49c27 0 49 -22 49 -49s-22 -49 -49 -49c-28 0 -49 22 -49 49zM102 -39c0 -36 23 -58 55 -58c16 0 31 6 40 16l28 -27c-17 -17 -40 -26 -68 -26c-55 0 -93 37 -93 95c0 14 2 27 9 39h39c-6 -10 -10 -25 -10 -39z" />
    <glyph glyph-name="Idotaccent" unicode="&#x130;" horiz-adv-x="222" 
d="M73 0v700h76v-700h-76zM62 810c0 27 21 49 49 49c27 0 49 -22 49 -49c0 -28 -22 -49 -49 -49c-28 0 -49 21 -49 49z" />
    <glyph glyph-name="dotlessi" unicode="&#x131;" 
d="M73 0v450h73v-450h-73z" />
    <glyph glyph-name="IJ" unicode="&#x132;" horiz-adv-x="503" 
d="M76 250v450h75v-450h-75zM354 190v510h76v-510c0 -118 -81 -197 -197 -197c-58 0 -108 21 -142 55l48 49c22 -23 53 -36 91 -36c74 0 124 52 124 129z" />
    <glyph glyph-name="ij" unicode="&#x133;" horiz-adv-x="439" 
d="M73 0v450h73v-450h-73zM61 585c0 27 21 49 49 49c27 0 49 -22 49 -49s-22 -49 -49 -49c-28 0 -49 22 -49 49zM280 585c0 27 22 49 49 49c28 0 49 -22 49 -49s-21 -49 -49 -49c-27 0 -49 22 -49 49zM237 -250v49c33 0 56 17 56 53v598h73v-600c0 -65 -38 -104 -96 -104
c-10 0 -26 1 -33 4z" />
    <glyph glyph-name="Jcircumflex" unicode="&#x134;" horiz-adv-x="453" 
d="M304 190v510h75v-510c0 -118 -80 -197 -196 -197c-58 0 -109 21 -143 55l49 49c22 -23 53 -36 91 -36c73 0 124 52 124 129zM341 900l126 -125l-38 -38l-88 87l-87 -87l-38 38z" />
    <glyph glyph-name="jcircumflex" unicode="&#x135;" 
d="M18 -250v49c33 0 55 17 55 53v598h73v-600c0 -65 -38 -104 -95 -104c-10 0 -26 1 -33 4zM110 675l125 -125l-38 -38l-87 87l-87 -87l-38 38z" />
    <glyph glyph-name="Kcommaaccent" unicode="&#x136;" horiz-adv-x="596" 
d="M73 0v700h76v-700h-76zM468 0l-309 359l289 341h95l-289 -341l311 -359h-97zM275 -217l-22 22c20 20 37 42 41 65c-20 2 -36 20 -36 40c0 24 18 42 42 42c21 0 42 -13 42 -49c0 -46 -35 -89 -67 -120z" />
    <glyph glyph-name="kcommaaccent" unicode="&#x137;" horiz-adv-x="466" 
d="M146 0h-73v750h73v-504l180 204h87l-188 -211l210 -239h-87l-202 232v-232zM210 -217l-22 22c20 20 37 42 41 65c-20 2 -36 20 -36 40c0 24 19 42 43 42c20 0 41 -13 41 -49c0 -46 -35 -89 -67 -120z" />
    <glyph glyph-name="Lacute" unicode="&#x139;" horiz-adv-x="465" 
d="M151 700v-637h274v-63h-349v700h75zM151 775l125 125l38 -38l-125 -125z" />
    <glyph glyph-name="lacute" unicode="&#x13a;" horiz-adv-x="247" 
d="M204 49v-49c-7 -3 -25 -4 -35 -4c-58 0 -96 39 -96 104v650h73v-648c0 -36 24 -53 58 -53zM42 810l125 125l38 -38l-125 -125z" />
    <glyph glyph-name="Lcommaaccent" unicode="&#x13b;" horiz-adv-x="465" 
d="M151 700v-637h274v-63h-349v700h75zM226 -217l-23 22c20 20 37 42 41 65c-20 2 -35 20 -35 40c0 24 18 42 42 42c20 0 41 -13 41 -49c0 -46 -35 -89 -66 -120z" />
    <glyph glyph-name="lcommaaccent" unicode="&#x13c;" horiz-adv-x="247" 
d="M204 49v-49c-7 -3 -25 -4 -35 -4c-58 0 -96 39 -96 104v650h73v-648c0 -36 24 -53 58 -53zM111 -217l-22 22c20 20 37 42 41 65c-21 2 -36 20 -36 40c0 24 18 42 42 42c21 0 42 -13 42 -49c0 -46 -35 -89 -67 -120z" />
    <glyph glyph-name="Lcaron" unicode="&#x13d;" horiz-adv-x="465" 
d="M151 700v-637h274v-63h-349v700h75zM114 737l-125 125l38 38l87 -87l87 87l38 -38z" />
    <glyph glyph-name="lcaron" unicode="&#x13e;" horiz-adv-x="371" 
d="M204 49v-49c-7 -3 -25 -4 -35 -4c-58 0 -96 39 -96 104v650h73v-648c0 -36 24 -53 58 -53zM273 561l-26 26c23 23 41 48 47 73c-24 4 -42 24 -42 48c0 28 22 49 50 49c23 0 48 -15 48 -57c0 -53 -40 -103 -77 -139z" />
    <glyph glyph-name="Ldot" unicode="&#x13f;" horiz-adv-x="465" 
d="M151 700v-637h274v-63h-349v700h75zM301 325c0 27 22 49 49 49s49 -22 49 -49s-22 -49 -49 -49s-49 22 -49 49z" />
    <glyph glyph-name="ldot" unicode="&#x140;" horiz-adv-x="377" 
d="M204 49v-49c-7 -3 -25 -4 -35 -4c-58 0 -96 39 -96 104v650h73v-648c0 -36 24 -53 58 -53zM250 325c0 27 22 49 49 49c28 0 49 -22 49 -49s-21 -49 -49 -49c-27 0 -49 22 -49 49z" />
    <glyph glyph-name="Lslash" unicode="&#x141;" horiz-adv-x="494" 
d="M10 234l94 94v372h76v-314l89 90l38 -38l-127 -128v-247h273v-63h-349v252l-56 -56z" />
    <glyph glyph-name="lslash" unicode="&#x142;" horiz-adv-x="290" 
d="M231 49v-49c-7 -3 -26 -4 -36 -4c-57 0 -95 39 -95 104v184l-54 -54l-38 38l92 92v390h73v-333l61 61l38 -38l-99 -99v-239c0 -36 23 -53 58 -53z" />
    <glyph glyph-name="Nacute" unicode="&#x143;" horiz-adv-x="713" 
d="M76 700h51l435 -558v558h75v-700h-51l-435 558v-558h-75v700zM295 775l125 125l38 -38l-125 -125z" />
    <glyph glyph-name="nacute" unicode="&#x144;" horiz-adv-x="521" 
d="M73 450h73v-38c35 29 81 45 132 45c103 0 169 -74 169 -184v-273h-72v273c0 70 -46 119 -113 119c-48 0 -88 -17 -116 -45v-347h-73v450zM199 550l125 125l38 -38l-125 -125z" />
    <glyph glyph-name="Ncommaaccent" unicode="&#x145;" horiz-adv-x="713" 
d="M76 700h51l435 -558v558h75v-700h-51l-435 558v-558h-75v700zM334 -217l-22 22c20 20 37 42 41 65c-21 2 -36 20 -36 40c0 24 18 42 42 42c21 0 42 -13 42 -49c0 -46 -35 -89 -67 -120z" />
    <glyph glyph-name="ncommaaccent" unicode="&#x146;" horiz-adv-x="521" 
d="M73 450h73v-38c35 29 81 45 132 45c103 0 169 -74 169 -184v-273h-72v273c0 70 -46 119 -113 119c-48 0 -88 -17 -116 -45v-347h-73v450zM235 -217l-22 22c20 20 37 42 41 65c-20 2 -36 20 -36 40c0 24 19 42 43 42c20 0 41 -13 41 -49c0 -46 -35 -89 -67 -120z" />
    <glyph glyph-name="Ncaron" unicode="&#x147;" horiz-adv-x="713" 
d="M76 700h51l435 -558v558h75v-700h-51l-435 558v-558h-75v700zM356 737l-125 125l38 38l87 -87l87 87l38 -38z" />
    <glyph glyph-name="ncaron" unicode="&#x148;" horiz-adv-x="521" 
d="M73 450h73v-38c35 29 81 45 132 45c103 0 169 -74 169 -184v-273h-72v273c0 70 -46 119 -113 119c-48 0 -88 -17 -116 -45v-347h-73v450zM260 512l-125 125l38 38l87 -87l87 87l38 -38z" />
    <glyph glyph-name="Eng" unicode="&#x14a;" horiz-adv-x="713" 
d="M506 -250v49c33 0 56 17 56 53v175l-411 531v-558h-75v700h51l435 -558v558h75v-850c0 -65 -40 -104 -98 -104c-10 0 -26 1 -33 4z" />
    <glyph glyph-name="eng" unicode="&#x14b;" horiz-adv-x="521" 
d="M319 -250v49c33 0 56 17 56 53v421c0 70 -46 119 -113 119c-48 0 -88 -17 -116 -45v-347h-73v450h73v-38c35 29 81 45 132 45c103 0 169 -74 169 -184v-423c0 -65 -38 -104 -95 -104c-10 0 -26 1 -33 4z" />
    <glyph glyph-name="Omacron" unicode="&#x14c;" horiz-adv-x="805" 
d="M50 350c0 212 143 357 353 357c209 0 352 -145 352 -357s-143 -357 -352 -357c-210 0 -353 145 -353 357zM128 350c0 -172 112 -289 275 -289s274 117 274 289s-111 289 -274 289s-275 -117 -275 -289zM281 768v46h244v-46h-244z" />
    <glyph glyph-name="omacron" unicode="&#x14d;" horiz-adv-x="555" 
d="M45 225c0 138 94 232 233 232c138 0 232 -94 232 -232s-94 -232 -232 -232c-139 0 -233 94 -233 232zM121 225c0 -99 63 -167 157 -167c93 0 157 68 157 167s-64 167 -157 167c-94 0 -157 -68 -157 -167zM156 543v47h244v-47h-244z" />
    <glyph glyph-name="Obreve" unicode="&#x14e;" horiz-adv-x="805" 
d="M50 350c0 212 143 357 353 357c209 0 352 -145 352 -357s-143 -357 -352 -357c-210 0 -353 145 -353 357zM128 350c0 -172 112 -289 275 -289s274 117 274 289s-111 289 -274 289s-275 -117 -275 -289zM403 807c43 0 77 16 102 42l38 -38c-36 -37 -83 -59 -140 -59
c-58 0 -105 23 -141 59l38 38c25 -26 59 -42 103 -42z" />
    <glyph glyph-name="obreve" unicode="&#x14f;" horiz-adv-x="555" 
d="M45 225c0 138 94 232 233 232c138 0 232 -94 232 -232s-94 -232 -232 -232c-139 0 -233 94 -233 232zM121 225c0 -99 63 -167 157 -167c93 0 157 68 157 167s-64 167 -157 167c-94 0 -157 -68 -157 -167zM278 582c43 0 77 16 102 42l38 -38c-36 -37 -83 -59 -140 -59
c-58 0 -105 23 -141 60l38 38c25 -26 59 -43 103 -43z" />
    <glyph glyph-name="Ohungarumlaut" unicode="&#x150;" horiz-adv-x="805" 
d="M50 350c0 212 143 357 353 357c209 0 352 -145 352 -357s-143 -357 -352 -357c-210 0 -353 145 -353 357zM128 350c0 -172 112 -289 275 -289s274 117 274 289s-111 289 -274 289s-275 -117 -275 -289zM266 775l126 125l38 -38l-126 -125zM416 775l125 125l38 -38
l-125 -125z" />
    <glyph glyph-name="ohungarumlaut" unicode="&#x151;" horiz-adv-x="555" 
d="M45 225c0 138 94 232 233 232c138 0 232 -94 232 -232s-94 -232 -232 -232c-139 0 -233 94 -233 232zM121 225c0 -99 63 -167 157 -167c93 0 157 68 157 167s-64 167 -157 167c-94 0 -157 -68 -157 -167zM141 550l126 125l38 -38l-126 -125zM291 550l125 125l38 -38
l-125 -125z" />
    <glyph glyph-name="OE" unicode="&#x152;" horiz-adv-x="875" 
d="M554 637v-253h238v-63h-238v-258h276v-63h-349c-25 -4 -51 -7 -78 -7c-210 0 -353 145 -353 357s143 357 353 357c26 0 53 -3 78 -7h344v-63h-271zM403 61c27 0 52 3 75 11v556c-23 8 -49 11 -75 11c-163 0 -275 -117 -275 -289s112 -289 275 -289z" />
    <glyph glyph-name="oe" unicode="&#x153;" horiz-adv-x="841" 
d="M798 206h-342c6 -89 66 -148 160 -148c50 0 91 17 119 47l45 -45c-41 -43 -99 -67 -169 -67s-127 23 -167 65c-40 -41 -98 -65 -166 -65c-139 0 -233 94 -233 232s94 232 233 232c67 0 123 -23 163 -63c37 40 89 63 152 63c130 0 205 -97 205 -251zM278 58
c53 0 97 23 124 60c-15 31 -23 68 -23 109c0 40 7 76 21 107c-27 36 -70 58 -122 58c-94 0 -157 -68 -157 -167s63 -167 157 -167zM595 393c-75 0 -130 -52 -139 -135h269c-8 82 -54 135 -130 135z" />
    <glyph glyph-name="Racute" unicode="&#x154;" horiz-adv-x="534" 
d="M418 0l-168 309h-96v-309h-78v700h196c122 0 204 -77 204 -196c0 -101 -59 -170 -150 -190l178 -314h-86zM398 504c0 78 -50 130 -126 130h-118v-260h118c76 0 126 52 126 130zM200 775l125 125l38 -38l-125 -125z" />
    <glyph glyph-name="racute" unicode="&#x155;" horiz-adv-x="345" 
d="M268 456c10 0 19 -1 29 -2v-64c-11 2 -22 3 -34 3c-49 0 -90 -24 -117 -62v-331h-73v450h73v-55c33 38 75 61 122 61zM126 550l125 125l38 -38l-125 -125z" />
    <glyph glyph-name="Rcommaaccent" unicode="&#x156;" horiz-adv-x="534" 
d="M418 0l-168 309h-96v-309h-78v700h196c122 0 204 -77 204 -196c0 -101 -59 -170 -150 -190l178 -314h-86zM398 504c0 78 -50 130 -126 130h-118v-260h118c76 0 126 52 126 130zM244 -217l-22 22c20 20 37 42 41 65c-20 2 -36 20 -36 40c0 24 19 42 43 42
c20 0 41 -13 41 -49c0 -46 -35 -89 -67 -120z" />
    <glyph glyph-name="rcommaaccent" unicode="&#x157;" horiz-adv-x="345" 
d="M268 456c10 0 19 -1 29 -2v-64c-11 2 -22 3 -34 3c-49 0 -90 -24 -117 -62v-331h-73v450h73v-55c33 38 75 61 122 61zM85 -217l-22 22c20 20 37 42 41 65c-21 2 -36 20 -36 40c0 24 18 42 42 42c21 0 42 -13 42 -49c0 -46 -35 -89 -67 -120z" />
    <glyph glyph-name="Rcaron" unicode="&#x158;" horiz-adv-x="534" 
d="M418 0l-168 309h-96v-309h-78v700h196c122 0 204 -77 204 -196c0 -101 -59 -170 -150 -190l178 -314h-86zM398 504c0 78 -50 130 -126 130h-118v-260h118c76 0 126 52 126 130zM262 737l-125 125l38 38l87 -87l87 87l38 -38z" />
    <glyph glyph-name="rcaron" unicode="&#x159;" horiz-adv-x="345" 
d="M268 456c10 0 19 -1 29 -2v-64c-11 2 -22 3 -34 3c-49 0 -90 -24 -117 -62v-331h-73v450h73v-55c33 38 75 61 122 61zM188 512l-126 125l38 38l88 -87l87 87l38 -38z" />
    <glyph glyph-name="Sacute" unicode="&#x15a;" horiz-adv-x="530" 
d="M454 625l-47 -48c-33 36 -94 62 -148 62c-90 0 -124 -66 -124 -118c0 -164 340 -107 340 -328c0 -101 -69 -200 -215 -200c-85 0 -164 33 -219 92l47 47c41 -46 106 -71 165 -71c104 0 144 76 144 130c0 159 -339 99 -339 328c0 96 60 188 194 188c75 0 151 -29 202 -82z
M191 775l125 125l38 -38l-125 -125z" />
    <glyph glyph-name="sacute" unicode="&#x15b;" horiz-adv-x="384" 
d="M324 404l-45 -45c-19 20 -55 36 -87 36c-49 0 -67 -36 -67 -65c0 -95 211 -63 211 -202c0 -67 -48 -135 -149 -135c-58 0 -112 22 -148 60l46 45c23 -27 62 -44 97 -44c60 0 81 43 81 73c0 92 -211 59 -211 202c0 65 42 128 135 128c51 0 103 -18 137 -53zM123 550
l125 125l38 -38l-125 -125z" />
    <glyph glyph-name="Scircumflex" unicode="&#x15c;" horiz-adv-x="530" 
d="M454 625l-47 -48c-33 36 -94 62 -148 62c-90 0 -124 -66 -124 -118c0 -164 340 -107 340 -328c0 -101 -69 -200 -215 -200c-85 0 -164 33 -219 92l47 47c41 -46 106 -71 165 -71c104 0 144 76 144 130c0 159 -339 99 -339 328c0 96 60 188 194 188c75 0 151 -29 202 -82z
M252 900l126 -125l-38 -38l-88 87l-87 -87l-38 38z" />
    <glyph glyph-name="scircumflex" unicode="&#x15d;" horiz-adv-x="384" 
d="M324 404l-45 -45c-19 20 -55 36 -87 36c-49 0 -67 -36 -67 -65c0 -95 211 -63 211 -202c0 -67 -48 -135 -149 -135c-58 0 -112 22 -148 60l46 45c23 -27 62 -44 97 -44c60 0 81 43 81 73c0 92 -211 59 -211 202c0 65 42 128 135 128c51 0 103 -18 137 -53zM184 675
l125 -125l-38 -38l-87 87l-87 -87l-38 38z" />
    <glyph glyph-name="Scedilla" unicode="&#x15e;" horiz-adv-x="530" 
d="M454 625l-47 -48c-33 36 -94 62 -148 62c-90 0 -124 -66 -124 -118c0 -164 340 -107 340 -328c0 -98 -64 -193 -199 -200v-52c40 -7 66 -34 66 -76c0 -48 -34 -80 -83 -80c-25 0 -45 9 -60 25l25 25c9 -9 21 -14 35 -14c28 0 47 17 47 45c0 26 -18 47 -64 47v81
c-78 4 -150 36 -201 91l47 47c41 -46 106 -71 165 -71c104 0 144 76 144 130c0 159 -339 99 -339 328c0 96 60 188 194 188c75 0 151 -29 202 -82z" />
    <glyph glyph-name="scedilla" unicode="&#x15f;" horiz-adv-x="384" 
d="M324 404l-45 -45c-19 20 -55 36 -87 36c-49 0 -67 -36 -67 -65c0 -95 211 -63 211 -202c0 -64 -43 -128 -134 -134v-53c40 -7 66 -34 66 -76c0 -48 -34 -80 -83 -80c-25 0 -45 9 -60 25l25 25c9 -9 21 -14 35 -14c28 0 48 17 48 45c0 26 -19 47 -65 47v81
c-51 4 -97 25 -129 59l46 45c23 -27 62 -44 97 -44c60 0 81 43 81 73c0 92 -211 59 -211 202c0 65 42 128 135 128c51 0 103 -18 137 -53z" />
    <glyph glyph-name="Scaron" unicode="&#x160;" horiz-adv-x="530" 
d="M454 625l-47 -48c-33 36 -94 62 -148 62c-90 0 -124 -66 -124 -118c0 -164 340 -107 340 -328c0 -101 -69 -200 -215 -200c-85 0 -164 33 -219 92l47 47c41 -46 106 -71 165 -71c104 0 144 76 144 130c0 159 -339 99 -339 328c0 96 60 188 194 188c75 0 151 -29 202 -82z
M252 737l-125 125l38 38l87 -87l88 87l38 -38z" />
    <glyph glyph-name="scaron" unicode="&#x161;" horiz-adv-x="384" 
d="M324 404l-45 -45c-19 20 -55 36 -87 36c-49 0 -67 -36 -67 -65c0 -95 211 -63 211 -202c0 -67 -48 -135 -149 -135c-58 0 -112 22 -148 60l46 45c23 -27 62 -44 97 -44c60 0 81 43 81 73c0 92 -211 59 -211 202c0 65 42 128 135 128c51 0 103 -18 137 -53zM184 512
l-125 125l38 38l87 -87l87 87l38 -38z" />
    <glyph glyph-name="Tcommaaccent" unicode="&#x162;" horiz-adv-x="557" 
d="M316 637v-637h-75v637h-201v63h477v-63h-201zM256 -217l-22 22c20 20 37 42 41 65c-20 2 -36 20 -36 40c0 24 19 42 43 42c20 0 41 -13 41 -49c0 -46 -35 -89 -67 -120z" />
    <glyph glyph-name="tcommaaccent" unicode="&#x163;" horiz-adv-x="319" 
d="M30 392v58h58v100h75v-100h121v-58h-121v-253c0 -49 32 -84 80 -84c15 0 30 4 41 10v-62c-16 -7 -35 -10 -53 -10c-88 0 -143 58 -143 146v253h-58zM152 -217l-22 22c20 20 37 42 41 65c-20 2 -36 20 -36 40c0 24 18 42 43 42c20 0 41 -13 41 -49c0 -46 -35 -89 -67 -120
z" />
    <glyph glyph-name="Tcaron" unicode="&#x164;" horiz-adv-x="557" 
d="M316 637v-637h-75v637h-201v63h477v-63h-201zM279 737l-126 125l38 38l88 -87l87 87l38 -38z" />
    <glyph glyph-name="tcaron" unicode="&#x165;" horiz-adv-x="358" 
d="M30 392v58h58v100h75v-100h121v-58h-121v-253c0 -49 32 -84 80 -84c15 0 30 4 41 10v-62c-16 -7 -35 -10 -53 -10c-88 0 -143 58 -143 146v253h-58zM268 535l-26 26c22 23 41 48 46 73c-23 4 -41 24 -41 48c0 28 21 49 49 49c24 0 49 -15 49 -57c0 -53 -41 -103 -77 -139
z" />
    <glyph glyph-name="Tbar" unicode="&#x166;" horiz-adv-x="557" 
d="M96 341v58h145v238h-201v63h477v-63h-201v-238h146v-58h-146v-341h-75v341h-145z" />
    <glyph glyph-name="tbar" unicode="&#x167;" horiz-adv-x="319" 
d="M30 244v56h58v92h-58v58h58v100h75v-100h121v-58h-121v-92h121v-56h-121v-105c0 -49 32 -84 80 -84c15 0 30 4 41 10v-62c-16 -7 -35 -10 -53 -10c-88 0 -143 58 -143 146v105h-58z" />
    <glyph glyph-name="Utilde" unicode="&#x168;" horiz-adv-x="673" 
d="M522 255v445h75v-445c0 -157 -106 -262 -261 -262c-156 0 -260 105 -260 262v445h75v-445c0 -116 75 -194 184 -194c111 0 187 78 187 194zM241 764h-43c0 52 35 87 84 87c59 0 64 -48 107 -48c25 0 43 18 43 44h42c0 -52 -34 -87 -85 -87c-59 0 -63 48 -106 48
c-25 0 -42 -17 -42 -44z" />
    <glyph glyph-name="utilde" unicode="&#x169;" horiz-adv-x="531" 
d="M458 450v-265c0 -115 -78 -192 -193 -192c-114 0 -192 77 -192 192v265h76v-265c0 -75 48 -127 118 -127c71 0 119 52 119 127v265h72zM169 539h-42c0 52 35 88 84 88c59 0 64 -49 107 -49c25 0 42 18 42 44h43c0 -52 -35 -87 -85 -87c-60 0 -63 48 -106 48
c-25 0 -43 -17 -43 -44z" />
    <glyph glyph-name="Umacron" unicode="&#x16a;" horiz-adv-x="673" 
d="M522 255v445h75v-445c0 -157 -106 -262 -261 -262c-156 0 -260 105 -260 262v445h75v-445c0 -116 75 -194 184 -194c111 0 187 78 187 194zM214 768v46h244v-46h-244z" />
    <glyph glyph-name="umacron" unicode="&#x16b;" horiz-adv-x="531" 
d="M458 450v-265c0 -115 -78 -192 -193 -192c-114 0 -192 77 -192 192v265h76v-265c0 -75 48 -127 118 -127c71 0 119 52 119 127v265h72zM143 543v47h244v-47h-244z" />
    <glyph glyph-name="Ubreve" unicode="&#x16c;" horiz-adv-x="673" 
d="M522 255v445h75v-445c0 -157 -106 -262 -261 -262c-156 0 -260 105 -260 262v445h75v-445c0 -116 75 -194 184 -194c111 0 187 78 187 194zM336 807c44 0 78 16 103 42l38 -38c-36 -37 -83 -59 -141 -59c-57 0 -104 23 -140 59l38 38c25 -26 59 -42 102 -42z" />
    <glyph glyph-name="ubreve" unicode="&#x16d;" horiz-adv-x="531" 
d="M458 450v-265c0 -115 -78 -192 -193 -192c-114 0 -192 77 -192 192v265h76v-265c0 -75 48 -127 118 -127c71 0 119 52 119 127v265h72zM265 582c43 0 77 16 103 42l38 -38c-36 -37 -83 -59 -141 -59c-57 0 -104 23 -140 60l38 38c25 -26 59 -43 102 -43z" />
    <glyph glyph-name="Uring" unicode="&#x16e;" horiz-adv-x="673" 
d="M522 255v445h75v-445c0 -157 -106 -262 -261 -262c-156 0 -260 105 -260 262v445h75v-445c0 -116 75 -194 184 -194c111 0 187 78 187 194zM249 820c0 54 36 90 87 90c53 0 88 -36 88 -90c0 -53 -35 -89 -88 -89c-51 0 -87 36 -87 89zM284 820c0 -32 22 -54 52 -54
c32 0 53 22 53 54c0 33 -22 54 -53 54c-30 0 -52 -21 -52 -54z" />
    <glyph glyph-name="uring" unicode="&#x16f;" horiz-adv-x="531" 
d="M458 450v-265c0 -115 -78 -192 -193 -192c-114 0 -192 77 -192 192v265h76v-265c0 -75 48 -127 118 -127c71 0 119 52 119 127v265h72zM177 596c0 53 36 89 88 89c53 0 88 -36 88 -89c0 -54 -35 -90 -88 -90c-52 0 -88 36 -88 90zM213 595c0 -32 21 -54 52 -54
s53 22 53 54c0 33 -23 55 -53 55c-31 0 -52 -22 -52 -55z" />
    <glyph glyph-name="Uhungarumlaut" unicode="&#x170;" horiz-adv-x="673" 
d="M522 255v445h75v-445c0 -157 -106 -262 -261 -262c-156 0 -260 105 -260 262v445h75v-445c0 -116 75 -194 184 -194c111 0 187 78 187 194zM200 775l125 125l38 -38l-125 -125zM349 775l126 125l38 -38l-126 -125z" />
    <glyph glyph-name="uhungarumlaut" unicode="&#x171;" horiz-adv-x="531" 
d="M458 450v-265c0 -115 -78 -192 -193 -192c-114 0 -192 77 -192 192v265h76v-265c0 -75 48 -127 118 -127c71 0 119 52 119 127v265h72zM129 550l125 125l38 -38l-125 -125zM278 550l125 125l38 -38l-125 -125z" />
    <glyph glyph-name="Uogonek" unicode="&#x172;" horiz-adv-x="673" 
d="M392 -39c0 -36 23 -58 55 -58c17 0 31 6 40 16l28 -27c-17 -17 -40 -26 -67 -26c-56 0 -94 37 -94 95c0 12 2 23 7 33c-8 0 -17 -1 -25 -1c-156 0 -260 105 -260 262v445h75v-445c0 -116 75 -194 184 -194c111 0 187 78 187 194v445h75v-445c0 -134 -77 -230 -195 -255
c-6 -10 -10 -25 -10 -39z" />
    <glyph glyph-name="uogonek" unicode="&#x173;" horiz-adv-x="531" 
d="M312 -39c0 -36 22 -58 54 -58c17 0 31 6 41 16l27 -27c-16 -17 -40 -26 -67 -26c-55 0 -94 37 -94 95c0 12 2 23 6 33c-5 -1 -9 -1 -14 -1c-114 0 -192 77 -192 192v265h76v-265c0 -75 48 -127 118 -127c71 0 119 52 119 127v265h72v-265c0 -95 -53 -164 -136 -185
c-7 -10 -10 -25 -10 -39z" />
    <glyph glyph-name="Wcircumflex" unicode="&#x174;" horiz-adv-x="1133" 
d="M1105 700l-263 -700h-76l-200 571l-199 -571h-76l-263 700h87l214 -584l198 584h79l199 -584l213 584h87zM566 900l126 -125l-38 -38l-88 87l-87 -87l-38 38z" />
    <glyph glyph-name="wcircumflex" unicode="&#x175;" horiz-adv-x="792" 
d="M766 450l-174 -450h-76l-120 348l-120 -348h-76l-174 450h83l129 -362l121 362h74l121 -362l129 362h83zM396 675l125 -125l-38 -38l-87 87l-87 -87l-38 38z" />
    <glyph glyph-name="Ycircumflex" unicode="&#x176;" horiz-adv-x="667" 
d="M295 0v302l-267 398h88l217 -323l218 323h87l-267 -399v-301h-76zM333 900l125 -125l-38 -38l-87 87l-87 -87l-38 38z" />
    <glyph glyph-name="ycircumflex" unicode="&#x177;" horiz-adv-x="529" 
d="M503 450l-321 -700h-81l129 250l-204 450h81l158 -363l157 363h81zM265 675l125 -125l-38 -38l-87 87l-88 -87l-38 38z" />
    <glyph glyph-name="Ydieresis" unicode="&#x178;" horiz-adv-x="667" 
d="M295 0v302l-267 398h88l217 -323l218 323h87l-267 -399v-301h-76zM193 797c0 26 20 47 46 47s47 -21 47 -47s-21 -46 -47 -46s-46 20 -46 46zM380 797c0 27 21 47 47 47s47 -20 47 -47c0 -26 -21 -46 -47 -46s-47 20 -47 46z" />
    <glyph glyph-name="Zacute" unicode="&#x179;" horiz-adv-x="625" 
d="M57 637v63h515v-27l-413 -610h416v-63h-525v28l413 609h-406zM251 775l125 125l38 -38l-125 -125z" />
    <glyph glyph-name="zacute" unicode="&#x17a;" horiz-adv-x="470" 
d="M54 392v58h366v-27l-264 -365h264v-58h-370v28l264 364h-260zM173 550l125 125l38 -38l-125 -125z" />
    <glyph glyph-name="Zdotaccent" unicode="&#x17b;" horiz-adv-x="625" 
d="M57 637v63h515v-27l-413 -610h416v-63h-525v28l413 609h-406zM263 810c0 27 22 49 49 49c28 0 49 -22 49 -49c0 -28 -21 -49 -49 -49c-27 0 -49 21 -49 49z" />
    <glyph glyph-name="zdotaccent" unicode="&#x17c;" horiz-adv-x="470" 
d="M54 392v58h366v-27l-264 -365h264v-58h-370v28l264 364h-260zM186 585c0 27 21 49 49 49c27 0 49 -22 49 -49s-22 -49 -49 -49c-28 0 -49 22 -49 49z" />
    <glyph glyph-name="Zcaron" unicode="&#x17d;" horiz-adv-x="625" 
d="M57 637v63h515v-27l-413 -610h416v-63h-525v28l413 609h-406zM312 737l-125 125l38 38l87 -87l88 87l38 -38z" />
    <glyph glyph-name="zcaron" unicode="&#x17e;" horiz-adv-x="470" 
d="M54 392v58h366v-27l-264 -365h264v-58h-370v28l264 364h-260zM235 512l-125 125l38 38l87 -87l87 87l38 -38z" />
    <glyph glyph-name="longs" unicode="&#x17f;" horiz-adv-x="302" 
d="M73 0v606c0 91 59 151 150 151c19 0 38 -3 54 -10v-62c-11 6 -27 10 -42 10c-52 0 -86 -37 -86 -89v-606h-76z" />
    <glyph glyph-name="uni018F" unicode="&#x18f;" horiz-adv-x="746" 
d="M695 350c0 -212 -130 -357 -322 -357s-323 145 -323 357v29h566c-13 155 -121 260 -276 260c-85 0 -156 -29 -205 -81l-48 48c62 64 151 101 256 101c210 0 352 -145 352 -357zM373 61c135 0 231 102 242 255h-484c11 -153 106 -255 242 -255z" />
    <glyph glyph-name="florin" unicode="&#x192;" horiz-adv-x="324" 
d="M40 -250v49c33 0 55 17 55 53v540h-62v58h62v156c0 91 59 151 150 151c19 0 38 -3 54 -10v-62c-11 6 -27 10 -42 10c-52 0 -86 -37 -86 -89v-156h128v-58h-128v-542c0 -65 -41 -104 -98 -104c-10 0 -26 1 -33 4z" />
    <glyph glyph-name="uni01DD" unicode="&#x1dd;" horiz-adv-x="508" 
d="M45 244h343c-6 89 -67 148 -160 148c-50 0 -92 -17 -119 -47l-45 45c41 43 99 67 169 67c138 0 232 -93 232 -234c0 -136 -86 -230 -214 -230c-131 0 -206 97 -206 251zM249 57c75 0 130 52 139 135h-269c8 -82 54 -135 130 -135z" />
    <glyph glyph-name="Aringacute" unicode="&#x1fa;" horiz-adv-x="749" 
d="M336 876l125 125l38 -38l-103 -103c41 -9 66 -42 66 -87c0 -39 -18 -69 -47 -82l306 -691h-87l-88 202h-343l-88 -202h-87l307 691c-30 13 -48 43 -48 82c0 45 26 77 65 86zM375 604l-144 -334h287zM322 772c0 -32 22 -54 53 -54s53 22 53 54c0 33 -23 55 -53 55
c-31 0 -53 -22 -53 -55z" />
    <glyph glyph-name="aringacute" unicode="&#x1fb;" horiz-adv-x="453" 
d="M408 49v-49c-7 -3 -19 -4 -29 -4c-37 0 -63 18 -75 48c-35 -32 -81 -51 -129 -51c-90 0 -129 63 -129 123c0 93 96 146 217 146c17 0 26 -1 34 -3v55c0 38 -27 83 -91 83c-35 0 -77 -15 -98 -37l-40 40c35 36 87 57 144 57c105 0 158 -68 158 -143v-228
c0 -24 16 -37 38 -37zM174 674l126 126l38 -38l-104 -104c41 -8 68 -41 68 -88c0 -54 -35 -90 -88 -90c-52 0 -88 36 -88 90c0 45 25 78 64 87zM197 53c33 0 73 14 100 43v113c-7 1 -16 2 -30 2c-84 0 -148 -33 -148 -88c0 -28 18 -70 78 -70zM161 570c0 -33 22 -54 53 -54
s53 21 53 54c0 32 -23 54 -53 54c-31 0 -53 -22 -53 -54z" />
    <glyph glyph-name="AEacute" unicode="&#x1fc;" horiz-adv-x="772" 
d="M450 637v-253h239v-63h-239v-258h276v-63h-351v202h-172l-88 -202h-87l311 700h382v-63h-271zM231 270h144v334zM349 775l125 125l38 -38l-125 -125z" />
    <glyph glyph-name="aeacute" unicode="&#x1fd;" horiz-adv-x="720" 
d="M297 259v55c0 38 -27 83 -91 83c-35 0 -77 -15 -98 -37l-40 40c35 36 87 57 144 57s96 -22 119 -52c36 34 84 52 141 52c130 0 205 -97 205 -251h-307v-94c27 -34 70 -54 124 -54c51 0 92 17 120 47l44 -45c-41 -43 -98 -67 -168 -67c-73 0 -134 23 -174 69
c-35 -43 -86 -69 -141 -69c-90 0 -129 63 -129 123c0 93 96 146 217 146c17 0 26 -1 34 -3zM370 314v-56h234c-9 82 -54 135 -130 135c-45 0 -83 -18 -107 -50c1 -9 3 -19 3 -29zM297 101v108c-7 1 -16 2 -30 2c-84 0 -148 -33 -148 -88c0 -28 18 -70 78 -70
c34 0 73 17 100 48zM308 550l125 125l38 -38l-125 -125z" />
    <glyph glyph-name="Oslashacute" unicode="&#x1fe;" horiz-adv-x="805" 
d="M53 -7l90 104c-59 62 -93 149 -93 253c0 212 143 357 353 357c83 0 156 -23 214 -65l56 65h79l-90 -104c59 -63 93 -150 93 -253c0 -212 -143 -357 -352 -357c-84 0 -158 23 -215 64l-56 -64h-79zM677 350c0 79 -24 146 -65 196l-376 -433c45 -34 102 -52 167 -52
c163 0 274 117 274 289zM128 350c0 -79 24 -146 65 -196l376 433c-45 33 -101 52 -166 52c-163 0 -275 -117 -275 -289zM341 775l125 125l38 -38l-125 -125z" />
    <glyph glyph-name="oslashacute" unicode="&#x1ff;" horiz-adv-x="555" 
d="M53 -7l53 67c-39 41 -61 97 -61 165c0 138 94 232 233 232c45 0 87 -10 121 -29l27 34h76l-56 -70c41 -40 64 -99 64 -167c0 -138 -94 -232 -232 -232c-48 0 -90 11 -125 31l-24 -31h-76zM439 225c0 45 -13 84 -35 113l-210 -264c24 -14 52 -21 84 -21
c96 0 161 70 161 172zM116 225c0 -44 12 -82 33 -111l209 263c-23 13 -50 20 -80 20c-96 0 -162 -70 -162 -172zM216 550l125 125l38 -38l-125 -125z" />
    <glyph glyph-name="Scommaaccent" unicode="&#x218;" horiz-adv-x="530" 
d="M454 625l-47 -48c-33 36 -94 62 -148 62c-90 0 -124 -66 -124 -118c0 -164 340 -107 340 -328c0 -101 -69 -200 -215 -200c-85 0 -164 33 -219 92l47 47c41 -46 106 -71 165 -71c104 0 144 76 144 130c0 159 -339 99 -339 328c0 96 60 188 194 188c75 0 151 -29 202 -82z
M238 -217l-22 22c20 20 37 42 41 65c-21 2 -36 20 -36 40c0 24 18 42 42 42c21 0 42 -13 42 -49c0 -46 -35 -89 -67 -120z" />
    <glyph glyph-name="scommaaccent" unicode="&#x219;" horiz-adv-x="384" 
d="M324 404l-45 -45c-19 20 -55 36 -87 36c-49 0 -67 -36 -67 -65c0 -95 211 -63 211 -202c0 -67 -48 -135 -149 -135c-58 0 -112 22 -148 60l46 45c23 -27 62 -44 97 -44c60 0 81 43 81 73c0 92 -211 59 -211 202c0 65 42 128 135 128c51 0 103 -18 137 -53zM162 -217
l-22 22c20 20 37 42 41 65c-20 2 -36 20 -36 40c0 24 19 42 43 42c20 0 41 -13 41 -49c0 -46 -35 -89 -67 -120z" />
    <glyph glyph-name="uni021A" unicode="&#x21a;" horiz-adv-x="557" 
d="M316 637v-637h-75v637h-201v63h477v-63h-201zM256 -217l-22 22c20 20 37 42 41 65c-20 2 -36 20 -36 40c0 24 19 42 43 42c20 0 41 -13 41 -49c0 -46 -35 -89 -67 -120z" />
    <glyph glyph-name="uni021B" unicode="&#x21b;" horiz-adv-x="319" 
d="M30 392v58h58v100h75v-100h121v-58h-121v-253c0 -49 32 -84 80 -84c15 0 30 4 41 10v-62c-16 -7 -35 -10 -53 -10c-88 0 -143 58 -143 146v253h-58zM152 -217l-22 22c20 20 37 42 41 65c-20 2 -36 20 -36 40c0 24 18 42 43 42c20 0 41 -13 41 -49c0 -46 -35 -89 -67 -120
z" />
    <glyph glyph-name="dotlessj" unicode="&#x237;" 
d="M18 -250v49c33 0 55 17 55 53v598h73v-600c0 -65 -38 -104 -95 -104c-10 0 -26 1 -33 4z" />
    <glyph glyph-name="circumflex" unicode="&#x2c6;" horiz-adv-x="352" 
d="M176 675l125 -125l-38 -38l-87 87l-87 -87l-38 38z" />
    <glyph glyph-name="caron" unicode="&#x2c7;" horiz-adv-x="352" 
d="M176 512l-125 125l38 38l87 -87l87 87l38 -38z" />
    <glyph glyph-name="breve" unicode="&#x2d8;" horiz-adv-x="354" 
d="M177 582c43 0 77 16 102 42l38 -38c-36 -37 -82 -59 -140 -59s-105 23 -140 60l38 38c25 -26 59 -43 102 -43z" />
    <glyph glyph-name="dotaccent" unicode="&#x2d9;" 
d="M61 585c0 27 21 49 49 49c27 0 49 -22 49 -49s-22 -49 -49 -49c-28 0 -49 22 -49 49z" />
    <glyph glyph-name="ring" unicode="&#x2da;" horiz-adv-x="275" 
d="M50 596c0 53 36 89 88 89c53 0 88 -36 88 -89c0 -54 -35 -90 -88 -90c-52 0 -88 36 -88 90zM86 595c0 -32 21 -54 52 -54s53 22 53 54c0 33 -23 55 -53 55c-31 0 -52 -22 -52 -55z" />
    <glyph glyph-name="ogonek" unicode="&#x2db;" horiz-adv-x="256" 
d="M86 -39c0 -36 23 -58 55 -58c16 0 31 6 40 16l28 -27c-17 -17 -40 -26 -68 -26c-55 0 -93 37 -93 95c0 14 2 27 9 39h39c-6 -10 -10 -25 -10 -39z" />
    <glyph glyph-name="tilde" unicode="&#x2dc;" horiz-adv-x="337" 
d="M73 539h-43c0 52 36 88 84 88c59 0 64 -49 108 -49c24 0 42 18 42 44h43c0 -52 -35 -87 -85 -87c-60 0 -64 48 -107 48c-24 0 -42 -17 -42 -44z" />
    <glyph glyph-name="hungarumlaut" unicode="&#x2dd;" horiz-adv-x="414" 
d="M51 550l125 125l38 -38l-125 -125zM200 550l125 125l38 -38l-125 -125z" />
    <glyph glyph-name="uni0400" unicode="&#x400;" horiz-adv-x="498" 
d="M151 637v-253h262v-63h-262v-258h299v-63h-374v700h369v-63h-294zM199 900l125 -125l-38 -38l-125 125z" />
    <glyph glyph-name="afii10023" unicode="&#x401;" horiz-adv-x="498" 
d="M151 637v-253h262v-63h-262v-258h299v-63h-374v700h369v-63h-294zM121 797c0 26 21 47 47 47s47 -21 47 -47s-21 -46 -47 -46s-47 20 -47 46zM309 797c0 27 20 47 46 47c27 0 47 -20 47 -47c0 -26 -20 -46 -47 -46c-26 0 -46 20 -46 46z" />
    <glyph glyph-name="afii10051" unicode="&#x402;" horiz-adv-x="694" 
d="M489 0v49c33 0 56 17 56 53v143c0 71 -46 119 -113 119c-48 0 -88 -17 -116 -45v-319h-75v637h-201v63h477v-63h-201v-253c36 29 81 46 133 46c104 0 171 -75 171 -185v-145c0 -65 -38 -104 -97 -104c-11 0 -27 1 -34 4z" />
    <glyph glyph-name="afii10052" unicode="&#x403;" horiz-adv-x="466" 
d="M187 775l125 125l38 -38l-125 -125zM76 0v700h349v-63h-274v-637h-75z" />
    <glyph glyph-name="afii10053" unicode="&#x404;" horiz-adv-x="699" 
d="M406 639c-153 0 -262 -102 -276 -255h415v-63h-415c12 -156 120 -260 276 -260c85 0 155 29 204 80l49 -47c-62 -64 -151 -101 -256 -101c-210 0 -353 145 -353 357s143 357 353 357c105 0 194 -37 256 -101l-49 -48c-48 51 -119 81 -204 81z" />
    <glyph glyph-name="afii10054" unicode="&#x405;" horiz-adv-x="530" 
d="M454 625l-47 -48c-33 36 -94 62 -148 62c-90 0 -124 -66 -124 -118c0 -164 340 -107 340 -328c0 -101 -69 -200 -215 -200c-85 0 -164 33 -219 92l47 47c41 -46 106 -71 165 -71c104 0 144 76 144 130c0 159 -339 99 -339 328c0 96 60 188 194 188c75 0 151 -29 202 -82z
" />
    <glyph glyph-name="afii10055" unicode="&#x406;" horiz-adv-x="222" 
d="M73 0v700h76v-700h-76z" />
    <glyph glyph-name="afii10056" unicode="&#x407;" horiz-adv-x="222" 
d="M73 0v700h76v-700h-76zM-14 797c0 26 21 47 47 47s46 -21 46 -47s-20 -46 -46 -46s-47 20 -47 46zM143 797c0 27 20 47 46 47c27 0 47 -20 47 -47c0 -26 -20 -46 -47 -46c-26 0 -46 20 -46 46z" />
    <glyph glyph-name="afii10057" unicode="&#x408;" horiz-adv-x="453" 
d="M304 190v510h75v-510c0 -118 -80 -197 -196 -197c-58 0 -109 21 -143 55l49 49c22 -23 53 -36 91 -36c73 0 124 52 124 129z" />
    <glyph glyph-name="afii10058" unicode="&#x409;" horiz-adv-x="942" 
d="M489 0v637h-256v-464c0 -111 -62 -177 -146 -177c-16 0 -39 1 -49 4v49c70 0 118 40 118 120v531h410v-309h122c121 0 203 -76 203 -195s-82 -196 -203 -196h-199zM814 196c0 78 -51 130 -126 130h-122v-260h122c75 0 126 52 126 130z" />
    <glyph glyph-name="afii10059" unicode="&#x40a;" horiz-adv-x="937" 
d="M151 700v-309h333v309h77v-309h122c121 0 203 -76 203 -195s-82 -196 -203 -196h-199v326h-333v-326h-75v700h75zM809 196c0 78 -51 130 -126 130h-122v-260h122c75 0 126 52 126 130z" />
    <glyph glyph-name="afii10060" unicode="&#x40b;" horiz-adv-x="694" 
d="M316 637v-253c36 29 81 46 133 46c104 0 171 -75 171 -185v-245h-75v245c0 71 -46 119 -113 119c-48 0 -88 -17 -116 -45v-319h-75v637h-201v63h477v-63h-201z" />
    <glyph glyph-name="afii10061" unicode="&#x40c;" horiz-adv-x="596" 
d="M73 0v700h76v-700h-76zM468 0l-309 359l289 341h95l-289 -341l311 -359h-97zM236 775l125 125l38 -38l-125 -125z" />
    <glyph glyph-name="uni040D" unicode="&#x40d;" horiz-adv-x="706" 
d="M289 900l125 -125l-38 -38l-125 125zM578 700h52v-700h-76v558l-427 -558h-51v700h75v-558z" />
    <glyph glyph-name="afii10062" unicode="&#x40e;" horiz-adv-x="609" 
d="M305 807c43 0 77 16 102 42l38 -38c-36 -37 -83 -59 -140 -59c-58 0 -105 23 -141 59l38 38c25 -26 59 -42 103 -42zM583 700l-352 -700h-81l119 220l-243 480h81l198 -393l197 393h81z" />
    <glyph glyph-name="afii10145" unicode="&#x40f;" horiz-adv-x="696" 
d="M313 0h-237v700h75v-637h393v637h76v-700h-237v-150h-70v150z" />
    <glyph glyph-name="afii10017" unicode="&#x410;" horiz-adv-x="749" 
d="M634 0l-88 202h-343l-88 -202h-87l311 700h72l310 -700h-87zM375 604l-144 -334h287z" />
    <glyph glyph-name="afii10018" unicode="&#x411;" horiz-adv-x="537" 
d="M76 0v700h356v-63h-278v-246h129c121 0 203 -76 203 -195s-82 -196 -203 -196h-207zM409 196c0 78 -51 130 -126 130h-129v-260h129c75 0 126 52 126 130z" />
    <glyph glyph-name="afii10019" unicode="&#x412;" horiz-adv-x="545" 
d="M76 0v700h191c112 0 187 -70 187 -180c0 -70 -31 -123 -82 -151c73 -24 120 -89 120 -176c0 -118 -81 -193 -199 -193h-217zM417 198c0 78 -51 130 -127 130h-136v-262h136c76 0 127 52 127 132zM379 514c0 72 -47 120 -117 120h-108v-240h108c70 0 117 48 117 120z" />
    <glyph glyph-name="afii10020" unicode="&#x413;" horiz-adv-x="466" 
d="M76 0v700h349v-63h-274v-637h-75z" />
    <glyph glyph-name="afii10021" unicode="&#x414;" horiz-adv-x="680" 
d="M574 0h-468v-150h-70v211c70 0 115 50 115 155v484h421v-637h72v-213h-70v150zM228 215c0 -66 -18 -119 -55 -152h321v574h-266v-422z" />
    <glyph glyph-name="afii10022" unicode="&#x415;" horiz-adv-x="498" 
d="M151 637v-253h262v-63h-262v-258h299v-63h-374v700h369v-63h-294z" />
    <glyph glyph-name="afii10024" unicode="&#x416;" horiz-adv-x="904" 
d="M414 0v700h75v-700h-75zM784 0l-284 359l269 341h87l-269 -341l286 -359h-89zM404 359l-284 -359h-90l286 359l-268 341h87z" />
    <glyph glyph-name="afii10025" unicode="&#x417;" horiz-adv-x="545" 
d="M185 328v66h77c72 0 122 45 122 124c0 74 -45 123 -124 123c-59 0 -115 -27 -163 -75l-46 47c60 60 128 94 213 94c128 0 195 -78 195 -184c0 -71 -30 -125 -87 -154c73 -24 120 -88 120 -177c0 -122 -86 -199 -223 -199c-92 0 -166 35 -229 101l49 47
c49 -53 106 -82 176 -82c96 0 152 56 152 138c0 79 -51 131 -127 131h-105z" />
    <glyph glyph-name="afii10026" unicode="&#x418;" horiz-adv-x="706" 
d="M578 700h52v-700h-76v558l-427 -558h-51v700h75v-558z" />
    <glyph glyph-name="afii10027" unicode="&#x419;" horiz-adv-x="706" 
d="M353 807c43 0 77 16 102 42l38 -38c-36 -37 -82 -59 -140 -59s-105 23 -141 59l39 38c25 -26 59 -42 102 -42zM578 700h52v-700h-76v558l-427 -558h-51v700h75v-558z" />
    <glyph glyph-name="afii10028" unicode="&#x41a;" horiz-adv-x="596" 
d="M73 0v700h76v-700h-76zM468 0l-309 359l289 341h95l-289 -341l311 -359h-97z" />
    <glyph glyph-name="afii10029" unicode="&#x41b;" horiz-adv-x="658" 
d="M38 0v49c70 0 118 40 118 120v531h426v-700h-78v637h-271v-464c0 -111 -62 -177 -146 -177c-16 0 -39 1 -49 4z" />
    <glyph glyph-name="afii10030" unicode="&#x41c;" horiz-adv-x="809" 
d="M658 0v545l-237 -384h-33l-237 384v-545h-75v700h57l271 -433l271 433h58v-700h-75z" />
    <glyph glyph-name="afii10031" unicode="&#x41d;" horiz-adv-x="690" 
d="M151 700v-316h388v316h75v-700h-75v321h-388v-321h-75v700h75z" />
    <glyph glyph-name="afii10032" unicode="&#x41e;" horiz-adv-x="805" 
d="M50 350c0 212 143 357 353 357c209 0 352 -145 352 -357s-143 -357 -352 -357c-210 0 -353 145 -353 357zM128 350c0 -172 112 -289 275 -289s274 117 274 289s-111 289 -274 289s-275 -117 -275 -289z" />
    <glyph glyph-name="afii10033" unicode="&#x41f;" horiz-adv-x="661" 
d="M76 700h509v-700h-75v637h-359v-637h-75v700z" />
    <glyph glyph-name="afii10034" unicode="&#x420;" horiz-adv-x="519" 
d="M76 0v700h189c121 0 204 -77 204 -196s-83 -195 -204 -195h-111v-309h-78zM391 504c0 78 -51 130 -126 130h-111v-260h111c75 0 126 52 126 130z" />
    <glyph glyph-name="afii10035" unicode="&#x421;" horiz-adv-x="699" 
d="M128 350c0 -172 113 -289 278 -289c85 0 155 29 204 80l49 -47c-62 -64 -151 -101 -256 -101c-210 0 -353 145 -353 357s143 357 353 357c105 0 194 -37 256 -101l-49 -48c-48 51 -119 81 -204 81c-165 0 -278 -117 -278 -289z" />
    <glyph glyph-name="afii10036" unicode="&#x422;" horiz-adv-x="557" 
d="M316 637v-637h-75v637h-201v63h477v-63h-201z" />
    <glyph glyph-name="afii10037" unicode="&#x423;" horiz-adv-x="609" 
d="M583 700l-352 -700h-81l119 220l-243 480h81l198 -393l197 393h81z" />
    <glyph glyph-name="afii10038" unicode="&#x424;" horiz-adv-x="769" 
d="M347 0v68c-177 0 -297 115 -297 282s120 282 297 282v68h75v-68c177 0 296 -115 296 -282s-119 -282 -296 -282v-68h-75zM422 564v-428c131 0 219 87 219 214s-88 214 -219 214zM347 136v428c-130 0 -219 -87 -219 -214s89 -214 219 -214z" />
    <glyph glyph-name="afii10039" unicode="&#x425;" horiz-adv-x="721" 
d="M593 0l-233 303l-233 -303h-96l274 354l-267 346h97l225 -294l225 294h97l-268 -346l276 -354h-97z" />
    <glyph glyph-name="afii10040" unicode="&#x426;" horiz-adv-x="725" 
d="M619 0h-543v700h75v-637h393v637h76v-637h70v-213h-71v150z" />
    <glyph glyph-name="afii10041" unicode="&#x427;" horiz-adv-x="578" 
d="M502 0h-73v315c-47 -14 -106 -19 -149 -19c-132 0 -204 76 -204 213v191h73v-189c0 -97 43 -154 145 -154c40 0 100 6 135 19v324h73v-700z" />
    <glyph glyph-name="afii10042" unicode="&#x428;" horiz-adv-x="1014" 
d="M938 0h-862v700h75v-637h318v637h76v-637h318v637h75v-700z" />
    <glyph glyph-name="afii10043" unicode="&#x429;" horiz-adv-x="1044" 
d="M938 0h-862v700h75v-637h318v637h76v-637h318v637h75v-637h70v-213h-70v150z" />
    <glyph glyph-name="afii10044" unicode="&#x42a;" horiz-adv-x="649" 
d="M40 637v63h233v-309h122c121 0 203 -76 203 -195s-82 -196 -203 -196h-199v637h-156zM521 196c0 78 -51 130 -126 130h-122v-260h122c75 0 126 52 126 130z" />
    <glyph glyph-name="afii10045" unicode="&#x42b;" horiz-adv-x="731" 
d="M76 0v700h78v-309h121c121 0 204 -76 204 -195s-83 -196 -204 -196h-199zM401 196c0 78 -51 130 -126 130h-121v-260h121c75 0 126 52 126 130zM580 0v700h75v-700h-75z" />
    <glyph glyph-name="afii10046" unicode="&#x42c;" horiz-adv-x="529" 
d="M76 0v700h78v-309h121c121 0 204 -76 204 -195s-83 -196 -204 -196h-199zM401 196c0 78 -51 130 -126 130h-121v-260h121c75 0 126 52 126 130z" />
    <glyph glyph-name="afii10047" unicode="&#x42d;" horiz-adv-x="699" 
d="M89 558l-49 48c62 64 151 101 257 101c210 0 352 -145 352 -357s-142 -357 -352 -357c-106 0 -195 37 -257 101l49 47c49 -51 119 -80 204 -80c156 0 265 104 276 260h-352v63h352c-13 153 -122 255 -276 255c-85 0 -155 -30 -204 -81z" />
    <glyph glyph-name="afii10048" unicode="&#x42e;" horiz-adv-x="1029" 
d="M151 700v-316h186c14 193 139 323 320 323c192 0 322 -145 322 -357s-130 -357 -322 -357c-182 0 -308 132 -320 328h-186v-321h-75v700h75zM413 350c0 -172 99 -289 244 -289s244 117 244 289s-99 289 -244 289s-244 -117 -244 -289z" />
    <glyph glyph-name="afii10049" unicode="&#x42f;" horiz-adv-x="544" 
d="M468 700v-700h-77v309h-107l-162 -309h-86l173 312c-96 17 -159 88 -159 192c0 119 83 196 204 196h214zM128 504c0 -78 51 -130 126 -130h137v260h-137c-75 0 -126 -52 -126 -130z" />
    <glyph glyph-name="afii10065" unicode="&#x430;" horiz-adv-x="453" 
d="M408 49v-49c-7 -3 -19 -4 -29 -4c-37 0 -63 18 -75 48c-35 -32 -81 -51 -129 -51c-90 0 -129 63 -129 123c0 93 96 146 217 146c17 0 26 -1 34 -3v55c0 38 -27 83 -91 83c-35 0 -77 -15 -98 -37l-40 40c35 36 87 57 144 57c105 0 158 -68 158 -143v-228
c0 -24 16 -37 38 -37zM197 53c33 0 73 14 100 43v113c-7 1 -16 2 -30 2c-84 0 -148 -33 -148 -88c0 -28 18 -70 78 -70z" />
    <glyph glyph-name="afii10066" unicode="&#x431;" horiz-adv-x="565" 
d="M434 755l41 -41c-137 -156 -333 -59 -345 -356h6c35 65 89 99 162 99c123 0 222 -93 222 -234c0 -136 -91 -230 -241 -230c-124 0 -223 63 -223 312c0 413 275 324 378 450zM138 224c0 -95 51 -166 148 -166c94 0 159 68 159 168c0 98 -64 166 -158 166
c-93 0 -149 -66 -149 -168z" />
    <glyph glyph-name="afii10067" unicode="&#x432;" horiz-adv-x="442" 
d="M73 0v450h166c80 0 127 -47 127 -114c0 -44 -20 -78 -54 -98c51 -17 80 -59 80 -114c0 -73 -50 -124 -137 -124h-182zM243 208h-97v-152h97c45 0 76 31 76 76s-31 76 -76 76zM146 259h82c40 0 67 28 67 68c0 39 -27 67 -67 67h-82v-135z" />
    <glyph glyph-name="afii10068" unicode="&#x433;" horiz-adv-x="368" 
d="M146 392v-392h-73v450h254v-58h-181z" />
    <glyph glyph-name="afii10069" unicode="&#x434;" horiz-adv-x="534" 
d="M495 58v-178h-68v120h-322v-120h-68v178c50 0 88 42 88 100v292h310v-392h60zM198 164c0 -43 -15 -79 -43 -106h208v334h-165v-228z" />
    <glyph glyph-name="afii10070" unicode="&#x435;" horiz-adv-x="508" 
d="M465 206h-342c6 -89 66 -148 159 -148c51 0 92 17 120 47l44 -45c-41 -43 -98 -67 -168 -67c-139 0 -233 93 -233 234c0 136 87 230 215 230c130 0 205 -97 205 -251zM262 393c-76 0 -131 -52 -139 -135h269c-9 82 -54 135 -130 135z" />
    <glyph glyph-name="afii10072" unicode="&#x436;" horiz-adv-x="664" 
d="M549 0l-181 234v-234h-72v235l-182 -235h-83l185 237l-169 213h84l165 -212v212h72v-211l165 211h84l-169 -213l185 -237h-84z" />
    <glyph glyph-name="afii10073" unicode="&#x437;" horiz-adv-x="408" 
d="M190 457c91 0 145 -49 145 -119c0 -45 -20 -82 -57 -102c54 -18 80 -62 80 -116c0 -76 -58 -127 -162 -127c-74 0 -121 27 -161 67l42 41c29 -30 68 -48 113 -48c61 0 95 33 95 79c0 45 -30 74 -76 74h-69v51h52c42 0 71 30 71 70c0 34 -25 70 -79 70
c-37 0 -75 -17 -100 -44l-41 42c37 38 84 62 147 62z" />
    <glyph glyph-name="afii10074" unicode="&#x438;" horiz-adv-x="533" 
d="M146 450v-333l255 333h59v-450h-73v333l-255 -333h-59v450h73z" />
    <glyph glyph-name="afii10075" unicode="&#x439;" horiz-adv-x="533" 
d="M266 582c43 0 77 16 103 42l38 -38c-36 -37 -83 -59 -141 -59c-57 0 -104 23 -140 60l38 38c25 -26 59 -43 102 -43zM146 450v-333l255 333h59v-450h-73v333l-255 -333h-59v450h73z" />
    <glyph glyph-name="afii10076" unicode="&#x43a;" horiz-adv-x="465" 
d="M146 0h-73v450h73v-209l185 209h87l-191 -213l208 -237h-87l-202 232v-232z" />
    <glyph glyph-name="afii10077" unicode="&#x43b;" horiz-adv-x="500" 
d="M38 0v49c49 0 83 28 83 85v316h305v-450h-72v392h-160v-261c0 -86 -47 -135 -116 -135c-13 0 -32 1 -40 4z" />
    <glyph glyph-name="afii10078" unicode="&#x43c;" horiz-adv-x="599" 
d="M73 0v450h70l157 -271l156 271h70v-450h-68v335l-137 -245h-43l-137 245v-335h-68z" />
    <glyph glyph-name="afii10079" unicode="&#x43d;" horiz-adv-x="528" 
d="M146 450v-193h236v193h72v-450h-72v198h-236v-198h-73v450h73z" />
    <glyph glyph-name="afii10080" unicode="&#x43e;" horiz-adv-x="555" 
d="M45 225c0 138 94 232 233 232c138 0 232 -94 232 -232s-94 -232 -232 -232c-139 0 -233 94 -233 232zM121 225c0 -99 63 -167 157 -167c93 0 157 68 157 167s-64 167 -157 167c-94 0 -157 -68 -157 -167z" />
    <glyph glyph-name="afii10081" unicode="&#x43f;" horiz-adv-x="515" 
d="M369 0v392h-223v-392h-73v450h369v-450h-73z" />
    <glyph glyph-name="afii10082" unicode="&#x440;" horiz-adv-x="541" 
d="M73 450h73v-38c35 29 81 45 133 45c129 0 217 -94 217 -232s-92 -232 -228 -232c-46 0 -88 12 -122 33v-276h-73v700zM420 225c0 99 -64 167 -158 167c-49 0 -88 -17 -116 -45v-246c28 -27 67 -43 116 -43c94 0 158 68 158 167z" />
    <glyph glyph-name="afii10083" unicode="&#x441;" horiz-adv-x="478" 
d="M121 225c0 -99 64 -167 159 -167c49 0 90 17 117 47l45 -45c-40 -43 -98 -67 -166 -67c-138 0 -231 94 -231 232s93 232 231 232c68 0 126 -25 166 -68l-45 -45c-27 30 -68 48 -117 48c-95 0 -159 -68 -159 -167z" />
    <glyph glyph-name="afii10084" unicode="&#x442;" horiz-adv-x="434" 
d="M254 392v-392h-73v392h-141v58h354v-58h-140z" />
    <glyph glyph-name="afii10085" unicode="&#x443;" horiz-adv-x="529" 
d="M503 450l-321 -700h-81l129 250l-204 450h81l158 -363l157 363h81z" />
    <glyph glyph-name="afii10086" unicode="&#x444;" horiz-adv-x="678" 
d="M401 -5c-9 0 -18 1 -25 2v-247h-73v247c-9 -1 -17 -2 -25 -2c-139 0 -233 92 -233 230s94 230 233 230c8 0 16 -1 25 -2v297h73v-297c7 1 16 2 25 2c138 0 232 -92 232 -230s-94 -230 -232 -230zM401 392c-9 0 -18 -1 -25 -2v-330c7 -1 16 -2 25 -2c93 0 157 68 157 167
s-64 167 -157 167zM121 225c0 -99 63 -167 157 -167c8 0 16 1 25 2v330c-9 1 -17 2 -25 2c-94 0 -157 -68 -157 -167z" />
    <glyph glyph-name="afii10087" unicode="&#x445;" horiz-adv-x="513" 
d="M397 0l-141 183l-141 -183h-84l178 229l-171 221h85l133 -173l134 173h85l-172 -221l179 -229h-85z" />
    <glyph glyph-name="afii10088" unicode="&#x446;" horiz-adv-x="535" 
d="M73 0v450h73v-392h223v392h73v-392h55v-178h-68v120h-356z" />
    <glyph glyph-name="afii10089" unicode="&#x447;" horiz-adv-x="475" 
d="M402 0h-73v188c-33 -12 -74 -17 -103 -17c-101 0 -155 62 -155 155v124h73v-121c0 -53 28 -98 98 -98c26 0 64 7 87 20v199h73v-450z" />
    <glyph glyph-name="afii10090" unicode="&#x448;" horiz-adv-x="710" 
d="M564 58v392h73v-450h-564v450h73v-392h173v392h72v-392h173z" />
    <glyph glyph-name="afii10091" unicode="&#x449;" horiz-adv-x="730" 
d="M73 0v450h73v-392h173v392h72v-392h173v392h73v-392h54v-178h-68v120h-550z" />
    <glyph glyph-name="afii10092" unicode="&#x44a;" horiz-adv-x="512" 
d="M323 0h-162v392h-121v58h193v-190h90c91 0 144 -54 144 -130s-53 -130 -144 -130zM321 204h-88v-148h88c43 0 73 30 73 74c0 43 -30 74 -73 74z" />
    <glyph glyph-name="afii10093" unicode="&#x44b;" horiz-adv-x="599" 
d="M73 0v450h73v-190h90c91 0 144 -54 144 -130s-53 -130 -144 -130h-163zM234 204h-88v-148h88c43 0 73 30 73 74c0 43 -30 74 -73 74zM453 0v450h73v-450h-73z" />
    <glyph glyph-name="afii10094" unicode="&#x44c;" horiz-adv-x="425" 
d="M73 0v450h73v-190h90c91 0 144 -54 144 -130s-53 -130 -144 -130h-163zM234 204h-88v-148h88c43 0 73 30 73 74c0 43 -30 74 -73 74z" />
    <glyph glyph-name="afii10095" unicode="&#x44d;" horiz-adv-x="478" 
d="M154 201v53h201c-12 83 -72 138 -157 138c-49 0 -90 -17 -117 -47l-45 45c40 43 98 67 166 67c138 0 231 -94 231 -232s-93 -232 -231 -232c-68 0 -126 25 -166 67l45 46c27 -30 68 -48 117 -48c87 0 148 57 157 143h-201z" />
    <glyph glyph-name="afii10096" unicode="&#x44e;" horiz-adv-x="747" 
d="M146 450v-193h113c13 120 99 200 221 200c132 0 222 -94 222 -232s-90 -232 -222 -232c-124 0 -210 82 -221 205h-113v-198h-73v450h73zM333 225c0 -99 60 -167 147 -167s147 68 147 167s-60 167 -147 167s-147 -68 -147 -167z" />
    <glyph glyph-name="afii10097" unicode="&#x44f;" horiz-adv-x="463" 
d="M389 450v-450h-73v185h-82l-102 -185h-77l112 190c-65 15 -102 63 -102 127c0 78 54 133 147 133h177zM214 241h102v153h-102c-45 0 -76 -31 -76 -76s31 -77 76 -77z" />
    <glyph glyph-name="uni0450" unicode="&#x450;" horiz-adv-x="508" 
d="M465 206h-342c6 -89 66 -148 159 -148c51 0 92 17 120 47l44 -45c-41 -43 -98 -67 -168 -67c-139 0 -233 93 -233 234c0 136 87 230 215 230c130 0 205 -97 205 -251zM262 393c-76 0 -131 -52 -139 -135h269c-9 82 -54 135 -130 135zM197 675l126 -125l-38 -38l-126 125z
" />
    <glyph glyph-name="afii10071" unicode="&#x451;" horiz-adv-x="508" 
d="M465 206h-342c6 -89 66 -148 159 -148c51 0 92 17 120 47l44 -45c-41 -43 -98 -67 -168 -67c-139 0 -233 93 -233 234c0 136 87 230 215 230c130 0 205 -97 205 -251zM262 393c-76 0 -131 -52 -139 -135h269c-9 82 -54 135 -130 135zM121 552c0 26 20 47 46 47
s47 -21 47 -47s-21 -46 -47 -46s-46 20 -46 46zM308 552c0 27 20 47 46 47c27 0 47 -20 47 -47c0 -26 -20 -46 -47 -46c-26 0 -46 20 -46 46z" />
    <glyph glyph-name="afii10099" unicode="&#x452;" horiz-adv-x="538" 
d="M333 -250v49c33 0 56 17 56 53v421c0 70 -46 119 -113 119c-48 0 -88 -17 -115 -45v-347h-73v592h-58v58h58v100h73v-100h173v-58h-173v-179c35 28 81 44 132 44c102 0 169 -74 169 -184v-423c0 -65 -38 -104 -96 -104c-10 0 -26 1 -33 4z" />
    <glyph glyph-name="afii10100" unicode="&#x453;" horiz-adv-x="368" 
d="M137 550l125 125l38 -38l-125 -125zM146 392v-392h-73v450h254v-58h-181z" />
    <glyph glyph-name="afii10101" unicode="&#x454;" horiz-adv-x="478" 
d="M280 392c-86 0 -146 -55 -157 -138h232v-53h-233c10 -86 71 -143 158 -143c49 0 90 17 117 47l45 -45c-40 -43 -98 -67 -166 -67c-138 0 -231 94 -231 232s93 232 231 232c68 0 126 -25 166 -68l-45 -45c-27 30 -68 48 -117 48z" />
    <glyph glyph-name="afii10102" unicode="&#x455;" horiz-adv-x="384" 
d="M324 404l-45 -45c-19 20 -55 36 -87 36c-49 0 -67 -36 -67 -65c0 -95 211 -63 211 -202c0 -67 -48 -135 -149 -135c-58 0 -112 22 -148 60l46 45c23 -27 62 -44 97 -44c60 0 81 43 81 73c0 92 -211 59 -211 202c0 65 42 128 135 128c51 0 103 -18 137 -53z" />
    <glyph glyph-name="afii10103" unicode="&#x456;" 
d="M73 0v450h73v-450h-73zM61 585c0 27 21 49 49 49c27 0 49 -22 49 -49s-22 -49 -49 -49c-28 0 -49 22 -49 49z" />
    <glyph glyph-name="afii10104" unicode="&#x457;" 
d="M73 0v450h73v-450h-73zM-13 560c0 26 21 46 47 46s46 -20 46 -46s-20 -47 -46 -47s-47 21 -47 47zM139 560c0 26 20 47 46 47c27 0 47 -21 47 -47s-20 -47 -47 -47c-26 0 -46 21 -46 47z" />
    <glyph glyph-name="afii10105" unicode="&#x458;" 
d="M61 585c0 27 21 49 49 49c27 0 49 -22 49 -49s-22 -49 -49 -49c-28 0 -49 22 -49 49zM18 -250v49c33 0 55 17 55 53v598h73v-600c0 -65 -38 -104 -95 -104c-10 0 -26 1 -33 4z" />
    <glyph glyph-name="afii10106" unicode="&#x459;" horiz-adv-x="700" 
d="M354 0v392h-160v-261c0 -86 -47 -135 -116 -135c-13 0 -32 1 -40 4v49c49 0 83 28 83 85v316h305v-190h90c91 0 144 -54 144 -130s-53 -130 -144 -130h-162zM514 204h-88v-148h88c43 0 73 30 73 74c0 43 -30 74 -73 74z" />
    <glyph glyph-name="afii10107" unicode="&#x45a;" horiz-adv-x="728" 
d="M146 450v-193h230v193h73v-193h96c89 0 140 -53 140 -129s-51 -128 -140 -128h-169v198h-230v-198h-73v450h73zM543 198h-94v-142h94c41 0 69 28 69 71c0 44 -28 71 -69 71z" />
    <glyph glyph-name="afii10108" unicode="&#x45b;" horiz-adv-x="538" 
d="M30 592v58h58v100h73v-100h173v-58h-173v-179c35 28 81 44 132 44c102 0 169 -74 169 -184v-273h-73v273c0 70 -46 119 -113 119c-48 0 -88 -17 -115 -45v-347h-73v592h-58z" />
    <glyph glyph-name="afii10109" unicode="&#x45c;" horiz-adv-x="465" 
d="M146 0h-73v450h73v-209l185 209h87l-191 -213l208 -237h-87l-202 232v-232zM171 550l125 125l38 -38l-125 -125z" />
    <glyph glyph-name="uni045D" unicode="&#x45d;" horiz-adv-x="533" 
d="M203 675l125 -125l-38 -38l-125 125zM146 450v-333l255 333h59v-450h-73v333l-255 -333h-59v450h73z" />
    <glyph glyph-name="afii10110" unicode="&#x45e;" horiz-adv-x="529" 
d="M503 450l-321 -700h-81l129 250l-204 450h81l158 -363l157 363h81zM265 582c43 0 77 16 102 42l38 -38c-36 -37 -83 -59 -140 -59c-58 0 -105 23 -141 60l38 38c25 -26 59 -43 103 -43z" />
    <glyph glyph-name="afii10193" unicode="&#x45f;" horiz-adv-x="515" 
d="M224 -120v120h-151v450h73v-392h223v392h73v-450h-150v-120h-68z" />
    <glyph glyph-name="afii10050" unicode="&#x490;" horiz-adv-x="464" 
d="M151 637v-637h-75v700h276v125h58v-188h-259z" />
    <glyph glyph-name="afii10098" unicode="&#x491;" horiz-adv-x="365" 
d="M146 392v-392h-73v450h186v100h58v-158h-171z" />
    <glyph glyph-name="uni04D8" unicode="&#x4d8;" horiz-adv-x="746" 
d="M695 350c0 -212 -130 -357 -322 -357s-323 145 -323 357v29h566c-13 155 -121 260 -276 260c-85 0 -156 -29 -205 -81l-48 48c62 64 151 101 256 101c210 0 352 -145 352 -357zM373 61c135 0 231 102 242 255h-484c11 -153 106 -255 242 -255z" />
    <glyph glyph-name="afii10846" unicode="&#x4d9;" horiz-adv-x="508" 
d="M45 244h343c-6 89 -67 148 -160 148c-50 0 -92 -17 -119 -47l-45 45c41 43 99 67 169 67c138 0 232 -93 232 -234c0 -136 -86 -230 -214 -230c-131 0 -206 97 -206 251zM249 57c75 0 130 52 139 135h-269c8 -82 54 -135 130 -135z" />
    <glyph glyph-name="Wgrave" unicode="&#x1e80;" horiz-adv-x="1133" 
d="M1105 700l-263 -700h-76l-200 571l-199 -571h-76l-263 700h87l214 -584l198 584h79l199 -584l213 584h87zM503 900l125 -125l-38 -38l-125 125z" />
    <glyph glyph-name="wgrave" unicode="&#x1e81;" horiz-adv-x="792" 
d="M766 450l-174 -450h-76l-120 348l-120 -348h-76l-174 450h83l129 -362l121 362h74l121 -362l129 362h83zM333 675l125 -125l-38 -38l-125 125z" />
    <glyph glyph-name="Wacute" unicode="&#x1e82;" horiz-adv-x="1133" 
d="M1105 700l-263 -700h-76l-200 571l-199 -571h-76l-263 700h87l214 -584l198 584h79l199 -584l213 584h87zM505 775l125 125l38 -38l-125 -125z" />
    <glyph glyph-name="wacute" unicode="&#x1e83;" horiz-adv-x="792" 
d="M766 450l-174 -450h-76l-120 348l-120 -348h-76l-174 450h83l129 -362l121 362h74l121 -362l129 362h83zM335 550l125 125l38 -38l-125 -125z" />
    <glyph glyph-name="Wdieresis" unicode="&#x1e84;" horiz-adv-x="1133" 
d="M1105 700l-263 -700h-76l-200 571l-199 -571h-76l-263 700h87l214 -584l198 584h79l199 -584l213 584h87zM426 797c0 26 20 47 46 47s47 -21 47 -47s-21 -46 -47 -46s-46 20 -46 46zM613 797c0 27 21 47 47 47s47 -20 47 -47c0 -26 -21 -46 -47 -46s-47 20 -47 46z" />
    <glyph glyph-name="wdieresis" unicode="&#x1e85;" horiz-adv-x="792" 
d="M766 450l-174 -450h-76l-120 348l-120 -348h-76l-174 450h83l129 -362l121 362h74l121 -362l129 362h83zM256 573c0 26 20 46 46 46s47 -20 47 -46s-21 -47 -47 -47s-46 21 -46 47zM443 573c0 26 20 47 46 47c27 0 48 -21 48 -47s-21 -47 -48 -47c-26 0 -46 21 -46 47z
" />
    <glyph glyph-name="Ygrave" unicode="&#x1ef2;" horiz-adv-x="667" 
d="M295 0v302l-267 398h88l217 -323l218 323h87l-267 -399v-301h-76zM270 900l125 -125l-38 -38l-125 125z" />
    <glyph glyph-name="ygrave" unicode="&#x1ef3;" horiz-adv-x="529" 
d="M503 450l-321 -700h-81l129 250l-204 450h81l158 -363l157 363h81zM201 675l125 -125l-38 -38l-125 125z" />
    <glyph glyph-name="figuredash" unicode="&#x2012;" horiz-adv-x="500" 
d="M61 321v58h378v-58h-378z" />
    <glyph glyph-name="endash" unicode="&#x2013;" horiz-adv-x="500" 
d="M61 236v58h378v-58h-378z" />
    <glyph glyph-name="emdash" unicode="&#x2014;" horiz-adv-x="700" 
d="M61 236v58h578v-58h-578z" />
    <glyph glyph-name="quoteleft" unicode="&#x2018;" 
d="M139 707l26 -26c-23 -22 -42 -47 -47 -73c24 -3 41 -23 41 -48c0 -27 -21 -49 -49 -49c-23 0 -49 16 -49 57c0 54 41 103 78 139z" />
    <glyph glyph-name="quoteright" unicode="&#x2019;" 
d="M82 511l-26 26c22 23 41 48 46 73c-23 4 -41 24 -41 48c0 28 21 49 49 49c24 0 49 -15 49 -57c0 -53 -41 -103 -77 -139z" />
    <glyph glyph-name="quotesinglbase" unicode="&#x201a;" 
d="M82 -105l-26 26c22 22 41 47 46 73c-23 3 -41 23 -41 48c0 27 21 49 49 49c24 0 49 -16 49 -57c0 -54 -41 -103 -77 -139z" />
    <glyph glyph-name="quotedblleft" unicode="&#x201c;" horiz-adv-x="353" 
d="M272 731l26 -26c-22 -22 -41 -47 -46 -73c23 -3 41 -23 41 -48c0 -27 -22 -49 -50 -49c-23 0 -48 16 -48 57c0 54 41 103 77 139zM139 731l26 -26c-23 -22 -42 -47 -47 -73c24 -3 41 -23 41 -48c0 -27 -21 -49 -49 -49c-23 0 -49 16 -49 57c0 54 41 103 78 139z" />
    <glyph glyph-name="quotedblright" unicode="&#x201d;" horiz-adv-x="353" 
d="M82 535l-26 26c22 23 41 48 46 73c-23 4 -41 24 -41 48c0 28 21 49 49 49c24 0 49 -15 49 -57c0 -53 -41 -103 -77 -139zM215 535l-26 26c23 23 41 48 47 73c-24 4 -42 24 -42 48c0 28 22 49 50 49c23 0 48 -15 48 -57c0 -53 -40 -103 -77 -139z" />
    <glyph glyph-name="quotedblbase" unicode="&#x201e;" horiz-adv-x="353" 
d="M82 -105l-26 26c22 22 41 47 46 73c-23 3 -41 23 -41 48c0 27 21 49 49 49c24 0 49 -16 49 -57c0 -54 -41 -103 -77 -139zM215 -105l-26 26c23 22 41 47 47 73c-24 3 -42 23 -42 48c0 27 22 49 50 49c23 0 48 -16 48 -57c0 -54 -40 -103 -77 -139z" />
    <glyph glyph-name="dagger" unicode="&#x2020;" horiz-adv-x="500" 
d="M61 392v58h153v300h72v-300h153v-58h-153v-642h-72v642h-153z" />
    <glyph glyph-name="daggerdbl" unicode="&#x2021;" horiz-adv-x="500" 
d="M61 66v58h153v268h-153v58h153v300h72v-300h153v-58h-153v-268h153v-58h-153v-316h-72v316h-153z" />
    <glyph glyph-name="bullet" unicode="&#x2022;" horiz-adv-x="259" 
d="M58 275c0 40 32 71 72 71s71 -31 71 -71s-31 -71 -71 -71s-72 31 -72 71z" />
    <glyph glyph-name="ellipsis" unicode="&#x2026;" horiz-adv-x="659" 
d="M61 42c0 27 21 49 49 49c27 0 49 -22 49 -49c0 -28 -22 -49 -49 -49c-28 0 -49 21 -49 49zM280 42c0 27 22 49 49 49c28 0 49 -22 49 -49c0 -28 -21 -49 -49 -49c-27 0 -49 21 -49 49zM500 42c0 27 22 49 49 49s49 -22 49 -49c0 -28 -22 -49 -49 -49s-49 21 -49 49z" />
    <glyph glyph-name="perthousand" unicode="&#x2030;" horiz-adv-x="1247" 
d="M207 0l368 700h74l-368 -700h-74zM40 538c0 101 69 169 170 169c100 0 169 -68 169 -169s-69 -169 -169 -169c-101 0 -170 68 -170 169zM106 538c0 -67 42 -113 104 -113c61 0 103 46 103 113s-42 113 -103 113c-62 0 -104 -46 -104 -113zM476 162c0 101 69 169 169 169
c101 0 170 -68 170 -169s-69 -169 -170 -169c-100 0 -169 68 -169 169zM542 162c0 -67 42 -113 103 -113c62 0 104 46 104 113s-42 113 -104 113c-61 0 -103 -46 -103 -113zM868 162c0 101 69 169 169 169c101 0 169 -68 169 -169s-68 -169 -169 -169
c-100 0 -169 68 -169 169zM934 162c0 -67 42 -113 103 -113s104 46 104 113s-43 113 -104 113s-103 -46 -103 -113z" />
    <glyph glyph-name="guilsinglleft" unicode="&#x2039;" horiz-adv-x="300" 
d="M206 79l-170 171l170 171l38 -38l-132 -133l132 -133z" />
    <glyph glyph-name="guilsinglright" unicode="&#x203a;" horiz-adv-x="300" 
d="M260 250l-171 -171l-38 38l133 133l-133 133l38 38z" />
    <glyph glyph-name="fraction" unicode="&#x2044;" horiz-adv-x="530" 
d="M53 0l368 700h56l-368 -700h-56z" />
    <glyph glyph-name="Euro" unicode="&#x20ac;" horiz-adv-x="747" 
d="M40 396v44h67c35 162 164 267 343 267c106 0 195 -37 257 -101l-49 -48c-49 51 -119 81 -204 81c-134 0 -234 -78 -267 -199h268v-44h-276c-2 -15 -3 -30 -3 -46s1 -31 3 -46h276v-44h-268c33 -122 133 -199 267 -199c85 0 155 29 204 80l49 -47
c-62 -64 -151 -101 -257 -101c-179 0 -308 105 -343 267h-67v44h60c-1 15 -2 30 -2 46c0 15 1 31 2 46h-60z" />
    <glyph glyph-name="uni20B4" unicode="&#x20b4;" horiz-adv-x="427" 
d="M43 390v44h207l14 14c26 25 43 47 43 91c0 60 -45 102 -108 102c-45 0 -83 -17 -108 -48l-47 47c38 43 91 67 155 67c109 0 183 -67 183 -166c0 -46 -17 -78 -41 -107h43v-44h-84l-78 -78h162v-44h-205l-16 -16c-26 -25 -43 -47 -43 -91c0 -60 45 -102 108 -102
c45 0 83 17 108 48l47 -47c-38 -43 -91 -67 -155 -67c-109 0 -183 67 -183 166c0 46 17 79 42 109h-44v44h86l77 78h-163z" />
    <glyph glyph-name="afii61352" unicode="&#x2116;" horiz-adv-x="995" 
d="M76 700h51l435 -558v558h75v-700h-51l-435 558v-558h-75v700zM709 576c0 76 52 128 128 128c77 0 129 -52 129 -128s-52 -128 -129 -128c-76 0 -128 52 -128 128zM757 576c0 -52 33 -86 80 -86c48 0 81 34 81 86c0 51 -33 86 -81 86c-47 0 -80 -35 -80 -86z" />
    <glyph glyph-name="trademark" unicode="&#x2122;" horiz-adv-x="684" 
d="M167 662v-312h-46v312h-97v38h240v-38h-97zM599 350v257l-112 -180h-18l-112 180v-257h-45v350h34l132 -207l132 207h35v-350h-46z" />
    <glyph glyph-name="arrowleft" unicode="&#x2190;" horiz-adv-x="996" 
d="M406 -4l-354 354l354 354l47 -48l-272 -272h738v-68h-738l273 -271z" />
    <glyph glyph-name="arrowup" unicode="&#x2191;" horiz-adv-x="811" 
d="M372 -162v737l-272 -273l-48 48l354 354l353 -354l-48 -47l-271 272v-737h-68z" />
    <glyph glyph-name="arrowright" unicode="&#x2192;" horiz-adv-x="996" 
d="M77 316v68h737l-272 272l48 48l354 -354l-354 -354l-48 49l272 271h-737z" />
    <glyph glyph-name="arrowdown" unicode="&#x2193;" horiz-adv-x="811" 
d="M406 -167l-354 354l48 48l272 -272v737h68v-737l271 272l48 -48z" />
    <glyph glyph-name="uni2196" unicode="&#x2196;" horiz-adv-x="766" 
d="M77 132v500h500v-68h-384l521 -521l-48 -48l-521 522v-385h-68z" />
    <glyph glyph-name="uni2197" unicode="&#x2197;" horiz-adv-x="766" 
d="M189 564v68h500v-500h-68v385l-521 -522l-48 48l522 521h-385z" />
    <glyph glyph-name="uni2198" unicode="&#x2198;" horiz-adv-x="766" 
d="M189 0v68h385l-522 521l48 48l521 -521v384h68v-500h-500z" />
    <glyph glyph-name="uni2199" unicode="&#x2199;" horiz-adv-x="766" 
d="M77 0v500h68v-384l521 521l48 -48l-521 -521h384v-68h-500z" />
    <glyph glyph-name="minus" unicode="&#x2212;" horiz-adv-x="436" 
d="M61 273v59h314v-59h-314z" />
    <glyph glyph-name="commaaccent" unicode="&#xf6c3;" 
d="M85 -217l-22 22c20 20 37 42 41 65c-21 2 -36 20 -36 40c0 24 18 42 42 42c21 0 42 -13 42 -49c0 -46 -35 -89 -67 -120z" />
    <glyph glyph-name="adieresis.alt" horiz-adv-x="539" 
d="M279 457c80 0 147 -27 187 -73v-384h-73v36c-35 -28 -80 -43 -131 -43c-129 0 -217 94 -217 232s94 232 234 232zM121 225c0 -99 64 -167 159 -167c46 0 86 15 113 42v256c-28 23 -70 36 -116 36c-94 0 -156 -68 -156 -167zM325 573c0 26 20 47 46 47c27 0 47 -21 47 -47
s-20 -47 -47 -47c-26 0 -46 21 -46 47zM138 573c0 26 20 46 46 46s47 -20 47 -46s-21 -47 -47 -47s-46 21 -46 47z" />
    <glyph glyph-name="agrave.alt" horiz-adv-x="539" 
d="M279 457c80 0 147 -27 187 -73v-384h-73v36c-35 -28 -80 -43 -131 -43c-129 0 -217 94 -217 232s94 232 234 232zM121 225c0 -99 64 -167 159 -167c46 0 86 15 113 42v256c-28 23 -70 36 -116 36c-94 0 -156 -68 -156 -167zM215 675l125 -125l-38 -38l-125 125z" />
    <glyph glyph-name="amacron.alt" horiz-adv-x="539" 
d="M279 457c80 0 147 -27 187 -73v-384h-73v36c-35 -28 -80 -43 -131 -43c-129 0 -217 94 -217 232s94 232 234 232zM121 225c0 -99 64 -167 159 -167c46 0 86 15 113 42v256c-28 23 -70 36 -116 36c-94 0 -156 -68 -156 -167zM156 543v47h244v-47h-244z" />
    <glyph glyph-name="aogonek.alt" horiz-adv-x="539" 
d="M422 -39c0 -36 23 -58 55 -58c16 0 30 6 40 16l27 -27c-16 -17 -39 -26 -67 -26c-55 0 -93 37 -93 95c0 14 2 27 9 39v36c-35 -28 -80 -43 -131 -43c-129 0 -217 94 -217 232s94 232 234 232c80 0 147 -27 187 -73v-384h-34c-7 -10 -10 -25 -10 -39zM121 225
c0 -99 64 -167 159 -167c46 0 86 15 113 42v256c-28 23 -70 36 -116 36c-94 0 -156 -68 -156 -167z" />
    <glyph glyph-name="aring.alt" horiz-adv-x="539" 
d="M279 457c80 0 147 -27 187 -73v-384h-73v36c-35 -28 -80 -43 -131 -43c-129 0 -217 94 -217 232s94 232 234 232zM121 225c0 -99 64 -167 159 -167c46 0 86 15 113 42v256c-28 23 -70 36 -116 36c-94 0 -156 -68 -156 -167zM192 596c0 53 36 89 87 89c53 0 88 -36 88 -89
c0 -54 -35 -90 -88 -90c-51 0 -87 36 -87 90zM227 595c0 -32 22 -54 52 -54c32 0 53 22 53 54c0 33 -22 55 -53 55c-30 0 -52 -22 -52 -55z" />
    <glyph glyph-name="atilde.alt" horiz-adv-x="539" 
d="M279 457c80 0 147 -27 187 -73v-384h-73v36c-35 -28 -80 -43 -131 -43c-129 0 -217 94 -217 232s94 232 234 232zM121 225c0 -99 64 -167 159 -167c46 0 86 15 113 42v256c-28 23 -70 36 -116 36c-94 0 -156 -68 -156 -167zM184 539h-43c0 52 35 88 84 88
c59 0 64 -49 107 -49c25 0 43 18 43 44h42c0 -52 -34 -87 -85 -87c-60 0 -63 48 -106 48c-25 0 -42 -17 -42 -44z" />
    <glyph glyph-name="g.alt" horiz-adv-x="539" 
d="M393 -33v63c-34 -24 -77 -37 -126 -37c-132 0 -222 94 -222 232s94 232 234 232c80 0 147 -27 187 -73v-417c0 -137 -89 -224 -222 -224c-71 0 -129 24 -171 68l45 45c29 -30 72 -48 122 -48c93 0 153 61 153 159zM121 225c0 -99 63 -167 157 -167c48 0 88 17 115 47v251
c-28 23 -70 36 -116 36c-94 0 -156 -68 -156 -167z" />
    <glyph glyph-name="gbreve.alt" horiz-adv-x="539" 
d="M393 -33v63c-34 -24 -77 -37 -126 -37c-132 0 -222 94 -222 232s94 232 234 232c80 0 147 -27 187 -73v-417c0 -137 -89 -224 -222 -224c-71 0 -129 24 -171 68l45 45c29 -30 72 -48 122 -48c93 0 153 61 153 159zM121 225c0 -99 63 -167 157 -167c48 0 88 17 115 47v251
c-28 23 -70 36 -116 36c-94 0 -156 -68 -156 -167zM276 582c43 0 77 16 102 42l38 -38c-35 -37 -82 -59 -140 -59s-104 23 -140 60l38 38c25 -26 59 -43 102 -43z" />
    <glyph glyph-name="gcircumflex.alt" horiz-adv-x="539" 
d="M393 -33v63c-34 -24 -77 -37 -126 -37c-132 0 -222 94 -222 232s94 232 234 232c80 0 147 -27 187 -73v-417c0 -137 -89 -224 -222 -224c-71 0 -129 24 -171 68l45 45c29 -30 72 -48 122 -48c93 0 153 61 153 159zM121 225c0 -99 63 -167 157 -167c48 0 88 17 115 47v251
c-28 23 -70 36 -116 36c-94 0 -156 -68 -156 -167zM277 675l125 -125l-38 -38l-87 87l-88 -87l-38 38z" />
    <glyph glyph-name="gcommaaccent.alt" horiz-adv-x="539" 
d="M393 -33v63c-34 -24 -77 -37 -126 -37c-132 0 -222 94 -222 232s94 232 234 232c80 0 147 -27 187 -73v-417c0 -137 -89 -224 -222 -224c-71 0 -129 24 -171 68l45 45c29 -30 72 -48 122 -48c93 0 153 61 153 159zM121 225c0 -99 63 -167 157 -167c48 0 88 17 115 47v251
c-28 23 -70 36 -116 36c-94 0 -156 -68 -156 -167zM299 683l23 -22c-20 -21 -37 -43 -41 -65c20 -3 35 -20 35 -41c0 -23 -18 -42 -42 -42c-20 0 -41 14 -41 49c0 47 35 90 66 121z" />
    <glyph glyph-name="gdotaccent.alt" horiz-adv-x="539" 
d="M393 -33v63c-34 -24 -77 -37 -126 -37c-132 0 -222 94 -222 232s94 232 234 232c80 0 147 -27 187 -73v-417c0 -137 -89 -224 -222 -224c-71 0 -129 24 -171 68l45 45c29 -30 72 -48 122 -48c93 0 153 61 153 159zM121 225c0 -99 63 -167 157 -167c48 0 88 17 115 47v251
c-28 23 -70 36 -116 36c-94 0 -156 -68 -156 -167zM227 585c0 27 21 49 49 49c27 0 49 -22 49 -49s-22 -49 -49 -49c-28 0 -49 22 -49 49z" />
    <glyph glyph-name="afii10021.alt" horiz-adv-x="816" 
d="M710 0h-604v-150h-70v213h56l280 637h72l280 -637h56v-213h-70v150zM408 605l-229 -542h458z" />
    <glyph glyph-name="afii10029.alt" horiz-adv-x="749" 
d="M28 0l311 700h72l310 -700h-89l-257 602l-258 -602h-89z" />
    <glyph glyph-name="afii10058.alt" horiz-adv-x="1001" 
d="M28 0l311 700h72l136 -309h200c121 0 204 -76 204 -195s-83 -196 -204 -196h-115l-257 602l-258 -602h-89zM747 326h-171l116 -260h55c75 0 126 52 126 130s-51 130 -126 130z" />
    <glyph glyph-name="afii10065.alt" horiz-adv-x="539" 
d="M279 457c80 0 147 -27 187 -73v-384h-73v36c-35 -28 -80 -43 -131 -43c-129 0 -217 94 -217 232s94 232 234 232zM121 225c0 -99 64 -167 159 -167c46 0 86 15 113 42v256c-28 23 -70 36 -116 36c-94 0 -156 -68 -156 -167z" />
    <glyph glyph-name="afii10069.alt" horiz-adv-x="592" 
d="M556 58v-178h-68v120h-383v-120h-68v178h49l176 392h69l175 -392h50zM296 367l-131 -309h262z" />
    <glyph glyph-name="afii10077.alt" horiz-adv-x="529" 
d="M26 0l204 450h69l204 -450h-81l-157 363l-158 -363h-81z" />
    <glyph glyph-name="afii10106.alt" horiz-adv-x="707" 
d="M26 0l204 450h69l86 -190h138c91 0 144 -54 144 -130s-53 -130 -144 -130h-101l-157 363l-158 -363h-81zM521 204h-111l68 -148h43c43 0 73 30 73 74c0 43 -30 74 -73 74z" />
    <glyph glyph-name="acircumflex.alt" horiz-adv-x="539" 
d="M279 457c80 0 147 -27 187 -73v-384h-73v36c-35 -28 -80 -43 -131 -43c-129 0 -217 94 -217 232s94 232 234 232zM121 225c0 -99 64 -167 159 -167c46 0 86 15 113 42v256c-28 23 -70 36 -116 36c-94 0 -156 -68 -156 -167zM279 675l125 -125l-38 -38l-87 87l-87 -87
l-38 38z" />
    <glyph glyph-name="abreve.alt" horiz-adv-x="539" 
d="M279 457c80 0 147 -27 187 -73v-384h-73v36c-35 -28 -80 -43 -131 -43c-129 0 -217 94 -217 232s94 232 234 232zM121 225c0 -99 64 -167 159 -167c46 0 86 15 113 42v256c-28 23 -70 36 -116 36c-94 0 -156 -68 -156 -167zM279 582c43 0 77 16 102 42l38 -38
c-36 -37 -82 -59 -140 -59s-105 23 -140 60l38 38c25 -26 59 -43 102 -43z" />
    <glyph glyph-name="aacute.alt" horiz-adv-x="539" 
d="M279 457c80 0 147 -27 187 -73v-384h-73v36c-35 -28 -80 -43 -131 -43c-129 0 -217 94 -217 232s94 232 234 232zM121 225c0 -99 64 -167 159 -167c46 0 86 15 113 42v256c-28 23 -70 36 -116 36c-94 0 -156 -68 -156 -167zM216 550l126 125l38 -38l-126 -125z" />
    <glyph glyph-name="a.alt" horiz-adv-x="539" 
d="M279 457c80 0 147 -27 187 -73v-384h-73v36c-35 -28 -80 -43 -131 -43c-129 0 -217 94 -217 232s94 232 234 232zM121 225c0 -99 64 -167 159 -167c46 0 86 15 113 42v256c-28 23 -70 36 -116 36c-94 0 -156 -68 -156 -167z" />
    <glyph glyph-name="zero.fitted" horiz-adv-x="530" 
d="M37 350c0 212 92 357 228 357s228 -145 228 -357s-92 -357 -228 -357s-228 145 -228 357zM113 350c0 -173 61 -292 152 -292s152 119 152 292s-61 292 -152 292s-152 -119 -152 -292z" />
    <glyph glyph-name="one.fitted" horiz-adv-x="530" 
d="M112 0v58h116v577l-123 -21v59l196 31v-646h115v-58h-304z" />
    <glyph glyph-name="germandbls.case" horiz-adv-x="590" 
d="M149 521v-521h-76v521c0 110 78 186 192 186s192 -75 192 -184c0 -82 -49 -144 -124 -163c0 -129 209 -82 209 -240c0 -63 -48 -127 -149 -127c-58 0 -112 22 -148 60l46 45c23 -27 62 -44 97 -44c60 0 81 39 81 67c0 102 -209 67 -209 236v58c72 0 122 44 122 111
c0 68 -48 116 -117 116s-116 -50 -116 -121z" />
    <glyph glyph-name="at.case" horiz-adv-x="794" 
d="M628 130l36 -35c-62 -66 -159 -102 -264 -102c-212 0 -355 145 -355 357s143 357 353 357c216 0 351 -147 351 -328c0 -152 -94 -201 -166 -201c-39 0 -73 13 -88 37c-27 -24 -62 -37 -102 -37c-96 0 -161 70 -161 172s70 172 173 172c60 0 109 -20 139 -55v-202
c0 -24 23 -36 50 -36c44 0 96 35 96 144c0 160 -109 283 -291 283c-177 0 -295 -123 -295 -306s118 -306 297 -306c90 0 174 30 227 86zM291 350c0 -74 45 -121 115 -121c33 0 61 10 81 29v189c-21 15 -49 24 -83 24c-69 0 -113 -48 -113 -121z" />
    <glyph glyph-name="parenleft.case" horiz-adv-x="298" 
d="M247 757v-56c-60 0 -111 -143 -111 -352c0 -208 51 -351 111 -351v-55c-105 0 -186 165 -186 407s81 407 186 407z" />
    <glyph glyph-name="parenright.case" horiz-adv-x="298" 
d="M51 701v56c105 0 186 -165 186 -407s-81 -407 -186 -407v56c59 0 111 142 111 351s-52 351 -111 351z" />
    <glyph glyph-name="bracketleft.case" horiz-adv-x="297" 
d="M247 750v-58h-101v-684h101v-58h-174v800h174z" />
    <glyph glyph-name="bracketright.case" horiz-adv-x="297" 
d="M51 692v58h173v-800h-173v58h100v684h-100z" />
    <glyph glyph-name="braceleft.case" horiz-adv-x="318" 
d="M278 -1v-56c-88 0 -157 70 -157 173v75c0 77 -37 130 -81 130v56c44 0 81 53 81 130v77c0 103 69 173 157 173v-56c-44 0 -81 -51 -81 -127v-76c0 -72 -34 -126 -85 -149c51 -24 85 -77 85 -149v-74c0 -76 37 -127 81 -127z" />
    <glyph glyph-name="braceright.case" horiz-adv-x="318" 
d="M40 -57v56c44 0 81 51 81 127v74c0 72 34 125 85 149c-51 23 -85 77 -85 149v76c0 76 -37 127 -81 127v56c88 0 157 -70 157 -173v-77c0 -77 37 -130 81 -130v-56c-44 0 -81 -53 -81 -130v-75c0 -103 -69 -173 -157 -173z" />
    <glyph glyph-name="questiondown.case" horiz-adv-x="471" 
d="M385 114l48 -48c-52 -48 -118 -73 -192 -73c-131 0 -196 87 -196 180c0 149 157 127 157 278v57h72v-57c0 -183 -153 -171 -153 -277c0 -53 34 -116 122 -116c52 0 108 22 142 56zM287 658c0 -27 -22 -49 -49 -49s-49 22 -49 49c0 28 22 49 49 49s49 -21 49 -49z" />
    <glyph glyph-name="guillemotleft.case" horiz-adv-x="470" 
d="M206 179l-170 171l170 171l38 -38l-132 -133l132 -133zM376 179l-171 171l171 171l38 -38l-133 -133l133 -133z" />
    <glyph glyph-name="guillemotright.case" horiz-adv-x="470" 
d="M429 350l-171 -171l-38 38l133 133l-133 133l38 38zM260 350l-171 -171l-38 38l133 133l-133 133l38 38z" />
    <glyph glyph-name="guilsinglleft.case" horiz-adv-x="300" 
d="M206 179l-170 171l170 171l38 -38l-132 -133l132 -133z" />
    <glyph glyph-name="guilsinglright.case" horiz-adv-x="300" 
d="M260 350l-171 -171l-38 38l133 133l-133 133l38 38z" />
    <glyph glyph-name="hyphen.case" horiz-adv-x="340" 
d="M61 321v58h218v-58h-218z" />
    <glyph glyph-name="endash.case" horiz-adv-x="500" 
d="M61 321v58h378v-58h-378z" />
    <glyph glyph-name="emdash.case" horiz-adv-x="700" 
d="M61 321v58h578v-58h-578z" />
    <glyph glyph-name="bar.case" 
d="M73 -50v800h73v-800h-73z" />
    <glyph glyph-name="brokenbar.case" 
d="M73 -50v350h73v-350h-73zM146 750v-350h-73v350h73z" />
    <glyph glyph-name="asciitilde.case" horiz-adv-x="433" 
d="M85 299h-49c0 64 46 107 106 107c78 0 86 -64 148 -64c33 0 57 24 57 60h50c0 -64 -45 -108 -107 -108c-80 0 -86 65 -147 65c-33 0 -58 -24 -58 -60z" />
    <glyph glyph-name="dagger.case" horiz-adv-x="500" 
d="M61 479v58h153v213h72v-213h153v-58h-153v-529h-72v529h-153z" />
    <glyph glyph-name="daggerdbl.case" horiz-adv-x="500" 
d="M61 179v58h153v242h-153v58h153v213h72v-213h153v-58h-153v-242h153v-58h-153v-229h-72v229h-153z" />
    <glyph glyph-name="bullet.case" horiz-adv-x="259" 
d="M58 350c0 40 32 71 72 71s71 -31 71 -71s-31 -71 -71 -71s-72 31 -72 71z" />
    <glyph glyph-name="A.smcp" horiz-adv-x="586" 
d="M478 0l-61 131h-248l-61 -131h-81l233 504h66l233 -504h-81zM293 413l-99 -219h198z" />
    <glyph glyph-name="Aacute.smcp" horiz-adv-x="586" 
d="M478 0l-61 131h-248l-61 -131h-81l233 504h66l233 -504h-81zM293 413l-99 -219h198zM241 562l99 95l34 -34l-98 -96z" />
    <glyph glyph-name="Abreve.smcp" horiz-adv-x="586" 
d="M478 0l-61 131h-248l-61 -131h-81l233 504h66l233 -504h-81zM293 413l-99 -219h198zM293 586c31 0 57 11 75 29l35 -34c-28 -28 -65 -45 -110 -45s-82 18 -109 45l34 34c18 -17 44 -29 75 -29z" />
    <glyph glyph-name="Acircumflex.smcp" horiz-adv-x="586" 
d="M478 0l-61 131h-248l-61 -131h-81l233 504h66l233 -504h-81zM293 413l-99 -219h198zM293 657l98 -95l-34 -35l-64 62l-64 -62l-35 35z" />
    <glyph glyph-name="Agrave.smcp" horiz-adv-x="586" 
d="M478 0l-61 131h-248l-61 -131h-81l233 504h66l233 -504h-81zM293 413l-99 -219h198zM246 657l98 -95l-34 -35l-99 96z" />
    <glyph glyph-name="Adieresis.smcp" horiz-adv-x="586" 
d="M478 0l-61 131h-248l-61 -131h-81l233 504h66l233 -504h-81zM293 413l-99 -219h198zM182 575c0 22 17 40 39 40c23 0 41 -18 41 -40c0 -23 -18 -40 -41 -40c-22 0 -39 17 -39 40zM323 575c0 22 18 40 41 40s41 -18 41 -40c0 -23 -18 -40 -41 -40s-41 17 -41 40z" />
    <glyph glyph-name="Amacron.smcp" horiz-adv-x="586" 
d="M478 0l-61 131h-248l-61 -131h-81l233 504h66l233 -504h-81zM293 413l-99 -219h198zM199 549v42h189v-42h-189z" />
    <glyph glyph-name="Aogonek.smcp" horiz-adv-x="586" 
d="M504 -26c0 -25 17 -39 39 -39c12 0 22 3 29 10l24 -23c-13 -13 -31 -20 -52 -20c-43 0 -73 28 -73 71c0 11 2 19 7 27l-61 131h-248l-61 -131h-81l233 504h66l233 -504h-48c-4 -7 -7 -17 -7 -26zM293 413l-99 -219h198z" />
    <glyph glyph-name="Aring.smcp" horiz-adv-x="586" 
d="M478 0l-61 131h-248l-61 -131h-81l233 504h66l233 -504h-81zM293 413l-99 -219h198zM226 588c0 40 27 66 67 66c41 0 67 -26 67 -66s-26 -66 -67 -66c-40 0 -67 26 -67 66zM256 587c0 -21 15 -35 37 -35s37 14 37 35c0 22 -16 36 -37 36c-22 0 -37 -14 -37 -36z" />
    <glyph glyph-name="Atilde.smcp" horiz-adv-x="586" 
d="M478 0l-61 131h-248l-61 -131h-81l233 504h66l233 -504h-81zM293 413l-99 -219h198zM222 546h-37c0 41 29 68 67 68c45 0 50 -33 81 -33c17 0 30 12 30 30h38c0 -41 -28 -68 -68 -68c-45 0 -49 33 -80 33c-18 0 -31 -12 -31 -30z" />
    <glyph glyph-name="AE.smcp" horiz-adv-x="602" 
d="M363 446v-164h170v-58h-170v-166h198v-58h-268v131h-124l-61 -131h-81l233 504h297v-58h-194zM194 194h99v221z" />
    <glyph glyph-name="AEacute.smcp" horiz-adv-x="602" 
d="M363 446v-164h170v-58h-170v-166h198v-58h-268v131h-124l-61 -131h-81l233 504h297v-58h-194zM194 194h99v221zM268 562l99 95l35 -34l-99 -96z" />
    <glyph glyph-name="B.smcp" horiz-adv-x="432" 
d="M61 0v504h151c86 0 144 -51 144 -132c0 -47 -22 -84 -57 -106c52 -19 85 -65 85 -125c0 -86 -62 -141 -154 -141h-169zM314 146c0 50 -35 84 -86 84h-94v-169h94c51 0 86 33 86 85zM286 367c0 46 -32 76 -78 76h-74v-152h74c46 0 78 30 78 76z" />
    <glyph glyph-name="C.smcp" horiz-adv-x="543" 
d="M118 252c0 -116 80 -195 197 -195c60 0 109 19 144 53l45 -44c-46 -45 -113 -72 -193 -72c-158 0 -266 105 -266 258s108 258 266 258c80 0 147 -27 193 -72l-45 -45c-34 34 -84 54 -144 54c-117 0 -197 -79 -197 -195z" />
    <glyph glyph-name="Cacute.smcp" horiz-adv-x="543" 
d="M118 252c0 -116 80 -195 197 -195c60 0 109 19 144 53l45 -44c-46 -45 -113 -72 -193 -72c-158 0 -266 105 -266 258s108 258 266 258c80 0 147 -27 193 -72l-45 -45c-34 34 -84 54 -144 54c-117 0 -197 -79 -197 -195zM243 564l99 96l35 -35l-99 -95z" />
    <glyph glyph-name="Ccaron.smcp" horiz-adv-x="543" 
d="M118 252c0 -116 80 -195 197 -195c60 0 109 19 144 53l45 -44c-46 -45 -113 -72 -193 -72c-158 0 -266 105 -266 258s108 258 266 258c80 0 147 -27 193 -72l-45 -45c-34 34 -84 54 -144 54c-117 0 -197 -79 -197 -195zM294 527l-99 96l35 34l64 -61l64 61l35 -34z" />
    <glyph glyph-name="Ccedilla.smcp" horiz-adv-x="543" 
d="M118 252c0 -116 80 -195 197 -195c60 0 109 19 144 53l45 -44c-44 -43 -105 -69 -179 -72v-34c30 -7 50 -26 50 -57c0 -36 -27 -61 -64 -61c-20 0 -36 7 -48 19l22 21c7 -5 15 -10 26 -10c19 0 33 13 33 32c0 18 -13 32 -48 32v58c-150 6 -251 110 -251 258
c0 153 108 258 266 258c80 0 147 -27 193 -72l-45 -45c-34 34 -84 54 -144 54c-117 0 -197 -79 -197 -195z" />
    <glyph glyph-name="Ccircumflex.smcp" horiz-adv-x="543" 
d="M118 252c0 -116 80 -195 197 -195c60 0 109 19 144 53l45 -44c-46 -45 -113 -72 -193 -72c-158 0 -266 105 -266 258s108 258 266 258c80 0 147 -27 193 -72l-45 -45c-34 34 -84 54 -144 54c-117 0 -197 -79 -197 -195zM296 657l99 -95l-35 -35l-64 62l-64 -62l-35 35z
" />
    <glyph glyph-name="Cdotaccent.smcp" horiz-adv-x="543" 
d="M118 252c0 -116 80 -195 197 -195c60 0 109 19 144 53l45 -44c-46 -45 -113 -72 -193 -72c-158 0 -266 105 -266 258s108 258 266 258c80 0 147 -27 193 -72l-45 -45c-34 34 -84 54 -144 54c-117 0 -197 -79 -197 -195zM253 584c0 24 19 43 43 43s43 -19 43 -43
c0 -23 -19 -42 -43 -42s-43 19 -43 42z" />
    <glyph glyph-name="D.smcp" horiz-adv-x="541" 
d="M61 0v504h169c158 0 266 -99 266 -252s-108 -252 -266 -252h-169zM423 252c0 116 -79 191 -193 191h-96v-382h96c114 0 193 75 193 191z" />
    <glyph glyph-name="Dcaron.smcp" horiz-adv-x="541" 
d="M61 0v504h169c158 0 266 -99 266 -252s-108 -252 -266 -252h-169zM423 252c0 116 -79 191 -193 191h-96v-382h96c114 0 193 75 193 191zM263 527l-99 96l35 34l64 -61l64 61l35 -34z" />
    <glyph glyph-name="Dcroat.smcp" horiz-adv-x="549" 
d="M41 225v54h38v225h159c159 0 266 -99 266 -252s-107 -252 -266 -252h-159v225h-38zM431 252c0 116 -79 191 -193 191h-87v-164h114v-54h-114v-164h87c114 0 193 75 193 191z" />
    <glyph glyph-name="Eth.smcp" horiz-adv-x="549" 
d="M41 225v54h38v225h159c159 0 266 -99 266 -252s-107 -252 -266 -252h-159v225h-38zM431 252c0 116 -79 191 -193 191h-87v-164h114v-54h-114v-164h87c114 0 193 75 193 191z" />
    <glyph glyph-name="Thorn.smcp" horiz-adv-x="412" 
d="M61 0v504h73v-101h75c94 0 158 -56 158 -145c0 -88 -64 -144 -158 -144h-75v-114h-73zM295 258c0 51 -35 85 -86 85h-75v-168h75c51 0 86 33 86 83z" />
    <glyph glyph-name="E.smcp" horiz-adv-x="388" 
d="M131 446v-164h187v-58h-187v-166h214v-58h-284v504h281v-58h-211z" />
    <glyph glyph-name="Eacute.smcp" horiz-adv-x="388" 
d="M131 446v-164h187v-58h-187v-166h214v-58h-284v504h281v-58h-211zM151 562l98 95l34 -34l-98 -96z" />
    <glyph glyph-name="Ebreve.smcp" horiz-adv-x="388" 
d="M131 446v-164h187v-58h-187v-166h214v-58h-284v504h281v-58h-211zM202 586c31 0 57 11 75 29l34 -34c-28 -28 -65 -45 -109 -45c-45 0 -82 18 -110 45l34 34c19 -17 44 -29 76 -29z" />
    <glyph glyph-name="Ecaron.smcp" horiz-adv-x="388" 
d="M131 446v-164h187v-58h-187v-166h214v-58h-284v504h281v-58h-211zM202 527l-99 96l35 34l64 -61l64 61l34 -34z" />
    <glyph glyph-name="Ecircumflex.smcp" horiz-adv-x="388" 
d="M131 446v-164h187v-58h-187v-166h214v-58h-284v504h281v-58h-211zM202 657l98 -95l-34 -35l-64 62l-64 -62l-35 35z" />
    <glyph glyph-name="Edieresis.smcp" horiz-adv-x="388" 
d="M131 446v-164h187v-58h-187v-166h214v-58h-284v504h281v-58h-211zM90 575c0 22 18 40 40 40c23 0 41 -18 41 -40c0 -23 -18 -40 -41 -40c-22 0 -40 17 -40 40zM232 575c0 22 18 40 41 40s40 -18 40 -40c0 -23 -17 -40 -40 -40s-41 17 -41 40z" />
    <glyph glyph-name="Edotaccent.smcp" horiz-adv-x="388" 
d="M131 446v-164h187v-58h-187v-166h214v-58h-284v504h281v-58h-211zM159 584c0 24 19 43 43 43s43 -19 43 -43c0 -23 -19 -42 -43 -42s-43 19 -43 42z" />
    <glyph glyph-name="Egrave.smcp" horiz-adv-x="388" 
d="M131 446v-164h187v-58h-187v-166h214v-58h-284v504h281v-58h-211zM155 657l98 -95l-34 -35l-98 96z" />
    <glyph glyph-name="Emacron.smcp" horiz-adv-x="388" 
d="M131 446v-164h187v-58h-187v-166h214v-58h-284v504h281v-58h-211zM107 549v42h189v-42h-189z" />
    <glyph glyph-name="Eogonek.smcp" horiz-adv-x="388" 
d="M263 -26c0 -25 16 -39 39 -39c12 0 22 3 29 10l24 -23c-13 -13 -31 -20 -53 -20c-43 0 -73 28 -73 71c0 11 2 19 7 27h-175v504h281v-58h-211v-164h187v-58h-187v-166h214v-58h-75c-5 -7 -7 -17 -7 -26z" />
    <glyph glyph-name="F.smcp" horiz-adv-x="370" 
d="M131 446v-164h176v-58h-176v-224h-70v504h270v-58h-200z" />
    <glyph glyph-name="G.smcp" horiz-adv-x="566" 
d="M311 213v58h193v-205c-46 -46 -113 -72 -193 -72c-158 0 -266 105 -266 258s108 258 266 258c80 0 147 -27 193 -72l-45 -45c-34 34 -84 54 -144 54c-117 0 -197 -79 -197 -195s80 -195 197 -195c47 0 88 12 119 34v122h-123z" />
    <glyph glyph-name="Gbreve.smcp" horiz-adv-x="566" 
d="M311 213v58h193v-205c-46 -46 -113 -72 -193 -72c-158 0 -266 105 -266 258s108 258 266 258c80 0 147 -27 193 -72l-45 -45c-34 34 -84 54 -144 54c-117 0 -197 -79 -197 -195s80 -195 197 -195c47 0 88 12 119 34v122h-123zM310 586c32 0 57 11 75 29l34 -34
c-27 -28 -64 -45 -109 -45s-82 18 -109 45l34 34c18 -17 43 -29 75 -29z" />
    <glyph glyph-name="Gcircumflex.smcp" horiz-adv-x="566" 
d="M311 213v58h193v-205c-46 -46 -113 -72 -193 -72c-158 0 -266 105 -266 258s108 258 266 258c80 0 147 -27 193 -72l-45 -45c-34 34 -84 54 -144 54c-117 0 -197 -79 -197 -195s80 -195 197 -195c47 0 88 12 119 34v122h-123zM311 657l98 -95l-34 -35l-64 62l-65 -62
l-34 35z" />
    <glyph glyph-name="Gcommaaccent.smcp" horiz-adv-x="566" 
d="M311 213v58h193v-205c-46 -46 -113 -72 -193 -72c-158 0 -266 105 -266 258s108 258 266 258c80 0 147 -27 193 -72l-45 -45c-34 34 -84 54 -144 54c-117 0 -197 -79 -197 -195s80 -195 197 -195c47 0 88 12 119 34v122h-123zM284 -168l-18 19c15 15 28 31 31 48
c-17 2 -29 17 -29 33c0 20 16 36 36 36c16 0 35 -10 35 -40c0 -37 -29 -71 -55 -96z" />
    <glyph glyph-name="Gdotaccent.smcp" horiz-adv-x="566" 
d="M311 213v58h193v-205c-46 -46 -113 -72 -193 -72c-158 0 -266 105 -266 258s108 258 266 258c80 0 147 -27 193 -72l-45 -45c-34 34 -84 54 -144 54c-117 0 -197 -79 -197 -195s80 -195 197 -195c47 0 88 12 119 34v122h-123zM268 584c0 24 18 43 42 43s43 -19 43 -43
c0 -23 -19 -42 -43 -42s-42 19 -42 42z" />
    <glyph glyph-name="H.smcp" horiz-adv-x="535" 
d="M131 504v-222h273v222h70v-504h-70v224h-273v-224h-70v504h70z" />
    <glyph glyph-name="Hbar.smcp" horiz-adv-x="545" 
d="M81 0v364h-43v54h43v86h70v-86h238v86h70v-86h48v-54h-48v-364h-70v224h-238v-224h-70zM151 282h238v82h-238v-82z" />
    <glyph glyph-name="Hcircumflex.smcp" horiz-adv-x="535" 
d="M131 504v-222h273v222h70v-504h-70v224h-273v-224h-70v504h70zM268 657l98 -95l-34 -35l-64 62l-64 -62l-35 35z" />
    <glyph glyph-name="I.smcp" horiz-adv-x="189" 
d="M59 0v504h71v-504h-71z" />
    <glyph glyph-name="Iacute.smcp" horiz-adv-x="189" 
d="M59 0v504h71v-504h-71zM43 562l99 95l34 -34l-98 -96z" />
    <glyph glyph-name="Ibreve.smcp" horiz-adv-x="190" 
d="M60 0v504h70v-504h-70zM95 586c32 0 57 11 76 29l34 -34c-28 -28 -65 -45 -110 -45c-44 0 -82 18 -109 45l34 34c18 -17 44 -29 75 -29z" />
    <glyph glyph-name="Icircumflex.smcp" horiz-adv-x="190" 
d="M59 0v504h71v-504h-71zM95 657l99 -95l-35 -35l-64 62l-64 -62l-35 35z" />
    <glyph glyph-name="Idieresis.smcp" horiz-adv-x="190" 
d="M60 0v504h70v-504h-70zM-7 575c0 22 18 40 41 40c22 0 40 -18 40 -40c0 -23 -18 -40 -40 -40c-23 0 -41 17 -41 40zM115 575c0 22 18 40 40 40c23 0 42 -18 42 -40c0 -23 -19 -40 -42 -40c-22 0 -40 17 -40 40z" />
    <glyph glyph-name="Idotaccent.smcp" horiz-adv-x="190" 
d="M60 0v504h70v-504h-70zM52 584c0 24 18 43 42 43c25 0 43 -19 43 -43c0 -23 -18 -42 -43 -42c-24 0 -42 19 -42 42z" />
    <glyph glyph-name="Igrave.smcp" horiz-adv-x="189" 
d="M59 0v504h71v-504h-71zM48 657l98 -95l-34 -35l-99 96z" />
    <glyph glyph-name="Imacron.smcp" horiz-adv-x="190" 
d="M60 0v504h70v-504h-70zM1 549v42h189v-42h-189z" />
    <glyph glyph-name="Iogonek.smcp" horiz-adv-x="190" 
d="M59 0v504h71v-504h-71zM86 -26c0 -25 16 -39 39 -39c12 0 22 3 29 10l24 -23c-13 -13 -31 -20 -53 -20c-42 0 -72 28 -72 71c0 11 1 19 6 27h34c-4 -7 -7 -17 -7 -26z" />
    <glyph glyph-name="Itilde.smcp" horiz-adv-x="189" 
d="M59 0v504h71v-504h-71zM25 546h-38c0 41 29 68 68 68c44 0 49 -33 80 -33c17 0 30 12 30 30h38c0 -41 -28 -68 -68 -68c-45 0 -49 33 -80 33c-17 0 -30 -12 -30 -30z" />
    <glyph glyph-name="IJ.smcp" horiz-adv-x="394" 
d="M61 180v324h70v-324h-70zM264 140v364h71v-364c0 -87 -63 -146 -152 -146c-44 0 -83 16 -110 41l45 45c15 -15 37 -23 62 -23c50 0 84 33 84 83z" />
    <glyph glyph-name="J.smcp" horiz-adv-x="359" 
d="M229 140v364h70v-364c0 -87 -62 -146 -152 -146c-44 0 -83 16 -109 41l45 45c15 -15 36 -23 62 -23c49 0 84 33 84 83z" />
    <glyph glyph-name="Jcircumflex.smcp" horiz-adv-x="358" 
d="M229 140v364h70v-364c0 -87 -62 -146 -152 -146c-44 0 -83 16 -109 41l45 45c15 -15 36 -23 62 -23c49 0 84 33 84 83zM264 657l98 -95l-34 -35l-64 62l-65 -62l-34 35z" />
    <glyph glyph-name="K.smcp" horiz-adv-x="474" 
d="M59 0v504h71v-504h-71zM355 0l-223 259l208 245h89l-208 -245l225 -259h-91z" />
    <glyph glyph-name="Kcommaaccent.smcp" horiz-adv-x="474" 
d="M59 0v504h71v-504h-71zM355 0l-223 259l208 245h89l-208 -245l225 -259h-91zM219 -168l-19 19c15 15 28 31 31 48c-16 2 -28 17 -28 33c0 20 15 36 36 36c15 0 35 -10 35 -40c0 -37 -29 -71 -55 -96z" />
    <glyph glyph-name="L.smcp" horiz-adv-x="368" 
d="M131 504v-446h199v-58h-269v504h70z" />
    <glyph glyph-name="Lacute.smcp" horiz-adv-x="368" 
d="M131 504v-446h199v-58h-269v504h70zM117 562l99 95l34 -34l-98 -96z" />
    <glyph glyph-name="Lcaron.smcp" horiz-adv-x="368" 
d="M131 504v-446h199v-58h-269v504h70zM96 527l-98 96l34 34l64 -61l65 61l34 -34z" />
    <glyph glyph-name="Lcommaaccent.smcp" horiz-adv-x="368" 
d="M131 504v-446h199v-58h-269v504h70zM176 -168l-19 19c16 15 28 31 32 48c-17 2 -29 17 -29 33c0 20 15 36 35 36c17 0 36 -10 36 -40c0 -37 -29 -71 -55 -96z" />
    <glyph glyph-name="Ldot.smcp" horiz-adv-x="368" 
d="M131 504v-446h199v-58h-269v504h70zM230 234c0 24 19 43 43 43s43 -19 43 -43s-19 -43 -43 -43s-43 19 -43 43z" />
    <glyph glyph-name="Lslash.smcp" horiz-adv-x="396" 
d="M15 163l74 71v270h71v-215l62 60l35 -34l-97 -95v-162h198v-58h-269v166l-39 -38z" />
    <glyph glyph-name="M.smcp" horiz-adv-x="622" 
d="M491 0v360l-166 -250h-28l-166 250v-360h-70v504h53l197 -293l197 293h53v-504h-70z" />
    <glyph glyph-name="N.smcp" horiz-adv-x="553" 
d="M61 504h46l314 -370v370h71v-504h-46l-315 370v-370h-70v504z" />
    <glyph glyph-name="Nacute.smcp" horiz-adv-x="553" 
d="M61 504h46l314 -370v370h71v-504h-46l-315 370v-370h-70v504zM224 562l99 95l35 -34l-99 -96z" />
    <glyph glyph-name="Ncaron.smcp" horiz-adv-x="553" 
d="M61 504h46l314 -370v370h71v-504h-46l-315 370v-370h-70v504zM276 527l-99 96l35 34l64 -61l64 61l35 -34z" />
    <glyph glyph-name="Ncommaaccent.smcp" horiz-adv-x="553" 
d="M61 504h46l314 -370v370h71v-504h-46l-315 370v-370h-70v504zM258 -168l-19 19c16 15 28 31 33 48c-18 2 -30 17 -30 33c0 20 15 36 36 36c16 0 35 -10 35 -40c0 -37 -29 -71 -55 -96z" />
    <glyph glyph-name="Ntilde.smcp" horiz-adv-x="553" 
d="M61 504h46l314 -370v370h71v-504h-46l-315 370v-370h-70v504zM206 546h-38c0 41 29 68 67 68c45 0 50 -33 81 -33c17 0 30 12 30 30h38c0 -41 -28 -68 -68 -68c-45 0 -49 33 -80 33c-17 0 -30 -12 -30 -30z" />
    <glyph glyph-name="Eng.smcp" horiz-adv-x="553" 
d="M383 -180v45c23 0 38 12 38 36v127l-290 342v-370h-70v504h46l314 -370v370h71v-605c0 -50 -32 -82 -81 -82c-9 0 -22 1 -28 3z" />
    <glyph glyph-name="O.smcp" horiz-adv-x="623" 
d="M45 252c0 153 108 258 266 258c159 0 266 -105 266 -258s-107 -258 -266 -258c-158 0 -266 105 -266 258zM118 252c0 -116 79 -195 193 -195c115 0 193 79 193 195s-78 195 -193 195c-114 0 -193 -79 -193 -195z" />
    <glyph glyph-name="Oacute.smcp" horiz-adv-x="623" 
d="M45 252c0 153 108 258 266 258c159 0 266 -105 266 -258s-107 -258 -266 -258c-158 0 -266 105 -266 258zM118 252c0 -116 79 -195 193 -195c115 0 193 79 193 195s-78 195 -193 195c-114 0 -193 -79 -193 -195zM259 562l100 95l34 -34l-99 -96z" />
    <glyph glyph-name="Obreve.smcp" horiz-adv-x="623" 
d="M45 252c0 153 108 258 266 258c159 0 266 -105 266 -258s-107 -258 -266 -258c-158 0 -266 105 -266 258zM118 252c0 -116 79 -195 193 -195c115 0 193 79 193 195s-78 195 -193 195c-114 0 -193 -79 -193 -195zM311 586c32 0 57 11 75 29l35 -34
c-28 -28 -65 -45 -110 -45s-81 18 -109 45l34 34c18 -17 43 -29 75 -29z" />
    <glyph glyph-name="Ocircumflex.smcp" horiz-adv-x="623" 
d="M45 252c0 153 108 258 266 258c159 0 266 -105 266 -258s-107 -258 -266 -258c-158 0 -266 105 -266 258zM118 252c0 -116 79 -195 193 -195c115 0 193 79 193 195s-78 195 -193 195c-114 0 -193 -79 -193 -195zM311 657l99 -95l-34 -35l-65 62l-64 -62l-35 35z" />
    <glyph glyph-name="Odieresis.smcp" horiz-adv-x="623" 
d="M45 252c0 153 108 258 266 258c159 0 266 -105 266 -258s-107 -258 -266 -258c-158 0 -266 105 -266 258zM118 252c0 -116 79 -195 193 -195c115 0 193 79 193 195s-78 195 -193 195c-114 0 -193 -79 -193 -195zM200 575c0 22 18 40 40 40s40 -18 40 -40
c0 -23 -18 -40 -40 -40s-40 17 -40 40zM342 575c0 22 18 40 40 40c23 0 41 -18 41 -40c0 -23 -18 -40 -41 -40c-22 0 -40 17 -40 40z" />
    <glyph glyph-name="Ograve.smcp" horiz-adv-x="623" 
d="M45 252c0 153 108 258 266 258c159 0 266 -105 266 -258s-107 -258 -266 -258c-158 0 -266 105 -266 258zM118 252c0 -116 79 -195 193 -195c115 0 193 79 193 195s-78 195 -193 195c-114 0 -193 -79 -193 -195zM264 657l99 -95l-34 -35l-100 96z" />
    <glyph glyph-name="Ohungarumlaut.smcp" horiz-adv-x="623" 
d="M45 252c0 153 108 258 266 258c159 0 266 -105 266 -258s-107 -258 -266 -258c-158 0 -266 105 -266 258zM118 252c0 -116 79 -195 193 -195c115 0 193 79 193 195s-78 195 -193 195c-114 0 -193 -79 -193 -195zM201 562l99 95l35 -34l-99 -96zM318 562l99 95l34 -34
l-98 -96z" />
    <glyph glyph-name="Omacron.smcp" horiz-adv-x="623" 
d="M45 252c0 153 108 258 266 258c159 0 266 -105 266 -258s-107 -258 -266 -258c-158 0 -266 105 -266 258zM118 252c0 -116 79 -195 193 -195c115 0 193 79 193 195s-78 195 -193 195c-114 0 -193 -79 -193 -195zM217 549v42h189v-42h-189z" />
    <glyph glyph-name="Oslash.smcp" horiz-adv-x="622" 
d="M44 -6l69 77c-43 45 -68 108 -68 181c0 153 108 258 266 258c61 0 114 -16 156 -43l39 43h72l-69 -77c43 -45 68 -108 68 -181c0 -153 -107 -258 -266 -258c-60 0 -113 15 -156 43l-38 -43h-73zM504 252c0 51 -15 95 -42 128l-262 -293c31 -20 68 -30 111 -30
c115 0 193 79 193 195zM118 252c0 -51 15 -95 42 -128l262 292c-31 20 -68 31 -111 31c-114 0 -193 -79 -193 -195z" />
    <glyph glyph-name="Oslashacute.smcp" horiz-adv-x="622" 
d="M44 -6l69 77c-43 45 -68 108 -68 181c0 153 108 258 266 258c61 0 114 -16 156 -43l39 43h72l-69 -77c43 -45 68 -108 68 -181c0 -153 -107 -258 -266 -258c-60 0 -113 15 -156 43l-38 -43h-73zM504 252c0 51 -15 95 -42 128l-262 -293c31 -20 68 -30 111 -30
c115 0 193 79 193 195zM118 252c0 -51 15 -95 42 -128l262 292c-31 20 -68 31 -111 31c-114 0 -193 -79 -193 -195zM259 562l99 95l35 -34l-99 -96z" />
    <glyph glyph-name="Otilde.smcp" horiz-adv-x="623" 
d="M45 252c0 153 108 258 266 258c159 0 266 -105 266 -258s-107 -258 -266 -258c-158 0 -266 105 -266 258zM118 252c0 -116 79 -195 193 -195c115 0 193 79 193 195s-78 195 -193 195c-114 0 -193 -79 -193 -195zM241 546h-38c0 41 28 68 68 68c44 0 49 -33 81 -33
c17 0 29 12 29 30h38c0 -41 -28 -68 -67 -68c-46 0 -49 33 -81 33c-18 0 -30 -12 -30 -30z" />
    <glyph glyph-name="OE.smcp" horiz-adv-x="681" 
d="M442 446v-164h172v-58h-172v-166h199v-58h-266c-21 -3 -42 -6 -64 -6c-158 0 -266 105 -266 258s108 258 266 258c21 0 43 -3 63 -6h263v-58h-195zM311 57c22 0 43 4 61 10v370c-18 6 -39 10 -61 10c-114 0 -193 -79 -193 -195s79 -195 193 -195z" />
    <glyph glyph-name="P.smcp" horiz-adv-x="412" 
d="M61 0v504h148c94 0 158 -56 158 -145c0 -88 -64 -145 -158 -145h-75v-214h-73zM295 359c0 51 -35 84 -86 84h-75v-168h75c51 0 86 34 86 84z" />
    <glyph glyph-name="Q.smcp" horiz-adv-x="623" 
d="M541 -17l-64 61c-44 -32 -101 -50 -166 -50c-158 0 -266 105 -266 258s108 258 266 258c159 0 266 -105 266 -258c0 -65 -20 -121 -55 -164l63 -60zM118 252c0 -116 79 -195 193 -195c46 0 89 10 119 32l-80 77l44 45l75 -71c23 30 35 68 35 112c0 116 -78 195 -193 195
c-114 0 -193 -79 -193 -195z" />
    <glyph glyph-name="R.smcp" horiz-adv-x="425" 
d="M316 0l-117 214h-65v-214h-73v504h154c95 0 159 -56 159 -145c0 -70 -41 -121 -105 -138l128 -221h-81zM301 359c0 51 -35 84 -86 84h-81v-168h81c51 0 86 34 86 84z" />
    <glyph glyph-name="Racute.smcp" horiz-adv-x="425" 
d="M316 0l-117 214h-65v-214h-73v504h154c95 0 159 -56 159 -145c0 -70 -41 -121 -105 -138l128 -221h-81zM301 359c0 51 -35 84 -86 84h-81v-168h81c51 0 86 34 86 84zM156 562l99 95l35 -34l-100 -96z" />
    <glyph glyph-name="Rcaron.smcp" horiz-adv-x="425" 
d="M316 0l-117 214h-65v-214h-73v504h154c95 0 159 -56 159 -145c0 -70 -41 -121 -105 -138l128 -221h-81zM301 359c0 51 -35 84 -86 84h-81v-168h81c51 0 86 34 86 84zM207 527l-98 96l35 34l63 -61l65 61l35 -34z" />
    <glyph glyph-name="Rcommaaccent.smcp" horiz-adv-x="425" 
d="M316 0l-117 214h-65v-214h-73v504h154c95 0 159 -56 159 -145c0 -70 -41 -121 -105 -138l128 -221h-81zM301 359c0 51 -35 84 -86 84h-81v-168h81c51 0 86 34 86 84zM194 -168l-19 19c16 15 28 31 33 48c-18 2 -30 17 -30 33c0 20 16 36 36 36c17 0 36 -10 36 -40
c0 -37 -29 -71 -56 -96z" />
    <glyph glyph-name="S.smcp" horiz-adv-x="424" 
d="M361 447l-45 -44c-24 24 -67 44 -106 44c-61 0 -85 -43 -85 -76c0 -106 249 -68 249 -229c0 -78 -55 -148 -165 -148c-66 0 -126 26 -170 70l44 44c31 -31 76 -51 120 -51c70 0 98 48 98 83c0 104 -248 63 -248 230c0 74 48 140 150 140c59 0 117 -23 158 -63z" />
    <glyph glyph-name="Sacute.smcp" horiz-adv-x="424" 
d="M361 447l-45 -44c-24 24 -67 44 -106 44c-61 0 -85 -43 -85 -76c0 -106 249 -68 249 -229c0 -78 -55 -148 -165 -148c-66 0 -126 26 -170 70l44 44c31 -31 76 -51 120 -51c70 0 98 48 98 83c0 104 -248 63 -248 230c0 74 48 140 150 140c59 0 117 -23 158 -63zM152 562
l98 95l35 -34l-99 -96z" />
    <glyph glyph-name="Scaron.smcp" horiz-adv-x="424" 
d="M361 447l-45 -44c-24 24 -67 44 -106 44c-61 0 -85 -43 -85 -76c0 -106 249 -68 249 -229c0 -78 -55 -148 -165 -148c-66 0 -126 26 -170 70l44 44c31 -31 76 -51 120 -51c70 0 98 48 98 83c0 104 -248 63 -248 230c0 74 48 140 150 140c59 0 117 -23 158 -63zM203 527
l-98 96l34 34l64 -61l65 61l35 -34z" />
    <glyph glyph-name="Scedilla.smcp" horiz-adv-x="424" 
d="M361 447l-45 -44c-24 24 -67 44 -106 44c-61 0 -85 -43 -85 -76c0 -106 249 -68 249 -229c0 -75 -50 -142 -150 -147v-35c30 -7 49 -26 49 -57c0 -36 -26 -61 -64 -61c-20 0 -35 7 -47 19l22 21c6 -5 14 -10 25 -10c20 0 34 13 34 32c0 18 -14 32 -48 32v59
c-61 3 -115 28 -156 69l44 44c31 -31 76 -51 120 -51c70 0 98 48 98 83c0 104 -248 63 -248 230c0 74 48 140 150 140c59 0 117 -23 158 -63z" />
    <glyph glyph-name="Scircumflex.smcp" horiz-adv-x="424" 
d="M361 447l-45 -44c-24 24 -67 44 -106 44c-61 0 -85 -43 -85 -76c0 -106 249 -68 249 -229c0 -78 -55 -148 -165 -148c-66 0 -126 26 -170 70l44 44c31 -31 76 -51 120 -51c70 0 98 48 98 83c0 104 -248 63 -248 230c0 74 48 140 150 140c59 0 117 -23 158 -63zM203 657
l100 -95l-35 -35l-65 62l-64 -62l-34 35z" />
    <glyph glyph-name="Scommaaccent.smcp" horiz-adv-x="424" 
d="M361 447l-45 -44c-24 24 -67 44 -106 44c-61 0 -85 -43 -85 -76c0 -106 249 -68 249 -229c0 -78 -55 -148 -165 -148c-66 0 -126 26 -170 70l44 44c31 -31 76 -51 120 -51c70 0 98 48 98 83c0 104 -248 63 -248 230c0 74 48 140 150 140c59 0 117 -23 158 -63zM192 -168
l-19 19c15 15 28 31 32 48c-17 2 -29 17 -29 33c0 20 15 36 35 36c17 0 36 -10 36 -40c0 -37 -29 -71 -55 -96z" />
    <glyph glyph-name="T.smcp" horiz-adv-x="438" 
d="M254 446v-446h-70v446h-146v58h362v-58h-146z" />
    <glyph glyph-name="Tbar.smcp" horiz-adv-x="438" 
d="M78 240v53h106v153h-146v58h362v-58h-146v-153h106v-53h-106v-240h-70v240h-106z" />
    <glyph glyph-name="two.fitted" horiz-adv-x="530" 
d="M55 65l306 303c27 27 41 69 41 118c0 92 -58 155 -140 155s-139 -63 -139 -155h-75c0 132 87 221 214 221c128 0 215 -89 215 -221c0 -69 -27 -127 -67 -167l-258 -256h325v-63h-422v65z" />
    <glyph glyph-name="three.fitted" horiz-adv-x="530" 
d="M217 349v62h46c68 0 114 48 114 116s-46 115 -114 115c-66 0 -113 -47 -113 -115h-75c0 107 77 180 188 180c113 0 189 -73 189 -180c0 -68 -33 -119 -85 -145c71 -29 116 -92 116 -179c0 -125 -89 -210 -220 -210c-130 0 -218 85 -218 210h75c0 -86 58 -145 143 -145
c86 0 145 59 145 145s-59 146 -145 146h-46z" />
    <glyph glyph-name="four.fitted" horiz-adv-x="530" 
d="M350 0v136h-317v36l312 528h75v-501h62v-63h-59v-136h-73zM124 199h228v390z" />
    <glyph glyph-name="five.fitted" horiz-adv-x="530" 
d="M477 214c0 -132 -87 -221 -215 -221c-127 0 -214 84 -214 207h73c0 -83 58 -141 141 -141c82 0 140 63 140 155c0 100 -64 169 -158 169c-49 0 -90 -16 -117 -43l-53 21l44 339h307v-63h-243l-30 -211c26 15 60 23 96 23c137 0 229 -95 229 -235z" />
    <glyph glyph-name="six.fitted" horiz-adv-x="530" 
d="M293 707l62 -36c-57 -80 -120 -173 -170 -261c23 13 49 20 81 20c130 0 220 -87 220 -218c0 -130 -89 -219 -221 -219c-131 0 -221 86 -221 225c0 131 65 222 249 489zM119 212c0 -91 60 -154 146 -154s146 63 146 154c0 92 -60 155 -146 155s-146 -63 -146 -155z" />
    <glyph glyph-name="seven.fitted" horiz-adv-x="530" 
d="M53 637v63h424v-27l-254 -673h-78l238 637h-330z" />
    <glyph glyph-name="eight.fitted" horiz-adv-x="530" 
d="M75 527c0 107 78 180 190 180s190 -73 190 -180c0 -68 -34 -119 -86 -145c71 -29 116 -92 116 -179c0 -125 -89 -210 -220 -210s-220 85 -220 210c0 87 44 150 115 179c-52 26 -85 77 -85 145zM120 203c0 -86 59 -145 145 -145s145 59 145 145s-59 145 -145 145
s-145 -59 -145 -145zM151 527c0 -68 47 -115 114 -115s114 47 114 115s-47 115 -114 115s-114 -47 -114 -115z" />
    <glyph glyph-name="nine.fitted" horiz-adv-x="530" 
d="M237 -7l-63 36c58 80 121 173 170 261c-22 -13 -48 -20 -80 -20c-130 0 -220 87 -220 218c0 130 89 219 221 219c131 0 221 -86 221 -225c0 -131 -66 -222 -249 -489zM410 488c0 91 -59 154 -145 154s-145 -63 -145 -154c0 -92 59 -155 145 -155s145 63 145 155z" />
    <glyph glyph-name="exclamdown.case" 
d="M61 658c0 28 21 49 49 49c27 0 49 -21 49 -49c0 -27 -22 -49 -49 -49c-28 0 -49 22 -49 49zM73 508h73v-508h-73v508z" />
    <glyph glyph-name="Uhungarumlaut.smcp" horiz-adv-x="519" 
d="M388 185v319h70v-319c0 -114 -81 -191 -199 -191c-119 0 -198 77 -198 191v319h70v-319c0 -76 52 -128 127 -128c77 0 130 52 130 128zM149 562l99 95l35 -34l-99 -96zM266 562l99 95l35 -34l-99 -96z" />
    <glyph glyph-name="Umacron.smcp" horiz-adv-x="519" 
d="M388 185v319h70v-319c0 -114 -81 -191 -199 -191c-119 0 -198 77 -198 191v319h70v-319c0 -76 52 -128 127 -128c77 0 130 52 130 128zM165 549v42h189v-42h-189z" />
    <glyph glyph-name="Uogonek.smcp" horiz-adv-x="519" 
d="M305 -26c0 -25 17 -39 39 -39c12 0 22 3 29 10l23 -23c-12 -13 -30 -20 -51 -20c-43 0 -73 28 -73 71c0 9 1 15 3 22c-5 -1 -11 -1 -16 -1c-119 0 -198 77 -198 191v319h70v-319c0 -76 52 -128 127 -128c77 0 130 52 130 128v319h70v-319c0 -96 -58 -166 -147 -185
c-4 -7 -6 -17 -6 -26z" />
    <glyph glyph-name="Uring.smcp" horiz-adv-x="519" 
d="M388 185v319h70v-319c0 -114 -81 -191 -199 -191c-119 0 -198 77 -198 191v319h70v-319c0 -76 52 -128 127 -128c77 0 130 52 130 128zM192 588c0 40 28 66 67 66c41 0 68 -26 68 -66s-27 -66 -68 -66c-39 0 -67 26 -67 66zM223 587c0 -21 15 -35 36 -35
c22 0 37 14 37 35c0 22 -15 36 -37 36c-21 0 -36 -14 -36 -36z" />
    <glyph glyph-name="Utilde.smcp" horiz-adv-x="519" 
d="M388 185v319h70v-319c0 -114 -81 -191 -199 -191c-119 0 -198 77 -198 191v319h70v-319c0 -76 52 -128 127 -128c77 0 130 52 130 128zM189 546h-37c0 41 28 68 66 68c45 0 50 -33 81 -33c18 0 30 12 30 30h38c0 -41 -28 -68 -68 -68c-45 0 -48 33 -80 33
c-17 0 -30 -12 -30 -30z" />
    <glyph glyph-name="V.smcp" horiz-adv-x="586" 
d="M559 504l-233 -504h-66l-233 504h83l183 -411l183 411h83z" />
    <glyph glyph-name="W.smcp" horiz-adv-x="859" 
d="M833 504l-194 -504h-71l-139 382l-137 -382h-72l-193 504h82l147 -394l137 394h73l138 -394l147 394h82z" />
    <glyph glyph-name="Wacute.smcp" horiz-adv-x="859" 
d="M833 504l-194 -504h-71l-139 382l-137 -382h-72l-193 504h82l147 -394l137 394h73l138 -394l147 394h82zM378 562l99 95l34 -34l-99 -96z" />
    <glyph glyph-name="Wcircumflex.smcp" horiz-adv-x="859" 
d="M833 504l-194 -504h-71l-139 382l-137 -382h-72l-193 504h82l147 -394l137 394h73l138 -394l147 394h82zM429 657l100 -95l-36 -35l-64 62l-63 -62l-36 35z" />
    <glyph glyph-name="Wdieresis.smcp" horiz-adv-x="859" 
d="M833 504l-194 -504h-71l-139 382l-137 -382h-72l-193 504h82l147 -394l137 394h73l138 -394l147 394h82zM318 575c0 22 18 40 40 40s41 -18 41 -40c0 -23 -19 -40 -41 -40s-40 17 -40 40zM460 575c0 22 18 40 40 40c24 0 41 -18 41 -40c0 -23 -17 -40 -41 -40
c-22 0 -40 17 -40 40z" />
    <glyph glyph-name="Wgrave.smcp" horiz-adv-x="859" 
d="M833 504l-194 -504h-71l-139 382l-137 -382h-72l-193 504h82l147 -394l137 394h73l138 -394l147 394h82zM382 657l99 -95l-34 -35l-99 96z" />
    <glyph glyph-name="X.smcp" horiz-adv-x="566" 
d="M447 0l-164 208l-164 -208h-91l203 255l-197 249h91l158 -200l157 200h92l-198 -249l204 -255h-91z" />
    <glyph glyph-name="Y.smcp" horiz-adv-x="524" 
d="M226 0v212l-199 292h81l154 -223l153 223h82l-200 -293v-211h-71z" />
    <glyph glyph-name="Yacute.smcp" horiz-adv-x="524" 
d="M226 0v212l-199 292h81l154 -223l153 223h82l-200 -293v-211h-71zM210 562l99 95l34 -34l-98 -96z" />
    <glyph glyph-name="Ycircumflex.smcp" horiz-adv-x="524" 
d="M226 0v212l-199 292h81l154 -223l153 223h82l-200 -293v-211h-71zM262 657l98 -95l-34 -35l-64 62l-64 -62l-35 35z" />
    <glyph glyph-name="Ydieresis.smcp" horiz-adv-x="524" 
d="M226 0v212l-199 292h81l154 -223l153 223h82l-200 -293v-211h-71zM150 575c0 22 18 40 40 40c23 0 41 -18 41 -40c0 -23 -18 -40 -41 -40c-22 0 -40 17 -40 40zM292 575c0 22 18 40 41 40s40 -18 40 -40c0 -23 -17 -40 -40 -40s-41 17 -41 40z" />
    <glyph glyph-name="Ygrave.smcp" horiz-adv-x="524" 
d="M226 0v212l-199 292h81l154 -223l153 223h82l-200 -293v-211h-71zM215 657l98 -95l-34 -35l-99 96z" />
    <glyph glyph-name="Z.smcp" horiz-adv-x="489" 
d="M50 446v58h393v-22l-294 -424h295v-58h-399v22l294 424h-289z" />
    <glyph glyph-name="Zacute.smcp" horiz-adv-x="489" 
d="M50 446v58h393v-22l-294 -424h295v-58h-399v22l294 424h-289zM193 562l99 95l34 -34l-99 -96z" />
    <glyph glyph-name="Zcaron.smcp" horiz-adv-x="489" 
d="M50 446v58h393v-22l-294 -424h295v-58h-399v22l294 424h-289zM244 527l-98 96l34 34l64 -61l65 61l34 -34z" />
    <glyph glyph-name="Zdotaccent.smcp" horiz-adv-x="489" 
d="M50 446v58h393v-22l-294 -424h295v-58h-399v22l294 424h-289zM202 584c0 24 18 43 42 43s44 -19 44 -43c0 -23 -20 -42 -44 -42s-42 19 -42 42z" />
    <glyph glyph-name="uni018F.smcp" horiz-adv-x="576" 
d="M530 252c0 -153 -98 -258 -242 -258s-243 105 -243 258v27h410c-11 100 -87 168 -194 168c-60 0 -110 -20 -145 -54l-45 45c47 45 114 72 193 72c159 0 266 -105 266 -258zM288 57c91 0 157 65 166 163h-333c10 -98 75 -163 167 -163z" />
    <glyph glyph-name="afii10017.smcp" horiz-adv-x="586" 
d="M478 0l-61 131h-248l-61 -131h-81l233 504h66l233 -504h-81zM293 413l-99 -219h198z" />
    <glyph glyph-name="afii10018.smcp" horiz-adv-x="424" 
d="M61 0v504h276v-58h-203v-156h86c95 0 159 -57 159 -145c0 -89 -64 -145 -159 -145h-159zM306 145c0 50 -34 84 -86 84h-86v-168h86c52 0 86 33 86 84z" />
    <glyph glyph-name="afii10019.smcp" horiz-adv-x="432" 
d="M61 0v504h151c86 0 144 -51 144 -132c0 -47 -22 -84 -57 -106c52 -19 85 -65 85 -125c0 -86 -62 -141 -154 -141h-169zM314 146c0 50 -35 84 -86 84h-94v-169h94c51 0 86 33 86 85zM286 367c0 46 -32 76 -78 76h-74v-152h74c46 0 78 30 78 76z" />
    <glyph glyph-name="afii10020.smcp" horiz-adv-x="368" 
d="M61 0v504h269v-58h-199v-446h-70z" />
    <glyph glyph-name="afii10021.smcp" horiz-adv-x="532" 
d="M433 0h-334v-108h-66v164c52 0 85 38 85 111v337h326v-446h55v-166h-66v108zM191 167c0 -44 -13 -83 -40 -109h220v388h-180v-279z" />
    <glyph glyph-name="afii10022.smcp" horiz-adv-x="388" 
d="M131 446v-164h187v-58h-187v-166h214v-58h-284v504h281v-58h-211z" />
    <glyph glyph-name="afii10023.smcp" horiz-adv-x="388" 
d="M131 446v-164h187v-58h-187v-166h214v-58h-284v504h281v-58h-211zM90 575c0 22 18 40 40 40c23 0 41 -18 41 -40c0 -23 -18 -40 -41 -40c-22 0 -40 17 -40 40zM232 575c0 22 18 40 41 40s40 -18 40 -40c0 -23 -17 -40 -40 -40s-41 17 -41 40z" />
    <glyph glyph-name="afii10024.smcp" horiz-adv-x="710" 
d="M320 0v504h70v-504h-70zM598 0l-206 259l195 245h81l-194 -245l208 -259h-84zM317 259l-205 -259h-84l208 259l-194 245h81z" />
    <glyph glyph-name="afii10025.smcp" horiz-adv-x="432" 
d="M150 230v61h57c49 0 83 28 83 78c0 49 -32 80 -86 80c-41 0 -82 -19 -115 -51l-43 43c45 44 97 69 163 69c99 0 152 -58 152 -135c0 -50 -23 -87 -62 -109c52 -19 85 -64 85 -126c0 -90 -67 -146 -171 -146c-70 0 -128 26 -175 72l44 44c36 -35 78 -55 126 -55
c67 0 106 37 106 91c0 50 -35 84 -86 84h-78z" />
    <glyph glyph-name="afii10026.smcp" horiz-adv-x="546" 
d="M438 504h47v-504h-71v370l-307 -370h-46v504h70v-370z" />
    <glyph glyph-name="afii10027.smcp" horiz-adv-x="546" 
d="M273 586c31 0 57 11 75 29l34 -34c-28 -28 -64 -45 -109 -45s-82 18 -110 45l35 34c18 -17 43 -29 75 -29zM438 504h47v-504h-71v370l-307 -370h-46v504h70v-370z" />
    <glyph glyph-name="afii10028.smcp" horiz-adv-x="474" 
d="M59 0v504h71v-504h-71zM355 0l-223 259l208 245h89l-208 -245l225 -259h-91z" />
    <glyph glyph-name="afii10029.smcp" horiz-adv-x="513" 
d="M36 0v45c51 0 87 30 87 85v374h329v-504h-74v446h-183v-313c0 -83 -47 -136 -119 -136c-13 0 -31 1 -40 3z" />
    <glyph glyph-name="afii10030.smcp" horiz-adv-x="622" 
d="M491 0v360l-166 -250h-28l-166 250v-360h-70v504h53l197 -293l197 293h53v-504h-70z" />
    <glyph glyph-name="afii10031.smcp" horiz-adv-x="535" 
d="M131 504v-222h273v222h70v-504h-70v224h-273v-224h-70v504h70z" />
    <glyph glyph-name="afii10032.smcp" horiz-adv-x="623" 
d="M45 252c0 153 108 258 266 258c159 0 266 -105 266 -258s-107 -258 -266 -258c-158 0 -266 105 -266 258zM118 252c0 -116 79 -195 193 -195c115 0 193 79 193 195s-78 195 -193 195c-114 0 -193 -79 -193 -195z" />
    <glyph glyph-name="afii10033.smcp" horiz-adv-x="511" 
d="M61 504h389v-504h-70v446h-249v-446h-70v504z" />
    <glyph glyph-name="afii10034.smcp" horiz-adv-x="412" 
d="M61 0v504h148c94 0 158 -56 158 -145c0 -88 -64 -145 -158 -145h-75v-214h-73zM295 359c0 51 -35 84 -86 84h-75v-168h75c51 0 86 34 86 84z" />
    <glyph glyph-name="afii10035.smcp" horiz-adv-x="543" 
d="M118 252c0 -116 80 -195 197 -195c60 0 109 19 144 53l45 -44c-46 -45 -113 -72 -193 -72c-158 0 -266 105 -266 258s108 258 266 258c80 0 147 -27 193 -72l-45 -45c-34 34 -84 54 -144 54c-117 0 -197 -79 -197 -195z" />
    <glyph glyph-name="afii10036.smcp" horiz-adv-x="438" 
d="M254 446v-446h-70v446h-146v58h362v-58h-146z" />
    <glyph glyph-name="afii10037.smcp" horiz-adv-x="477" 
d="M452 504l-261 -504h-76l90 158l-180 346h75l139 -263l138 263h75z" />
    <glyph glyph-name="afii10038.smcp" horiz-adv-x="608" 
d="M269 0v48c-133 0 -224 83 -224 204s91 204 224 204v48h70v-48c133 0 223 -83 223 -204s-90 -204 -223 -204v-48h-70zM339 393v-282c90 0 151 57 151 141s-61 141 -151 141zM269 111v282c-90 0 -151 -57 -151 -141s61 -141 151 -141z" />
    <glyph glyph-name="afii10039.smcp" horiz-adv-x="566" 
d="M447 0l-164 208l-164 -208h-91l203 255l-197 249h91l158 -200l157 200h92l-198 -249l204 -255h-91z" />
    <glyph glyph-name="afii10040.smcp" horiz-adv-x="563" 
d="M464 0h-403v504h70v-446h276v446h70v-446h53v-166h-66v108z" />
    <glyph glyph-name="afii10041.smcp" horiz-adv-x="453" 
d="M392 0h-68v220c-35 -9 -78 -13 -109 -13c-101 0 -154 56 -154 157v140h68v-138c0 -68 30 -103 100 -103c28 0 71 4 95 13v228h68v-504z" />
    <glyph glyph-name="afii10042.smcp" horiz-adv-x="771" 
d="M710 0h-649v504h70v-446h219v446h71v-446h219v446h70v-504z" />
    <glyph glyph-name="afii10043.smcp" horiz-adv-x="796" 
d="M697 0h-636v504h70v-446h219v446h71v-446h219v446h70v-446h53v-166h-66v108z" />
    <glyph glyph-name="afii10044.smcp" horiz-adv-x="512" 
d="M38 446v58h188v-214h82c95 0 159 -57 159 -145c0 -89 -64 -145 -159 -145h-155v446h-115zM394 145c0 50 -35 84 -86 84h-82v-168h82c51 0 86 33 86 84z" />
    <glyph glyph-name="afii10045.smcp" horiz-adv-x="576" 
d="M61 0v504h73v-214h83c94 0 158 -57 158 -145c0 -89 -64 -145 -158 -145h-156zM302 145c0 50 -34 84 -85 84h-83v-168h83c51 0 85 33 85 84zM445 0v504h70v-504h-70z" />
    <glyph glyph-name="afii10046.smcp" horiz-adv-x="420" 
d="M61 0v504h73v-214h83c94 0 158 -57 158 -145c0 -89 -64 -145 -158 -145h-156zM302 145c0 50 -34 84 -85 84h-83v-168h83c51 0 85 33 85 84z" />
    <glyph glyph-name="afii10047.smcp" horiz-adv-x="543" 
d="M83 393l-45 45c47 45 114 72 193 72c159 0 266 -105 266 -258s-107 -258 -266 -258c-79 0 -146 27 -193 72l45 44c35 -34 84 -53 145 -53c107 0 183 66 194 167h-252v58h252c-12 99 -88 165 -194 165c-61 0 -111 -20 -145 -54z" />
    <glyph glyph-name="afii10048.smcp" horiz-adv-x="792" 
d="M131 504v-222h129c12 136 107 228 242 228c146 0 245 -105 245 -258s-99 -258 -245 -258c-136 0 -231 92 -242 230h-129v-224h-70v504h70zM331 252c0 -116 70 -195 171 -195c102 0 172 79 172 195s-70 195 -172 195c-101 0 -171 -79 -171 -195z" />
    <glyph glyph-name="afii10049.smcp" horiz-adv-x="430" 
d="M369 504v-504h-73v214h-71l-113 -214h-80l125 219c-69 16 -112 67 -112 140c0 89 64 145 159 145h165zM118 359c0 -50 35 -84 86 -84h92v168h-92c-51 0 -86 -33 -86 -84z" />
    <glyph glyph-name="afii10050.smcp" horiz-adv-x="366" 
d="M131 446v-446h-70v504h203v90h54v-148h-187z" />
    <glyph glyph-name="afii10051.smcp" horiz-adv-x="537" 
d="M370 0v45c22 0 38 12 38 36v94c0 44 -30 75 -75 75c-33 0 -60 -10 -79 -28v-222h-70v446h-146v58h362v-58h-146v-167c26 20 58 32 96 32c78 0 129 -55 129 -136v-96c0 -50 -30 -82 -81 -82c-9 0 -23 1 -28 3z" />
    <glyph glyph-name="afii10052.smcp" horiz-adv-x="368" 
d="M143 562l98 95l35 -34l-99 -96zM61 0v504h269v-58h-199v-446h-70z" />
    <glyph glyph-name="afii10053.smcp" horiz-adv-x="543" 
d="M315 447c-107 0 -183 -66 -194 -165h295v-58h-295c10 -101 86 -167 194 -167c60 0 109 19 144 53l45 -44c-46 -45 -113 -72 -193 -72c-158 0 -266 105 -266 258s108 258 266 258c80 0 147 -27 193 -72l-45 -45c-34 34 -84 54 -144 54z" />
    <glyph glyph-name="afii10054.smcp" horiz-adv-x="424" 
d="M361 447l-45 -44c-24 24 -67 44 -106 44c-61 0 -85 -43 -85 -76c0 -106 249 -68 249 -229c0 -78 -55 -148 -165 -148c-66 0 -126 26 -170 70l44 44c31 -31 76 -51 120 -51c70 0 98 48 98 83c0 104 -248 63 -248 230c0 74 48 140 150 140c59 0 117 -23 158 -63z" />
    <glyph glyph-name="afii10055.smcp" horiz-adv-x="189" 
d="M59 0v504h71v-504h-71z" />
    <glyph glyph-name="afii10056.smcp" horiz-adv-x="190" 
d="M60 0v504h70v-504h-70zM-7 575c0 22 18 40 41 40c22 0 40 -18 40 -40c0 -23 -18 -40 -40 -40c-23 0 -41 17 -41 40zM115 575c0 22 18 40 40 40c23 0 42 -18 42 -40c0 -23 -19 -40 -42 -40c-22 0 -40 17 -40 40z" />
    <glyph glyph-name="afii10057.smcp" horiz-adv-x="359" 
d="M229 140v364h70v-364c0 -87 -62 -146 -152 -146c-44 0 -83 16 -109 41l45 45c15 -15 36 -23 62 -23c49 0 84 33 84 83z" />
    <glyph glyph-name="afii10058.smcp" horiz-adv-x="728" 
d="M369 0v446h-174v-313c0 -83 -47 -136 -119 -136c-13 0 -31 1 -40 3v45c51 0 87 30 87 85v374h318v-214h83c95 0 158 -57 158 -145c0 -89 -63 -145 -158 -145h-155zM610 145c0 50 -35 84 -86 84h-83v-168h83c51 0 86 33 86 84z" />
    <glyph glyph-name="afii10059.smcp" horiz-adv-x="725" 
d="M131 504v-214h235v214h73v-214h83c94 0 158 -57 158 -145c0 -89 -64 -145 -158 -145h-156v229h-235v-229h-70v504h70zM607 145c0 50 -34 84 -85 84h-83v-168h83c51 0 85 33 85 84z" />
    <glyph glyph-name="afii10060.smcp" horiz-adv-x="537" 
d="M254 446v-167c26 20 58 32 96 32c78 0 129 -55 129 -136v-175h-71v175c0 44 -30 75 -75 75c-33 0 -60 -10 -79 -28v-222h-70v446h-146v58h362v-58h-146z" />
    <glyph glyph-name="afii10061.smcp" horiz-adv-x="474" 
d="M59 0v504h71v-504h-71zM355 0l-223 259l208 245h89l-208 -245l225 -259h-91zM185 562l99 95l35 -34l-100 -96z" />
    <glyph glyph-name="afii10062.smcp" horiz-adv-x="477" 
d="M239 586c31 0 57 11 75 29l34 -34c-28 -28 -64 -45 -109 -45s-82 18 -110 45l35 34c17 -17 43 -29 75 -29zM452 504l-261 -504h-76l90 158l-180 346h75l139 -263l138 263h75z" />
    <glyph glyph-name="afii10145.smcp" horiz-adv-x="538" 
d="M237 0h-176v504h70v-446h276v446h70v-504h-175v-108h-65v108z" />
    <glyph glyph-name="uni040D.smcp" horiz-adv-x="546" 
d="M226 657l98 -95l-34 -35l-99 96zM438 504h47v-504h-71v370l-307 -370h-46v504h70v-370z" />
    <glyph glyph-name="uni0400.smcp" horiz-adv-x="388" 
d="M131 446v-164h187v-58h-187v-166h214v-58h-284v504h281v-58h-211zM155 657l99 -95l-35 -35l-98 96z" />
    <glyph glyph-name="uni04D8.smcp" horiz-adv-x="576" 
d="M530 252c0 -153 -98 -258 -242 -258s-243 105 -243 258v27h410c-11 100 -87 168 -194 168c-60 0 -110 -20 -145 -54l-45 45c47 45 114 72 193 72c159 0 266 -105 266 -258zM288 57c91 0 157 65 166 163h-333c10 -98 75 -163 167 -163z" />
    <glyph glyph-name="afii10056_afii10056.smcp" horiz-adv-x="379" 
d="M60 0v504h70v-504h-70zM-7 575c0 22 18 40 41 40c22 0 40 -18 40 -40c0 -23 -18 -40 -40 -40c-23 0 -41 17 -41 40zM249 0v504h71v-504h-71zM305 575c0 22 17 40 40 40c24 0 41 -18 41 -40c0 -23 -17 -40 -41 -40c-23 0 -40 17 -40 40zM149 575c0 22 17 40 41 40
c22 0 40 -18 40 -40c0 -23 -18 -40 -40 -40c-24 0 -41 17 -41 40z" />
    <glyph glyph-name="afii10021.alt.smcp" horiz-adv-x="625" 
d="M527 0h-428v-108h-66v166h41l205 446h67l206 -446h40v-166h-65v108zM312 414l-157 -356h315z" />
    <glyph glyph-name="afii10029.alt.smcp" horiz-adv-x="586" 
d="M27 0l233 504h66l233 -504h-83l-183 411l-183 -411h-83z" />
    <glyph glyph-name="afii10058.alt.smcp" horiz-adv-x="777" 
d="M27 0l233 504h66l100 -214h147c95 0 159 -57 159 -145c0 -89 -64 -145 -159 -145h-97l-183 411l-183 -411h-83zM573 229h-121l80 -168h41c51 0 86 33 86 84c0 50 -35 84 -86 84z" />
    <glyph glyph-name="Aringacute.smcp" horiz-adv-x="586" 
d="M258 633l98 96l35 -34l-79 -76c30 -7 48 -31 48 -63c0 -27 -12 -48 -31 -59l230 -497h-81l-61 131h-248l-61 -131h-81l230 498c-20 11 -31 31 -31 58c0 32 18 55 46 62zM293 413l-99 -219h198zM256 555c0 -21 15 -35 37 -35s37 14 37 35c0 22 -16 36 -37 36
c-22 0 -37 -14 -37 -36z" />
    <glyph glyph-name="germandbls.smcp" horiz-adv-x="464" 
d="M130 369v-369h-71v369c0 84 61 141 150 141s150 -56 150 -139c0 -56 -34 -100 -87 -117c1 -84 150 -51 150 -164c0 -49 -39 -96 -116 -96c-45 0 -87 17 -115 46l42 42c17 -18 44 -31 68 -31c38 0 53 23 53 40c0 63 -150 42 -150 160v52c50 0 85 28 85 71
c0 44 -33 76 -80 76s-79 -34 -79 -81z" />
    <glyph glyph-name="at.smcp" horiz-adv-x="614" 
d="M474 98l33 -32c-48 -47 -119 -72 -198 -72c-160 0 -268 105 -268 258s108 258 267 258c162 0 265 -106 265 -237c0 -110 -72 -145 -127 -145c-30 0 -56 10 -68 28c-20 -18 -46 -28 -77 -28c-71 0 -118 50 -118 124s52 124 131 124c48 0 86 -16 108 -43v-131
c0 -20 17 -28 35 -28c29 0 62 24 62 92c0 115 -81 198 -210 198c-128 0 -214 -86 -214 -212s85 -212 215 -212c64 0 125 21 164 58zM236 252c0 -48 31 -78 79 -78c22 0 41 6 55 18v123c-14 10 -34 15 -57 15c-46 0 -77 -31 -77 -78z" />
    <glyph glyph-name="parenleft.smcp" horiz-adv-x="241" 
d="M198 546v-51c-41 0 -77 -99 -77 -244c0 -144 36 -242 77 -242v-51c-83 0 -147 119 -147 294s64 294 147 294z" />
    <glyph glyph-name="parenright.smcp" horiz-adv-x="241" 
d="M43 495v51c84 0 148 -119 148 -294s-64 -294 -148 -294v51c41 0 78 98 78 243s-37 243 -78 243z" />
    <glyph glyph-name="bracketleft.smcp" horiz-adv-x="243" 
d="M200 540v-53h-73v-470h73v-53h-141v576h141z" />
    <glyph glyph-name="bracketright.smcp" horiz-adv-x="243" 
d="M43 487v53h141v-576h-141v53h73v470h-73z" />
    <glyph glyph-name="braceleft.smcp" horiz-adv-x="255" 
d="M218 9v-51c-71 0 -126 52 -126 128v51c0 52 -25 88 -54 88v51c29 0 54 36 54 89v53c0 76 55 128 126 128v-51c-29 0 -55 -35 -55 -86v-53c0 -49 -25 -88 -63 -105c38 -18 63 -55 63 -106v-51c0 -50 26 -85 55 -85z" />
    <glyph glyph-name="braceright.smcp" horiz-adv-x="255" 
d="M38 -42v51c29 0 54 35 54 85v51c0 51 25 88 64 106c-39 17 -64 56 -64 105v53c0 51 -25 86 -54 86v51c71 0 125 -52 125 -128v-53c0 -53 26 -89 55 -89v-51c-29 0 -55 -36 -55 -88v-51c0 -76 -54 -128 -125 -128z" />
    <glyph glyph-name="exclamdown.smcp" horiz-adv-x="187" 
d="M51 467c0 24 18 43 42 43c25 0 43 -19 43 -43c0 -23 -18 -42 -43 -42c-24 0 -42 19 -42 42zM59 361h68v-361h-68v361z" />
    <glyph glyph-name="questiondown.smcp" horiz-adv-x="376" 
d="M296 92l44 -44c-41 -35 -90 -54 -147 -54c-98 0 -152 61 -152 132c0 105 116 93 116 193v42h68v-42c0 -128 -113 -127 -113 -192c0 -33 24 -73 83 -73c37 0 76 16 101 38zM234 467c0 -23 -19 -42 -43 -42c-23 0 -43 19 -43 42c0 24 20 43 43 43c24 0 43 -19 43 -43z" />
    <glyph glyph-name="bar.smcp" horiz-adv-x="187" 
d="M59 -36v576h68v-576h-68z" />
    <glyph glyph-name="brokenbar.smcp" horiz-adv-x="187" 
d="M59 -36v252h68v-252h-68zM127 540v-252h-68v252h68z" />
    <glyph glyph-name="dagger.smcp" horiz-adv-x="395" 
d="M51 337v53h112v150h68v-150h113v-53h-113v-373h-68v373h-112z" />
    <glyph glyph-name="daggerdbl.smcp" horiz-adv-x="395" 
d="M51 121v53h112v163h-112v53h112v150h68v-150h113v-53h-113v-163h113v-53h-113v-157h-68v157h-112z" />
    <glyph glyph-name="zero.smcp" horiz-adv-x="443" 
d="M45 252c0 153 72 258 176 258c105 0 176 -105 176 -258s-71 -258 -176 -258c-104 0 -176 105 -176 258zM116 252c0 -117 43 -198 105 -198c63 0 106 81 106 198s-43 198 -106 198c-62 0 -105 -81 -105 -198z" />
    <glyph glyph-name="one.smcp" horiz-adv-x="265" 
d="M34 430v54l150 23v-507h-68v444z" />
    <glyph glyph-name="two.smcp" horiz-adv-x="409" 
d="M44 58l225 215c18 18 27 45 27 76c0 59 -38 100 -94 100c-55 0 -93 -41 -93 -100h-70c0 96 66 161 163 161c99 0 164 -65 164 -161c0 -50 -19 -92 -50 -121l-179 -170h229v-58h-322v58z" />
    <glyph glyph-name="three.smcp" horiz-adv-x="421" 
d="M175 243v58h34c47 0 78 31 78 74c0 44 -31 75 -78 75c-45 0 -77 -31 -77 -75h-70c0 80 59 135 147 135c89 0 148 -55 148 -135c0 -47 -23 -81 -59 -102c49 -22 80 -65 80 -124c0 -92 -69 -155 -169 -155c-99 0 -168 63 -168 155h71c0 -56 40 -95 97 -95c58 0 98 39 98 95
c0 55 -40 94 -98 94h-34z" />
    <glyph glyph-name="four.smcp" horiz-adv-x="436" 
d="M275 0v93h-237v32l234 379h69v-353h45v-58h-43v-93h-68zM123 151h155v250z" />
    <glyph glyph-name="five.smcp" horiz-adv-x="409" 
d="M366 155c0 -96 -65 -161 -164 -161c-97 0 -163 62 -163 154h68c0 -54 39 -93 95 -93s94 41 94 100c0 66 -44 110 -107 110c-33 0 -61 -11 -80 -28l-50 17l32 250h236v-58h-176l-19 -131c17 7 39 11 61 11c104 0 173 -69 173 -171z" />
    <glyph glyph-name="six.smcp" horiz-adv-x="417" 
d="M227 510l59 -34c-43 -51 -91 -116 -126 -175c14 7 30 10 49 10c99 0 167 -62 167 -158c0 -94 -67 -159 -168 -159c-99 0 -167 62 -167 165c0 105 62 197 186 351zM112 153c0 -58 39 -99 96 -99c58 0 97 41 97 99c0 59 -39 100 -97 100c-57 0 -96 -41 -96 -100z" />
    <glyph glyph-name="seven.smcp" horiz-adv-x="417" 
d="M45 446v58h327v-22l-184 -482h-73l168 446h-238z" />
    <glyph glyph-name="eight.smcp" horiz-adv-x="422" 
d="M63 375c0 80 60 135 148 135s148 -55 148 -135c0 -47 -23 -81 -60 -102c50 -22 80 -65 80 -124c0 -92 -68 -155 -168 -155s-168 63 -168 155c0 59 30 102 79 124c-36 21 -59 55 -59 102zM113 149c0 -56 40 -95 98 -95s98 39 98 95c0 55 -40 94 -98 94s-98 -39 -98 -94z
M134 375c0 -43 31 -73 77 -73s78 30 78 73c0 44 -32 75 -78 75s-77 -31 -77 -75z" />
    <glyph glyph-name="nine.smcp" horiz-adv-x="417" 
d="M190 -6l-59 34c43 51 91 116 126 175c-14 -7 -30 -10 -49 -10c-99 0 -167 62 -167 158c0 94 67 159 168 159c99 0 167 -62 167 -165c0 -105 -62 -197 -186 -351zM305 351c0 58 -39 99 -97 99c-57 0 -96 -41 -96 -99c0 -59 39 -100 96 -100c58 0 97 41 97 100z" />
    <glyph glyph-name="dollar.smcp" horiz-adv-x="424" 
d="M191 -72v67c-59 4 -112 29 -152 69l44 44c28 -28 68 -47 108 -51v169c-67 24 -138 54 -138 144c0 71 44 134 138 139v67h39v-68c49 -6 96 -27 131 -61l-45 -44c-20 20 -53 37 -86 42v-161c68 -25 144 -53 144 -142c0 -73 -48 -139 -144 -147v-67h-39zM301 140
c0 36 -31 55 -71 71v-152c50 11 71 51 71 81zM125 371c0 -36 28 -56 66 -72v146c-47 -8 -66 -45 -66 -74z" />
    <glyph glyph-name="Euro.smcp" horiz-adv-x="577" 
d="M38 281v39h49c28 115 125 190 259 190c80 0 147 -27 194 -72l-45 -45c-35 34 -85 54 -145 54c-93 0 -162 -50 -187 -127h189v-39h-197c-1 -10 -2 -19 -2 -29s1 -20 2 -29h197v-39h-189c25 -78 94 -127 187 -127c60 0 110 19 145 53l45 -44c-47 -45 -114 -72 -194 -72
c-134 0 -231 74 -259 190h-49v39h43c-1 9 -1 19 -1 29s0 19 1 29h-43z" />
    <glyph glyph-name="sterling.smcp" horiz-adv-x="407" 
d="M38 225v54h56v85c0 87 62 146 151 146c45 0 84 -16 110 -41l-45 -45c-15 15 -36 23 -62 23c-50 0 -84 -33 -84 -83v-85h129v-54h-129v-133c40 -12 68 -41 104 -41c25 0 41 17 41 40h55c0 -59 -40 -97 -95 -97c-62 0 -93 46 -138 46c-24 0 -41 -15 -41 -40h-55
c0 45 23 78 59 91v134h-56z" />
    <glyph glyph-name="yen.smcp" horiz-adv-x="524" 
d="M126 153v39h100v20l-199 292h81l154 -223l153 223h82l-200 -293v-19h100v-39h-100v-52h100v-39h-100v-62h-71v62h-100v39h100v52h-100z" />
    <glyph glyph-name="uni20B4.smcp" horiz-adv-x="343" 
d="M39 278v39h155l9 8c18 16 29 31 29 58c0 39 -31 66 -74 66c-31 0 -57 -12 -74 -31l-44 43c29 31 69 49 118 49c86 0 144 -51 144 -124c0 -28 -9 -50 -23 -69h25v-39h-60l-53 -50h113v-39h-154l-10 -10c-18 -16 -29 -31 -29 -58c0 -39 31 -66 74 -66c31 0 57 12 74 31
l43 -43c-28 -31 -69 -49 -117 -49c-86 0 -144 51 -144 124c0 28 9 51 24 71h-26v39h62l53 50h-115z" />
    <glyph glyph-name="numbersign.smcp" horiz-adv-x="480" 
d="M259 0l19 119h-119l-19 -119h-68l19 119h-53v54h62l24 158h-61v54h70l20 119h68l-20 -119h119l19 119h68l-19 -119h54v-54h-62l-25 -158h62v-54h-71l-19 -119h-68zM193 331l-25 -158h119l24 158h-118z" />
    <glyph glyph-name="zero.fitted.smcp" horiz-adv-x="417" 
d="M36 252c0 153 69 258 173 258c102 0 172 -105 172 -258s-70 -258 -172 -258c-104 0 -173 105 -173 258zM106 252c0 -117 41 -198 103 -198c60 0 102 81 102 198s-42 198 -102 198c-62 0 -103 -81 -103 -198z" />
    <glyph glyph-name="one.fitted.smcp" horiz-adv-x="417" 
d="M88 0v53h85v391l-91 -14v54l159 23v-454h85v-53h-238z" />
    <glyph glyph-name="two.fitted.smcp" horiz-adv-x="418" 
d="M47 58l227 215c18 18 28 45 28 76c0 59 -39 100 -95 100s-94 -41 -94 -100h-70c0 96 66 161 164 161s164 -65 164 -161c0 -50 -22 -92 -53 -121l-180 -170h233v-58h-324v58z" />
    <glyph glyph-name="three.fitted.smcp" horiz-adv-x="418" 
d="M174 243v58h34c46 0 78 31 78 74c0 44 -32 75 -78 75c-45 0 -77 -31 -77 -75h-70c0 80 59 135 147 135s148 -55 148 -135c0 -47 -23 -81 -59 -102c48 -22 79 -65 79 -124c0 -92 -68 -155 -168 -155c-99 0 -168 63 -168 155h71c0 -56 40 -95 97 -95c58 0 98 39 98 95
c0 55 -40 94 -98 94h-34z" />
    <glyph glyph-name="four.fitted.smcp" horiz-adv-x="417" 
d="M265 0v93h-234v32l231 379h68v-353h45v-58h-42v-93h-68zM116 151h152v250z" />
    <glyph glyph-name="five.fitted.smcp" horiz-adv-x="418" 
d="M371 155c0 -96 -66 -161 -164 -161s-164 62 -164 154h68c0 -54 39 -93 96 -93c56 0 95 41 95 100c0 66 -45 110 -109 110c-34 0 -62 -11 -81 -28l-49 17l32 250h237v-58h-177l-19 -131c16 7 39 11 61 11c105 0 174 -69 174 -171z" />
    <glyph glyph-name="six.fitted.smcp" horiz-adv-x="418" 
d="M228 510l58 -34c-42 -51 -91 -116 -126 -175c14 7 30 10 50 10c98 0 167 -62 167 -158c0 -94 -68 -159 -168 -159s-168 62 -168 165c0 105 61 197 187 351zM111 153c0 -58 40 -99 98 -99s98 41 98 99c0 59 -40 100 -98 100s-98 -41 -98 -100z" />
    <glyph glyph-name="seven.fitted.smcp" horiz-adv-x="417" 
d="M46 446v58h325v-22l-184 -482h-72l168 446h-237z" />
    <glyph glyph-name="eight.fitted.smcp" horiz-adv-x="418" 
d="M61 375c0 80 61 135 148 135c88 0 148 -55 148 -135c0 -47 -23 -81 -60 -102c50 -22 81 -65 81 -124c0 -92 -69 -155 -169 -155s-169 63 -169 155c0 59 31 102 80 124c-37 21 -59 55 -59 102zM111 149c0 -56 40 -95 98 -95s98 39 98 95c0 55 -40 94 -98 94
s-98 -39 -98 -94zM131 375c0 -43 33 -73 78 -73c46 0 77 30 77 73c0 44 -31 75 -77 75c-45 0 -78 -31 -78 -75z" />
    <glyph glyph-name="nine.fitted.smcp" horiz-adv-x="417" 
d="M190 -6l-59 34c43 51 91 116 126 175c-14 -7 -29 -10 -49 -10c-98 0 -167 62 -167 158c0 94 68 159 168 159c99 0 167 -62 167 -165c0 -105 -61 -197 -186 -351zM306 351c0 58 -40 99 -98 99c-57 0 -96 -41 -96 -99c0 -59 39 -100 96 -100c58 0 98 41 98 100z" />
    <glyph glyph-name="exclam.smcp" horiz-adv-x="187" 
d="M51 37c0 23 18 42 42 42c25 0 43 -19 43 -42c0 -24 -18 -43 -43 -43c-24 0 -42 19 -42 43zM59 143v361h68v-361h-68z" />
    <glyph glyph-name="ampersand.smcp" horiz-adv-x="468" 
d="M258 243v58h172v-58h-51v-94c0 -92 -68 -155 -168 -155s-168 63 -168 155c0 59 31 102 80 124c-37 21 -60 55 -60 102c0 80 60 135 148 135s148 -55 148 -135h-70c0 44 -32 75 -78 75s-77 -31 -77 -75c0 -43 31 -74 77 -74h21v-58h-21c-58 0 -98 -39 -98 -94
c0 -56 40 -95 98 -95s98 39 98 95v94h-51z" />
    <glyph glyph-name="slash.smcp" horiz-adv-x="436" 
d="M44 -36l280 576h68l-279 -576h-69z" />
    <glyph glyph-name="backslash.smcp" horiz-adv-x="436" 
d="M113 540l279 -576h-68l-280 576h69z" />
    <glyph glyph-name="question.smcp" horiz-adv-x="376" 
d="M79 412l-44 44c41 35 90 54 147 54c98 0 152 -61 152 -132c0 -105 -116 -93 -116 -193v-42h-68v42c0 128 113 127 113 192c0 33 -24 73 -82 73c-38 0 -77 -16 -102 -38zM141 37c0 23 19 42 43 42s43 -19 43 -42c0 -24 -19 -43 -43 -43s-43 19 -43 43z" />
    <glyph glyph-name="percent.smcp" horiz-adv-x="676" 
d="M165 0l278 504h69l-279 -504h-68zM38 384c0 75 53 126 132 126c78 0 131 -51 131 -126s-53 -126 -131 -126c-79 0 -132 51 -132 126zM99 384c0 -45 29 -75 71 -75s71 30 71 75c0 44 -29 75 -71 75s-71 -31 -71 -75zM374 120c0 75 54 126 133 126c78 0 131 -51 131 -126
s-53 -126 -131 -126c-79 0 -133 51 -133 126zM436 120c0 -44 29 -75 71 -75c41 0 71 31 71 75c0 45 -30 75 -71 75c-42 0 -71 -30 -71 -75z" />
    <glyph glyph-name="perthousand.smcp" horiz-adv-x="974" 
d="M165 0l278 504h69l-279 -504h-68zM38 384c0 75 53 126 132 126c78 0 131 -51 131 -126s-53 -126 -131 -126c-79 0 -132 51 -132 126zM99 384c0 -45 29 -75 71 -75s71 30 71 75c0 44 -29 75 -71 75s-71 -31 -71 -75zM374 120c0 75 54 126 133 126c78 0 131 -51 131 -126
s-53 -126 -131 -126c-79 0 -133 51 -133 126zM436 120c0 -44 29 -75 71 -75c41 0 71 31 71 75c0 45 -30 75 -71 75c-42 0 -71 -30 -71 -75zM673 120c0 75 53 126 132 126c78 0 131 -51 131 -126s-53 -126 -131 -126c-79 0 -132 51 -132 126zM734 120c0 -44 28 -75 71 -75
c42 0 71 31 71 75c0 45 -29 75 -71 75c-43 0 -71 -30 -71 -75z" />
    <glyph glyph-name="section.smcp" horiz-adv-x="340" 
d="M140 319l151 -146l-45 -44l-153 146c-30 28 -51 61 -51 108c0 75 58 127 143 127c49 0 89 -18 118 -49l-43 -43c-18 19 -43 31 -75 31c-43 0 -73 -28 -73 -67c0 -28 10 -46 28 -63zM200 5l-151 146l45 45l154 -147c29 -28 50 -62 50 -108c0 -75 -58 -127 -143 -127
c-49 0 -90 18 -118 49l43 43c18 -19 43 -31 75 -31c42 0 73 28 73 67c0 28 -10 46 -28 63z" />
    <glyph glyph-name="paragraph.smcp" horiz-adv-x="468" 
d="M286 504v-504h-66v224h-19c-92 0 -154 55 -154 140s62 140 154 140h85zM343 0v504h66v-504h-66z" />
    <glyph glyph-name="quoteright_afii10056.smcp" horiz-adv-x="274" 
d="M144 0v504h70v-504h-70zM199 575c0 22 19 40 41 40c23 0 41 -18 41 -40c0 -23 -18 -40 -41 -40c-22 0 -41 17 -41 40zM26 491l-25 26c22 22 41 47 46 73c-24 3 -41 23 -41 48c0 27 21 49 49 49c23 0 49 -16 49 -57c0 -54 -41 -103 -78 -139z" />
    <glyph glyph-name="zero.sub" horiz-adv-x="302" 
d="M34 125c0 106 47 179 117 179s117 -73 117 -179s-47 -179 -117 -179s-117 73 -117 179zM79 125c0 -83 29 -139 72 -139c42 0 71 56 71 139s-29 139 -71 139c-43 0 -72 -56 -72 -139z" />
    <glyph glyph-name="one.sub" horiz-adv-x="182" 
d="M26 251v35l99 16v-352h-44v311z" />
    <glyph glyph-name="two.sub" horiz-adv-x="279" 
d="M33 -12l150 150c12 12 19 32 19 54c0 43 -26 72 -63 72c-38 0 -64 -29 -64 -72h-45c0 67 44 112 109 112c64 0 108 -45 108 -112c0 -34 -13 -63 -33 -83l-121 -121h154v-38h-214v38z" />
    <glyph glyph-name="three.sub" horiz-adv-x="287" 
d="M120 121v37h23c32 0 53 22 53 54c0 31 -21 52 -53 52c-30 0 -52 -21 -52 -52h-46c0 54 41 92 98 92c59 0 98 -38 98 -92c0 -34 -15 -58 -40 -72c33 -15 54 -45 54 -87c0 -64 -45 -107 -112 -107c-66 0 -111 43 -111 107h45c0 -40 27 -67 66 -67c40 0 67 27 67 67
s-27 68 -67 68h-23z" />
    <glyph glyph-name="four.sub" horiz-adv-x="297" 
d="M187 -50v66h-158v20l156 264h44v-247h31v-37h-29v-66h-44zM84 53h105v180z" />
    <glyph glyph-name="five.sub" horiz-adv-x="279" 
d="M247 58c0 -67 -44 -112 -108 -112c-65 0 -109 43 -109 106h44c0 -39 26 -66 65 -66c37 0 63 29 63 72c0 46 -30 78 -73 78c-22 0 -41 -7 -54 -20l-32 12l21 172h157v-38h-118l-12 -95c11 6 26 9 41 9c69 0 115 -48 115 -118z" />
    <glyph glyph-name="six.sub" horiz-adv-x="286" 
d="M156 304l37 -22c-28 -37 -60 -82 -83 -124c9 5 21 7 33 7c65 0 111 -43 111 -109c0 -65 -44 -110 -111 -110c-66 0 -111 43 -111 114s39 129 124 244zM77 56c0 -42 27 -70 66 -70s65 28 65 70c0 43 -26 72 -65 72s-66 -29 -66 -72z" />
    <glyph glyph-name="seven.sub" horiz-adv-x="284" 
d="M34 262v38h216v-14l-123 -336h-47l113 312h-159z" />
    <glyph glyph-name="eight.sub" horiz-adv-x="288" 
d="M46 212c0 54 40 92 98 92s98 -38 98 -92c0 -34 -16 -58 -40 -72c33 -15 54 -45 54 -87c0 -64 -45 -107 -112 -107c-66 0 -112 43 -112 107c0 42 20 72 54 87c-25 14 -40 38 -40 72zM78 53c0 -40 27 -67 66 -67s66 27 66 67s-27 67 -66 67s-66 -27 -66 -67zM92 212
c0 -32 21 -53 52 -53s53 21 53 53c0 31 -22 52 -53 52s-52 -21 -52 -52z" />
    <glyph glyph-name="nine.sub" horiz-adv-x="286" 
d="M130 -54l-38 22c29 37 61 82 84 124c-9 -5 -21 -7 -33 -7c-66 0 -111 43 -111 109c0 65 44 110 111 110c66 0 111 -43 111 -114s-40 -129 -124 -244zM208 194c0 42 -26 70 -65 70s-66 -28 -66 -70c0 -43 27 -72 66 -72s65 29 65 72z" />
    <glyph glyph-name="comma.sub" horiz-adv-x="131" 
d="M51 -106l-16 14c12 13 22 25 25 39c-13 2 -23 13 -23 27c0 16 13 28 29 28c12 0 27 -8 27 -32c0 -30 -23 -57 -42 -76z" />
    <glyph glyph-name="period.sub" horiz-adv-x="131" 
d="M37 -26c0 16 13 28 28 28c16 0 28 -12 28 -28s-12 -28 -28 -28c-15 0 -28 12 -28 28z" />
    <glyph glyph-name="parenleft.sub" horiz-adv-x="167" 
d="M135 329v-33c-28 0 -52 -70 -52 -171c0 -102 24 -171 52 -171v-33c-55 0 -98 83 -98 204s43 204 98 204z" />
    <glyph glyph-name="parenright.sub" horiz-adv-x="167" 
d="M32 296v33c56 0 98 -83 98 -204s-42 -204 -98 -204v33c28 0 52 69 52 171s-24 171 -52 171z" />
    <glyph glyph-name="hyphen.sub" horiz-adv-x="189" 
d="M37 107v36h115v-36h-115z" />
    <glyph glyph-name="zero.sup" horiz-adv-x="302" 
d="M34 525c0 106 47 179 117 179s117 -73 117 -179s-47 -179 -117 -179s-117 73 -117 179zM79 525c0 -83 29 -139 72 -139c42 0 71 56 71 139s-29 139 -71 139c-43 0 -72 -56 -72 -139z" />
    <glyph glyph-name="one.sup" horiz-adv-x="182" 
d="M26 651v35l99 16v-352h-44v311z" />
    <glyph glyph-name="two.sup" horiz-adv-x="279" 
d="M33 388l150 150c12 12 19 32 19 54c0 43 -26 72 -63 72c-38 0 -64 -29 -64 -72h-45c0 67 44 112 109 112c64 0 108 -45 108 -112c0 -34 -13 -63 -33 -83l-121 -121h154v-38h-214v38z" />
    <glyph glyph-name="three.sup" horiz-adv-x="287" 
d="M120 521v37h23c32 0 53 22 53 54c0 31 -21 52 -53 52c-30 0 -52 -21 -52 -52h-46c0 54 41 92 98 92c59 0 98 -38 98 -92c0 -34 -15 -58 -40 -72c33 -15 54 -45 54 -87c0 -64 -45 -107 -112 -107c-66 0 -111 43 -111 107h45c0 -40 27 -67 66 -67c40 0 67 27 67 67
s-27 68 -67 68h-23z" />
    <glyph glyph-name="four.sup" horiz-adv-x="297" 
d="M187 350v66h-158v20l156 264h44v-247h31v-37h-29v-66h-44zM84 453h105v180z" />
    <glyph glyph-name="five.sup" horiz-adv-x="279" 
d="M247 458c0 -67 -44 -112 -108 -112c-65 0 -109 43 -109 106h44c0 -39 26 -66 65 -66c37 0 63 29 63 72c0 46 -30 78 -73 78c-22 0 -41 -7 -54 -20l-32 12l21 172h157v-38h-118l-12 -95c11 6 26 9 41 9c69 0 115 -48 115 -118z" />
    <glyph glyph-name="six.sup" horiz-adv-x="286" 
d="M156 704l37 -22c-28 -37 -60 -82 -83 -124c9 5 21 7 33 7c65 0 111 -43 111 -109c0 -65 -44 -110 -111 -110c-66 0 -111 43 -111 114s39 129 124 244zM77 456c0 -42 27 -70 66 -70s65 28 65 70c0 43 -26 72 -65 72s-66 -29 -66 -72z" />
    <glyph glyph-name="seven.sup" horiz-adv-x="284" 
d="M34 662v38h216v-14l-123 -336h-47l113 312h-159z" />
    <glyph glyph-name="eight.sup" horiz-adv-x="288" 
d="M46 612c0 54 40 92 98 92s98 -38 98 -92c0 -34 -16 -58 -40 -72c33 -15 54 -45 54 -87c0 -64 -45 -107 -112 -107c-66 0 -112 43 -112 107c0 42 20 72 54 87c-25 14 -40 38 -40 72zM78 453c0 -40 27 -67 66 -67s66 27 66 67s-27 67 -66 67s-66 -27 -66 -67zM92 612
c0 -32 21 -53 52 -53s53 21 53 53c0 31 -22 52 -53 52s-52 -21 -52 -52z" />
    <glyph glyph-name="nine.sup" horiz-adv-x="286" 
d="M130 346l-38 22c29 37 61 82 84 124c-9 -5 -21 -7 -33 -7c-66 0 -111 43 -111 109c0 65 44 110 111 110c66 0 111 -43 111 -114s-40 -129 -124 -244zM208 594c0 42 -26 70 -65 70s-66 -28 -66 -70c0 -43 27 -72 66 -72s65 29 65 72z" />
    <glyph glyph-name="comma.sup" horiz-adv-x="131" 
d="M51 294l-16 14c12 13 22 25 25 39c-13 2 -23 13 -23 27c0 16 13 28 29 28c12 0 27 -8 27 -32c0 -30 -23 -57 -42 -76z" />
    <glyph glyph-name="period.sup" horiz-adv-x="131" 
d="M37 374c0 16 13 28 28 28c16 0 28 -12 28 -28s-12 -28 -28 -28c-15 0 -28 12 -28 28z" />
    <glyph glyph-name="parenleft.sup" horiz-adv-x="167" 
d="M135 729v-33c-28 0 -52 -70 -52 -171c0 -102 24 -171 52 -171v-33c-55 0 -98 83 -98 204s43 204 98 204z" />
    <glyph glyph-name="parenright.sup" horiz-adv-x="167" 
d="M32 696v33c56 0 98 -83 98 -204s-42 -204 -98 -204v33c28 0 52 69 52 171s-24 171 -52 171z" />
    <glyph glyph-name="hyphen.sup" horiz-adv-x="189" 
d="M37 507v36h115v-36h-115z" />
    <glyph glyph-name="Ugrave.smcp" horiz-adv-x="519" 
d="M388 185v319h70v-319c0 -114 -81 -191 -199 -191c-119 0 -198 77 -198 191v319h70v-319c0 -76 52 -128 127 -128c77 0 130 52 130 128zM212 657l99 -95l-34 -35l-99 96z" />
    <glyph glyph-name="Udieresis.smcp" horiz-adv-x="519" 
d="M388 185v319h70v-319c0 -114 -81 -191 -199 -191c-119 0 -198 77 -198 191v319h70v-319c0 -76 52 -128 127 -128c77 0 130 52 130 128zM148 575c0 22 18 40 40 40c23 0 40 -18 40 -40c0 -23 -17 -40 -40 -40c-22 0 -40 17 -40 40zM290 575c0 22 18 40 40 40
c23 0 41 -18 41 -40c0 -23 -18 -40 -41 -40c-22 0 -40 17 -40 40z" />
    <glyph glyph-name="Ucircumflex.smcp" horiz-adv-x="519" 
d="M388 185v319h70v-319c0 -114 -81 -191 -199 -191c-119 0 -198 77 -198 191v319h70v-319c0 -76 52 -128 127 -128c77 0 130 52 130 128zM259 657l100 -95l-35 -35l-65 62l-64 -62l-34 35z" />
    <glyph glyph-name="a.ord" horiz-adv-x="260" 
d="M232 483v-31c-4 -1 -12 -2 -18 -2c-21 0 -37 10 -44 26c-18 -18 -44 -28 -70 -28c-48 0 -71 34 -71 68c0 53 53 82 118 82c9 0 15 -1 19 -2v26c0 20 -15 44 -47 44c-20 0 -41 -8 -53 -20l-25 25c20 20 49 33 81 33c59 0 90 -38 90 -82v-119c0 -13 8 -20 20 -20zM115 486
c16 0 37 7 51 22v56c-4 1 -9 2 -16 2c-42 0 -74 -17 -74 -45c0 -14 8 -35 39 -35z" />
    <glyph glyph-name="b.ord" horiz-adv-x="307" 
d="M148 448c-45 0 -83 14 -105 42v375h46v-180c18 12 41 19 68 19c71 0 121 -52 121 -128s-52 -128 -130 -128zM230 576c0 51 -32 86 -81 86c-26 0 -46 -10 -60 -26v-134c13 1 35 -12 61 -12c48 0 80 34 80 86z" />
    <glyph glyph-name="c.ord" horiz-adv-x="272" 
d="M77 576c0 -52 33 -86 82 -86c25 0 47 8 61 23l28 -28c-22 -24 -54 -37 -91 -37c-77 0 -128 52 -128 128s51 128 128 128c37 0 69 -14 91 -38l-28 -28c-14 15 -36 24 -61 24c-49 0 -82 -35 -82 -86z" />
    <glyph glyph-name="d.ord" horiz-adv-x="308" 
d="M265 452h-46v20c-19 -16 -44 -24 -72 -24c-71 0 -118 52 -118 128s51 128 126 128c24 0 45 -6 64 -17v178h46v-413zM77 576c0 -52 33 -86 82 -86c24 0 46 7 60 22v128c-14 14 -36 22 -60 22c-49 0 -82 -35 -82 -86z" />
    <glyph glyph-name="e.ord" horiz-adv-x="289" 
d="M262 562h-183c4 -43 34 -72 82 -72c26 0 48 8 62 23l28 -28c-23 -24 -54 -37 -93 -37c-76 0 -129 51 -129 129c0 75 48 127 120 127s113 -54 113 -142zM149 663c-38 0 -66 -26 -70 -67h136c-5 41 -27 67 -66 67z" />
    <glyph glyph-name="egrave.ord" horiz-adv-x="289" 
d="M262 562h-183c4 -43 34 -72 82 -72c26 0 48 8 62 23l28 -28c-23 -24 -54 -37 -93 -37c-76 0 -129 51 -129 129c0 75 48 127 120 127s113 -54 113 -142zM149 663c-38 0 -66 -26 -70 -67h136c-5 41 -27 67 -66 67zM114 826l72 -71l-24 -23l-72 71z" />
    <glyph glyph-name="f.ord" horiz-adv-x="191" 
d="M23 663v37h33v82c0 53 34 87 86 87c10 0 21 -2 30 -6v-39c-6 3 -15 5 -22 5c-28 0 -45 -19 -45 -47v-82h67v-37h-67v-211h-49v211h-33z" />
    <glyph glyph-name="g.ord" horiz-adv-x="291" 
d="M16 388c0 32 22 56 55 67c-20 10 -30 24 -30 41c0 18 11 33 33 42c-27 14 -41 42 -41 74c0 56 40 92 99 92c28 0 52 -8 69 -23c12 15 26 23 42 23c6 0 10 -1 14 -1v-38c-3 2 -7 2 -11 2c-9 0 -17 -5 -24 -12c6 -12 9 -26 9 -41c0 -54 -40 -90 -100 -90
c-29 0 -45 -11 -45 -27c0 -15 20 -25 54 -25c72 0 119 -31 119 -78c0 -50 -55 -84 -128 -84c-70 0 -115 32 -115 78zM64 388c0 -25 25 -42 66 -42c45 0 81 20 81 47c0 26 -29 42 -71 42c-46 0 -76 -19 -76 -47zM80 614c0 -32 21 -54 53 -54c31 0 54 22 54 54
c0 31 -23 53 -54 53c-32 0 -53 -22 -53 -53z" />
    <glyph glyph-name="h.ord" horiz-adv-x="297" 
d="M43 865h46v-186c19 15 43 25 71 25c57 0 93 -42 93 -103v-149h-46v149c0 37 -24 61 -58 61c-26 0 -46 -8 -60 -24v-186h-46v413z" />
    <glyph glyph-name="i.ord" horiz-adv-x="133" 
d="M43 452v248h46v-248h-46zM36 774c0 17 14 30 30 30c17 0 30 -13 30 -30s-13 -30 -30 -30c-16 0 -30 13 -30 30z" />
    <glyph glyph-name="j.ord" horiz-adv-x="132" 
d="M36 774c0 17 13 30 30 30s30 -13 30 -30s-13 -30 -30 -30s-30 13 -30 30zM14 315v30c17 0 28 10 28 28v327h47v-328c0 -37 -21 -60 -56 -60c-5 0 -15 1 -19 3z" />
    <glyph glyph-name="k.ord" horiz-adv-x="269" 
d="M89 452h-46v413h46v-274l93 109h56l-101 -116l113 -132h-56l-105 125v-125z" />
    <glyph glyph-name="l.ord" horiz-adv-x="148" 
d="M120 483v-31c-4 -1 -15 -2 -21 -2c-35 0 -56 23 -56 60v355h46v-354c0 -19 13 -28 31 -28z" />
    <glyph glyph-name="m.ord" horiz-adv-x="429" 
d="M340 452v165c0 27 -18 45 -43 45s-48 -8 -63 -22c2 -7 3 -15 3 -23v-165h-46v165c0 27 -17 45 -42 45c-26 0 -46 -8 -60 -24v-186h-46v248h46v-21c19 15 43 25 71 25s50 -13 63 -34c21 22 51 34 86 34c47 0 77 -35 77 -87v-165h-46z" />
    <glyph glyph-name="n.ord" horiz-adv-x="296" 
d="M43 700h46v-21c19 15 43 25 71 25c57 0 93 -42 93 -103v-149h-46v149c0 37 -24 61 -58 61c-26 0 -46 -8 -60 -24v-186h-46v248z" />
    <glyph glyph-name="p.ord" horiz-adv-x="308" 
d="M43 700h46v-21c19 15 44 25 72 25c70 0 118 -52 118 -128s-51 -128 -125 -128c-25 0 -47 6 -65 16v-149h-46v385zM230 576c0 51 -32 86 -81 86c-25 0 -46 -8 -60 -24v-126c14 -14 35 -22 60 -22c49 0 81 34 81 86z" />
    </font>
</defs>
</svg>
